G75*
G70*
%OFA0B0*%
%FSLAX24Y24*%
%IPPOS*%
%LPD*%
%AMOC8*
5,1,8,0,0,1.08239X$1,22.5*
%
%ADD10R,0.0394X0.0433*%
%ADD11R,0.0433X0.0394*%
%ADD12C,0.0660*%
%ADD13C,0.0709*%
%ADD14R,0.0945X0.0630*%
%ADD15R,0.0787X0.0945*%
%ADD16C,0.0480*%
%ADD17C,0.0600*%
%ADD18C,0.0100*%
%ADD19C,0.0340*%
D10*
X001050Y002915D03*
X001050Y003585D03*
D11*
X002915Y002950D03*
X003585Y002950D03*
X004315Y002950D03*
X004985Y002950D03*
X006650Y002915D03*
X006650Y003585D03*
D12*
X009750Y004450D03*
X010750Y004450D03*
X010750Y005450D03*
X009750Y005450D03*
X009750Y006450D03*
X010750Y006450D03*
D13*
X011330Y002436D03*
X008770Y002436D03*
X008770Y000664D03*
X011330Y000664D03*
D14*
X001950Y003059D03*
X001950Y004241D03*
D15*
X003563Y003950D03*
X005137Y003950D03*
D16*
X004650Y005150D03*
X003650Y005150D03*
X002650Y005150D03*
X001650Y005150D03*
X005650Y005150D03*
X006650Y005150D03*
X007650Y005150D03*
X007650Y002150D03*
X006650Y002150D03*
X005650Y002150D03*
X004650Y002150D03*
X003650Y002150D03*
X002650Y002150D03*
X001650Y002150D03*
D17*
X001650Y001150D03*
X002650Y001150D03*
X003650Y001150D03*
X004650Y001150D03*
X005650Y001150D03*
X006650Y001150D03*
X007650Y001150D03*
X007650Y006150D03*
X006650Y006150D03*
X005650Y006150D03*
X004650Y006150D03*
X003650Y006150D03*
X002650Y006150D03*
X001650Y006150D03*
D18*
X000300Y007000D02*
X000300Y000300D01*
X008421Y000300D01*
X008386Y000336D01*
X008339Y000400D01*
X008303Y000471D01*
X008279Y000546D01*
X008268Y000614D01*
X008720Y000614D01*
X008720Y000714D01*
X008268Y000714D01*
X008279Y000782D01*
X008303Y000858D01*
X008339Y000928D01*
X008386Y000993D01*
X008442Y001049D01*
X008506Y001096D01*
X008577Y001132D01*
X008652Y001156D01*
X008720Y001167D01*
X008720Y000714D01*
X008820Y000714D01*
X008820Y001167D01*
X008889Y001156D01*
X008964Y001132D01*
X009035Y001096D01*
X009099Y001049D01*
X009155Y000993D01*
X009202Y000928D01*
X009238Y000858D01*
X009262Y000782D01*
X009273Y000714D01*
X008820Y000714D01*
X008820Y000614D01*
X009273Y000614D01*
X009262Y000546D01*
X009238Y000471D01*
X009202Y000400D01*
X009155Y000336D01*
X009120Y000300D01*
X010980Y000300D01*
X010945Y000336D01*
X010898Y000400D01*
X010862Y000471D01*
X010838Y000546D01*
X010827Y000614D01*
X011280Y000614D01*
X011280Y000714D01*
X011280Y001167D01*
X011211Y001156D01*
X011136Y001132D01*
X011065Y001096D01*
X011001Y001049D01*
X010945Y000993D01*
X010898Y000928D01*
X010862Y000858D01*
X010838Y000782D01*
X010827Y000714D01*
X011280Y000714D01*
X011380Y000714D01*
X011380Y001167D01*
X011448Y001156D01*
X011523Y001132D01*
X011594Y001096D01*
X011658Y001049D01*
X011714Y000993D01*
X011761Y000928D01*
X011797Y000858D01*
X011800Y000848D01*
X011800Y007000D01*
X000300Y007000D01*
X000300Y006947D02*
X011800Y006947D01*
X011800Y006848D02*
X010939Y006848D01*
X010999Y006823D02*
X010838Y006890D01*
X010662Y006890D01*
X010501Y006823D01*
X010377Y006699D01*
X010310Y006538D01*
X010310Y006362D01*
X010347Y006273D01*
X010184Y006110D01*
X010032Y006110D01*
X010123Y006201D01*
X010190Y006362D01*
X010190Y006538D01*
X010123Y006699D01*
X009999Y006823D01*
X009838Y006890D01*
X009662Y006890D01*
X009501Y006823D01*
X009377Y006699D01*
X009310Y006538D01*
X009310Y006362D01*
X009377Y006201D01*
X009468Y006110D01*
X009184Y006110D01*
X009090Y006016D01*
X006939Y003865D01*
X006912Y003891D01*
X006388Y003891D01*
X006323Y003827D01*
X006323Y003810D01*
X006286Y003810D01*
X006209Y003887D01*
X006106Y003930D01*
X005994Y003930D01*
X005891Y003887D01*
X005813Y003809D01*
X005770Y003706D01*
X005770Y003594D01*
X005813Y003491D01*
X005891Y003413D01*
X005994Y003370D01*
X006106Y003370D01*
X006209Y003413D01*
X006286Y003490D01*
X006323Y003490D01*
X006323Y003342D01*
X006388Y003278D01*
X006912Y003278D01*
X006977Y003342D01*
X006977Y003450D01*
X007045Y003518D01*
X009316Y005790D01*
X009468Y005790D01*
X009377Y005699D01*
X009310Y005538D01*
X009310Y005362D01*
X009377Y005201D01*
X009501Y005077D01*
X009662Y005010D01*
X009838Y005010D01*
X009999Y005077D01*
X010123Y005201D01*
X010190Y005362D01*
X010190Y005538D01*
X010123Y005699D01*
X010032Y005790D01*
X010316Y005790D01*
X010573Y006047D01*
X010662Y006010D01*
X010838Y006010D01*
X010999Y006077D01*
X011123Y006201D01*
X011190Y006362D01*
X011190Y006538D01*
X011123Y006699D01*
X010999Y006823D01*
X011073Y006750D02*
X011800Y006750D01*
X011800Y006651D02*
X011143Y006651D01*
X011184Y006553D02*
X011800Y006553D01*
X011800Y006454D02*
X011190Y006454D01*
X011187Y006356D02*
X011800Y006356D01*
X011800Y006257D02*
X011146Y006257D01*
X011081Y006159D02*
X011800Y006159D01*
X011800Y006060D02*
X010958Y006060D01*
X010903Y005863D02*
X011800Y005863D01*
X011800Y005962D02*
X010488Y005962D01*
X010501Y005823D02*
X010662Y005890D01*
X010838Y005890D01*
X010999Y005823D01*
X011123Y005699D01*
X011190Y005538D01*
X011190Y005362D01*
X011123Y005201D01*
X010999Y005077D01*
X010838Y005010D01*
X010662Y005010D01*
X010501Y005077D01*
X010377Y005201D01*
X010310Y005362D01*
X010310Y005538D01*
X010377Y005699D01*
X010501Y005823D01*
X010442Y005765D02*
X010058Y005765D01*
X010137Y005666D02*
X010363Y005666D01*
X010322Y005568D02*
X010178Y005568D01*
X010190Y005469D02*
X010310Y005469D01*
X010310Y005371D02*
X010190Y005371D01*
X010153Y005272D02*
X010347Y005272D01*
X010404Y005174D02*
X010096Y005174D01*
X009994Y005075D02*
X010506Y005075D01*
X010566Y004895D02*
X010498Y004861D01*
X010437Y004816D01*
X010384Y004763D01*
X010339Y004702D01*
X010305Y004634D01*
X010282Y004562D01*
X010272Y004500D01*
X010700Y004500D01*
X010700Y004928D01*
X010638Y004918D01*
X010566Y004895D01*
X010533Y004878D02*
X009866Y004878D01*
X009838Y004890D02*
X009662Y004890D01*
X009501Y004823D01*
X009377Y004699D01*
X009310Y004538D01*
X009310Y004362D01*
X009377Y004201D01*
X009501Y004077D01*
X009662Y004010D01*
X009838Y004010D01*
X009999Y004077D01*
X010123Y004201D01*
X010190Y004362D01*
X010190Y004538D01*
X010123Y004699D01*
X009999Y004823D01*
X009838Y004890D01*
X010043Y004780D02*
X010401Y004780D01*
X010329Y004681D02*
X010131Y004681D01*
X010171Y004583D02*
X010288Y004583D01*
X010190Y004484D02*
X010700Y004484D01*
X010700Y004500D02*
X010700Y004400D01*
X010272Y004400D01*
X010282Y004338D01*
X010305Y004266D01*
X010339Y004198D01*
X010384Y004137D01*
X010437Y004084D01*
X010498Y004039D01*
X010566Y004005D01*
X010638Y003982D01*
X010700Y003972D01*
X010700Y004400D01*
X010800Y004400D01*
X010800Y004500D01*
X010700Y004500D01*
X010700Y004583D02*
X010800Y004583D01*
X010800Y004500D02*
X010800Y004928D01*
X010862Y004918D01*
X010934Y004895D01*
X011002Y004861D01*
X011063Y004816D01*
X011116Y004763D01*
X011161Y004702D01*
X011195Y004634D01*
X011218Y004562D01*
X011228Y004500D01*
X010800Y004500D01*
X010800Y004484D02*
X011800Y004484D01*
X011800Y004386D02*
X011226Y004386D01*
X011228Y004400D02*
X010800Y004400D01*
X010800Y003972D01*
X010862Y003982D01*
X010934Y004005D01*
X011002Y004039D01*
X011063Y004084D01*
X011116Y004137D01*
X011161Y004198D01*
X011195Y004266D01*
X011218Y004338D01*
X011228Y004400D01*
X011202Y004287D02*
X011800Y004287D01*
X011800Y004189D02*
X011153Y004189D01*
X011069Y004090D02*
X011800Y004090D01*
X011800Y003992D02*
X010892Y003992D01*
X010800Y003992D02*
X010700Y003992D01*
X010608Y003992D02*
X007518Y003992D01*
X007419Y003893D02*
X011800Y003893D01*
X011800Y003795D02*
X007321Y003795D01*
X007222Y003696D02*
X011800Y003696D01*
X011800Y003598D02*
X007124Y003598D01*
X007025Y003499D02*
X011800Y003499D01*
X011800Y003401D02*
X006977Y003401D01*
X006936Y003302D02*
X011800Y003302D01*
X011800Y003204D02*
X006931Y003204D01*
X006912Y003222D02*
X006977Y003158D01*
X006977Y003075D01*
X008357Y003075D01*
X008557Y002875D01*
X008557Y002875D01*
X008575Y002857D01*
X008678Y002900D01*
X008863Y002900D01*
X009033Y002829D01*
X009164Y002699D01*
X009235Y002528D01*
X009235Y002343D01*
X009164Y002173D01*
X009033Y002042D01*
X008863Y001971D01*
X008678Y001971D01*
X008507Y002042D01*
X008377Y002173D01*
X008306Y002343D01*
X008306Y002528D01*
X008349Y002631D01*
X008331Y002649D01*
X008331Y002649D01*
X008225Y002755D01*
X006977Y002755D01*
X006977Y002673D01*
X006912Y002609D01*
X006388Y002609D01*
X006323Y002673D01*
X006323Y002755D01*
X005782Y002755D01*
X005488Y002462D01*
X005580Y002500D01*
X005720Y002500D01*
X005848Y002447D01*
X005947Y002348D01*
X006000Y002220D01*
X006000Y002080D01*
X005947Y001952D01*
X005848Y001853D01*
X005720Y001800D01*
X005580Y001800D01*
X005452Y001853D01*
X005353Y001952D01*
X005300Y002080D01*
X005300Y002220D01*
X005338Y002312D01*
X005110Y002084D01*
X005110Y002084D01*
X005016Y001990D01*
X004963Y001990D01*
X004947Y001952D01*
X004848Y001853D01*
X004720Y001800D01*
X004580Y001800D01*
X004452Y001853D01*
X004353Y001952D01*
X004300Y002080D01*
X004300Y002220D01*
X004353Y002348D01*
X004452Y002447D01*
X004580Y002500D01*
X004720Y002500D01*
X004848Y002447D01*
X004934Y002361D01*
X005177Y002603D01*
X005033Y002603D01*
X005033Y002902D01*
X005033Y002998D01*
X005351Y002998D01*
X005351Y003167D01*
X005341Y003205D01*
X005321Y003239D01*
X005293Y003267D01*
X005259Y003287D01*
X005221Y003297D01*
X005033Y003297D01*
X005033Y002998D01*
X004936Y002998D01*
X004936Y003297D01*
X004748Y003297D01*
X004710Y003287D01*
X004687Y003273D01*
X004781Y003368D01*
X005577Y003368D01*
X005641Y003432D01*
X005641Y004468D01*
X005577Y004532D01*
X004698Y004532D01*
X004634Y004468D01*
X004634Y003673D01*
X004218Y003257D01*
X004053Y003257D01*
X003989Y003192D01*
X003989Y002715D01*
X003758Y002484D01*
X003720Y002500D01*
X003580Y002500D01*
X003452Y002447D01*
X003353Y002348D01*
X003300Y002220D01*
X003300Y002080D01*
X003353Y001952D01*
X003452Y001853D01*
X003580Y001800D01*
X003720Y001800D01*
X003848Y001853D01*
X003947Y001952D01*
X004000Y002080D01*
X004000Y002220D01*
X003984Y002258D01*
X004369Y002643D01*
X004577Y002643D01*
X004629Y002694D01*
X004648Y002661D01*
X004676Y002633D01*
X004710Y002613D01*
X004748Y002603D01*
X004936Y002603D01*
X004936Y002902D01*
X005033Y002902D01*
X005351Y002902D01*
X005351Y002777D01*
X005555Y002982D01*
X005555Y002982D01*
X005649Y003075D01*
X006323Y003075D01*
X006323Y003158D01*
X006388Y003222D01*
X006912Y003222D01*
X006977Y003105D02*
X011800Y003105D01*
X011800Y003007D02*
X008426Y003007D01*
X008525Y002908D02*
X011800Y002908D01*
X011800Y002810D02*
X011613Y002810D01*
X011593Y002829D02*
X011422Y002900D01*
X011237Y002900D01*
X011067Y002829D01*
X010936Y002699D01*
X010865Y002528D01*
X010865Y002343D01*
X010936Y002173D01*
X011067Y002042D01*
X011237Y001971D01*
X011422Y001971D01*
X011593Y002042D01*
X011723Y002173D01*
X011794Y002343D01*
X011794Y002528D01*
X011723Y002699D01*
X011593Y002829D01*
X011711Y002711D02*
X011800Y002711D01*
X011800Y002613D02*
X011759Y002613D01*
X011794Y002514D02*
X011800Y002514D01*
X011794Y002416D02*
X011800Y002416D01*
X011800Y002317D02*
X011783Y002317D01*
X011800Y002219D02*
X011742Y002219D01*
X011800Y002120D02*
X011670Y002120D01*
X011543Y002022D02*
X011800Y002022D01*
X011800Y001923D02*
X007918Y001923D01*
X007947Y001952D02*
X008000Y002080D01*
X008000Y002220D01*
X007947Y002348D01*
X007848Y002447D01*
X007720Y002500D01*
X007580Y002500D01*
X007452Y002447D01*
X007353Y002348D01*
X007300Y002220D01*
X007300Y002080D01*
X007353Y001952D01*
X007452Y001853D01*
X007580Y001800D01*
X007720Y001800D01*
X007848Y001853D01*
X007947Y001952D01*
X007976Y002022D02*
X008557Y002022D01*
X008430Y002120D02*
X008000Y002120D01*
X008000Y002219D02*
X008358Y002219D01*
X008317Y002317D02*
X007960Y002317D01*
X007879Y002416D02*
X008306Y002416D01*
X008306Y002514D02*
X005540Y002514D01*
X005639Y002613D02*
X006384Y002613D01*
X006323Y002711D02*
X005737Y002711D01*
X005715Y002915D02*
X004950Y002150D01*
X004650Y002150D01*
X004324Y002022D02*
X003976Y002022D01*
X003918Y001923D02*
X004382Y001923D01*
X004521Y001825D02*
X003779Y001825D01*
X003521Y001825D02*
X002779Y001825D01*
X002720Y001800D02*
X002580Y001800D01*
X002452Y001853D01*
X002353Y001952D01*
X002300Y002080D01*
X002300Y002220D01*
X002353Y002348D01*
X002452Y002447D01*
X002580Y002500D01*
X002720Y002500D01*
X002755Y002485D01*
X002755Y002643D01*
X002653Y002643D01*
X002589Y002708D01*
X002589Y003192D01*
X002653Y003257D01*
X002755Y003257D01*
X002755Y003369D01*
X003059Y003673D01*
X003059Y003963D01*
X003010Y003914D01*
X003010Y003884D01*
X002916Y003790D01*
X002532Y003406D01*
X002532Y002699D01*
X002468Y002634D01*
X001432Y002634D01*
X001368Y002699D01*
X001368Y002753D01*
X001357Y002753D01*
X001357Y002653D01*
X001315Y002611D01*
X001471Y002455D01*
X001580Y002500D01*
X001720Y002500D01*
X001848Y002447D01*
X001947Y002348D01*
X002000Y002220D01*
X002000Y002080D01*
X001947Y001952D01*
X001848Y001853D01*
X001720Y001800D01*
X001580Y001800D01*
X001452Y001853D01*
X001353Y001952D01*
X001300Y002080D01*
X001300Y002174D01*
X000984Y002490D01*
X000890Y002584D01*
X000890Y002589D01*
X000808Y002589D01*
X000743Y002653D01*
X000743Y003177D01*
X000794Y003229D01*
X000761Y003248D01*
X000733Y003276D01*
X000713Y003310D01*
X000703Y003348D01*
X000703Y003536D01*
X001002Y003536D01*
X001002Y003633D01*
X001002Y003951D01*
X000833Y003951D01*
X000795Y003941D01*
X000761Y003921D01*
X000733Y003893D01*
X000300Y003893D01*
X000300Y003992D02*
X001328Y003992D01*
X001305Y003941D02*
X001267Y003951D01*
X001098Y003951D01*
X001098Y003633D01*
X001002Y003633D01*
X000703Y003633D01*
X000703Y003821D01*
X000713Y003859D01*
X000733Y003893D01*
X000703Y003795D02*
X000300Y003795D01*
X000300Y003696D02*
X000703Y003696D01*
X000703Y003499D02*
X000300Y003499D01*
X000300Y003401D02*
X000703Y003401D01*
X000718Y003302D02*
X000300Y003302D01*
X000300Y003204D02*
X000769Y003204D01*
X000743Y003105D02*
X000300Y003105D01*
X000300Y003007D02*
X000743Y003007D01*
X000743Y002908D02*
X000300Y002908D01*
X000300Y002810D02*
X000743Y002810D01*
X000743Y002711D02*
X000300Y002711D01*
X000300Y002613D02*
X000784Y002613D01*
X000960Y002514D02*
X000300Y002514D01*
X000300Y002416D02*
X001058Y002416D01*
X001157Y002317D02*
X000300Y002317D01*
X000300Y002219D02*
X001255Y002219D01*
X001300Y002120D02*
X000300Y002120D01*
X000300Y002022D02*
X001324Y002022D01*
X001382Y001923D02*
X000300Y001923D01*
X000300Y001825D02*
X001521Y001825D01*
X001779Y001825D02*
X002521Y001825D01*
X002382Y001923D02*
X001918Y001923D01*
X001976Y002022D02*
X002324Y002022D01*
X002300Y002120D02*
X002000Y002120D01*
X002000Y002219D02*
X002300Y002219D01*
X002340Y002317D02*
X001960Y002317D01*
X001879Y002416D02*
X002421Y002416D01*
X002755Y002514D02*
X001412Y002514D01*
X001316Y002613D02*
X002755Y002613D01*
X002589Y002711D02*
X002532Y002711D01*
X002532Y002810D02*
X002589Y002810D01*
X002589Y002908D02*
X002532Y002908D01*
X002532Y003007D02*
X002589Y003007D01*
X002589Y003105D02*
X002532Y003105D01*
X002532Y003204D02*
X002600Y003204D01*
X002532Y003302D02*
X002755Y003302D01*
X002787Y003401D02*
X002532Y003401D01*
X002625Y003499D02*
X002885Y003499D01*
X002984Y003598D02*
X002724Y003598D01*
X002822Y003696D02*
X003059Y003696D01*
X003059Y003795D02*
X002921Y003795D01*
X003010Y003893D02*
X003059Y003893D01*
X002850Y003950D02*
X002850Y004150D01*
X002850Y003950D02*
X001959Y003059D01*
X001950Y003059D01*
X001794Y002909D01*
X001050Y002915D01*
X001050Y002650D01*
X001550Y002150D01*
X001650Y002150D01*
X001568Y001560D02*
X001418Y001498D01*
X001302Y001382D01*
X001240Y001232D01*
X001240Y001068D01*
X001302Y000918D01*
X001418Y000802D01*
X001568Y000740D01*
X001732Y000740D01*
X001882Y000802D01*
X001998Y000918D01*
X002060Y001068D01*
X002060Y001232D01*
X001998Y001382D01*
X001882Y001498D01*
X001732Y001560D01*
X001568Y001560D01*
X001494Y001529D02*
X000300Y001529D01*
X000300Y001431D02*
X001351Y001431D01*
X001282Y001332D02*
X000300Y001332D01*
X000300Y001234D02*
X001241Y001234D01*
X001240Y001135D02*
X000300Y001135D01*
X000300Y001037D02*
X001253Y001037D01*
X001294Y000938D02*
X000300Y000938D01*
X000300Y000840D02*
X001381Y000840D01*
X001566Y000741D02*
X000300Y000741D01*
X000300Y000643D02*
X008720Y000643D01*
X008820Y000643D02*
X011280Y000643D01*
X011280Y000741D02*
X011380Y000741D01*
X011380Y000840D02*
X011280Y000840D01*
X011280Y000938D02*
X011380Y000938D01*
X011380Y001037D02*
X011280Y001037D01*
X011280Y001135D02*
X011380Y001135D01*
X011513Y001135D02*
X011800Y001135D01*
X011800Y001037D02*
X011670Y001037D01*
X011754Y000938D02*
X011800Y000938D01*
X011800Y001234D02*
X008059Y001234D01*
X008060Y001232D02*
X007998Y001382D01*
X007882Y001498D01*
X007732Y001560D01*
X007568Y001560D01*
X007418Y001498D01*
X007302Y001382D01*
X007240Y001232D01*
X007240Y001068D01*
X007302Y000918D01*
X007418Y000802D01*
X007568Y000740D01*
X007732Y000740D01*
X007882Y000802D01*
X007998Y000918D01*
X008060Y001068D01*
X008060Y001232D01*
X008060Y001135D02*
X008587Y001135D01*
X008720Y001135D02*
X008820Y001135D01*
X008820Y001037D02*
X008720Y001037D01*
X008720Y000938D02*
X008820Y000938D01*
X008820Y000840D02*
X008720Y000840D01*
X008720Y000741D02*
X008820Y000741D01*
X009195Y000938D02*
X010905Y000938D01*
X010856Y000840D02*
X009244Y000840D01*
X009269Y000741D02*
X010831Y000741D01*
X010838Y000544D02*
X009262Y000544D01*
X009225Y000446D02*
X010875Y000446D01*
X010937Y000347D02*
X009163Y000347D01*
X008378Y000347D02*
X000300Y000347D01*
X000300Y000446D02*
X008316Y000446D01*
X008279Y000544D02*
X000300Y000544D01*
X001734Y000741D02*
X002566Y000741D01*
X002568Y000740D02*
X002732Y000740D01*
X002882Y000802D01*
X002998Y000918D01*
X003060Y001068D01*
X003060Y001232D01*
X002998Y001382D01*
X002882Y001498D01*
X002732Y001560D01*
X002568Y001560D01*
X002418Y001498D01*
X002302Y001382D01*
X002240Y001232D01*
X002240Y001068D01*
X002302Y000918D01*
X002418Y000802D01*
X002568Y000740D01*
X002734Y000741D02*
X003566Y000741D01*
X003568Y000740D02*
X003732Y000740D01*
X003882Y000802D01*
X003998Y000918D01*
X004060Y001068D01*
X004060Y001232D01*
X003998Y001382D01*
X003882Y001498D01*
X003732Y001560D01*
X003568Y001560D01*
X003418Y001498D01*
X003302Y001382D01*
X003240Y001232D01*
X003240Y001068D01*
X003302Y000918D01*
X003418Y000802D01*
X003568Y000740D01*
X003734Y000741D02*
X004566Y000741D01*
X004568Y000740D02*
X004732Y000740D01*
X004882Y000802D01*
X004998Y000918D01*
X005060Y001068D01*
X005060Y001232D01*
X004998Y001382D01*
X004882Y001498D01*
X004732Y001560D01*
X004568Y001560D01*
X004418Y001498D01*
X004302Y001382D01*
X004240Y001232D01*
X004240Y001068D01*
X004302Y000918D01*
X004418Y000802D01*
X004568Y000740D01*
X004381Y000840D02*
X003919Y000840D01*
X004006Y000938D02*
X004294Y000938D01*
X004253Y001037D02*
X004047Y001037D01*
X004060Y001135D02*
X004240Y001135D01*
X004241Y001234D02*
X004059Y001234D01*
X004018Y001332D02*
X004282Y001332D01*
X004351Y001431D02*
X003949Y001431D01*
X003806Y001529D02*
X004494Y001529D01*
X004806Y001529D02*
X005494Y001529D01*
X005568Y001560D02*
X005418Y001498D01*
X005302Y001382D01*
X005240Y001232D01*
X005240Y001068D01*
X005302Y000918D01*
X005418Y000802D01*
X005568Y000740D01*
X005732Y000740D01*
X005882Y000802D01*
X005998Y000918D01*
X006060Y001068D01*
X006060Y001232D01*
X005998Y001382D01*
X005882Y001498D01*
X005732Y001560D01*
X005568Y001560D01*
X005806Y001529D02*
X006494Y001529D01*
X006568Y001560D02*
X006418Y001498D01*
X006302Y001382D01*
X006240Y001232D01*
X006240Y001068D01*
X006302Y000918D01*
X006418Y000802D01*
X006568Y000740D01*
X006732Y000740D01*
X006882Y000802D01*
X006998Y000918D01*
X007060Y001068D01*
X007060Y001232D01*
X006998Y001382D01*
X006882Y001498D01*
X006732Y001560D01*
X006568Y001560D01*
X006806Y001529D02*
X007494Y001529D01*
X007351Y001431D02*
X006949Y001431D01*
X007018Y001332D02*
X007282Y001332D01*
X007241Y001234D02*
X007059Y001234D01*
X007060Y001135D02*
X007240Y001135D01*
X007253Y001037D02*
X007047Y001037D01*
X007006Y000938D02*
X007294Y000938D01*
X007381Y000840D02*
X006919Y000840D01*
X006734Y000741D02*
X007566Y000741D01*
X007734Y000741D02*
X008272Y000741D01*
X008297Y000840D02*
X007919Y000840D01*
X008006Y000938D02*
X008346Y000938D01*
X008430Y001037D02*
X008047Y001037D01*
X008018Y001332D02*
X011800Y001332D01*
X011800Y001431D02*
X007949Y001431D01*
X007806Y001529D02*
X011800Y001529D01*
X011800Y001628D02*
X000300Y001628D01*
X000300Y001726D02*
X011800Y001726D01*
X011800Y001825D02*
X007779Y001825D01*
X007521Y001825D02*
X006779Y001825D01*
X006720Y001800D02*
X006580Y001800D01*
X006452Y001853D01*
X006353Y001952D01*
X006300Y002080D01*
X006300Y002220D01*
X006353Y002348D01*
X006452Y002447D01*
X006580Y002500D01*
X006720Y002500D01*
X006848Y002447D01*
X006947Y002348D01*
X007000Y002220D01*
X007000Y002080D01*
X006947Y001952D01*
X006848Y001853D01*
X006720Y001800D01*
X006521Y001825D02*
X005779Y001825D01*
X005918Y001923D02*
X006382Y001923D01*
X006324Y002022D02*
X005976Y002022D01*
X006000Y002120D02*
X006300Y002120D01*
X006300Y002219D02*
X006000Y002219D01*
X005960Y002317D02*
X006340Y002317D01*
X006421Y002416D02*
X005879Y002416D01*
X005300Y002219D02*
X005245Y002219D01*
X005300Y002120D02*
X005146Y002120D01*
X005048Y002022D02*
X005324Y002022D01*
X005382Y001923D02*
X004918Y001923D01*
X004779Y001825D02*
X005521Y001825D01*
X005351Y001431D02*
X004949Y001431D01*
X005018Y001332D02*
X005282Y001332D01*
X005241Y001234D02*
X005059Y001234D01*
X005060Y001135D02*
X005240Y001135D01*
X005253Y001037D02*
X005047Y001037D01*
X005006Y000938D02*
X005294Y000938D01*
X005381Y000840D02*
X004919Y000840D01*
X004734Y000741D02*
X005566Y000741D01*
X005734Y000741D02*
X006566Y000741D01*
X006381Y000840D02*
X005919Y000840D01*
X006006Y000938D02*
X006294Y000938D01*
X006253Y001037D02*
X006047Y001037D01*
X006060Y001135D02*
X006240Y001135D01*
X006241Y001234D02*
X006059Y001234D01*
X006018Y001332D02*
X006282Y001332D01*
X006351Y001431D02*
X005949Y001431D01*
X006918Y001923D02*
X007382Y001923D01*
X007324Y002022D02*
X006976Y002022D01*
X007000Y002120D02*
X007300Y002120D01*
X007300Y002219D02*
X007000Y002219D01*
X006960Y002317D02*
X007340Y002317D01*
X007421Y002416D02*
X006879Y002416D01*
X006916Y002613D02*
X008341Y002613D01*
X008269Y002711D02*
X006977Y002711D01*
X006650Y002915D02*
X008291Y002915D01*
X008491Y002715D01*
X008603Y002603D01*
X008770Y002436D01*
X009200Y002613D02*
X010900Y002613D01*
X010865Y002514D02*
X009235Y002514D01*
X009235Y002416D02*
X010865Y002416D01*
X010876Y002317D02*
X009224Y002317D01*
X009183Y002219D02*
X010917Y002219D01*
X010989Y002120D02*
X009111Y002120D01*
X008984Y002022D02*
X011116Y002022D01*
X010948Y002711D02*
X009152Y002711D01*
X009053Y002810D02*
X011047Y002810D01*
X010800Y004090D02*
X010700Y004090D01*
X010700Y004189D02*
X010800Y004189D01*
X010800Y004287D02*
X010700Y004287D01*
X010700Y004386D02*
X010800Y004386D01*
X011212Y004583D02*
X011800Y004583D01*
X011800Y004681D02*
X011171Y004681D01*
X011099Y004780D02*
X011800Y004780D01*
X011800Y004878D02*
X010967Y004878D01*
X010800Y004878D02*
X010700Y004878D01*
X010700Y004780D02*
X010800Y004780D01*
X010800Y004681D02*
X010700Y004681D01*
X010274Y004386D02*
X010190Y004386D01*
X010159Y004287D02*
X010298Y004287D01*
X010347Y004189D02*
X010111Y004189D01*
X010012Y004090D02*
X010431Y004090D01*
X009488Y004090D02*
X007616Y004090D01*
X007715Y004189D02*
X009389Y004189D01*
X009341Y004287D02*
X007813Y004287D01*
X007912Y004386D02*
X009310Y004386D01*
X009310Y004484D02*
X008010Y004484D01*
X008109Y004583D02*
X009329Y004583D01*
X009369Y004681D02*
X008207Y004681D01*
X008306Y004780D02*
X009457Y004780D01*
X009634Y004878D02*
X008404Y004878D01*
X008503Y004977D02*
X011800Y004977D01*
X011800Y005075D02*
X010994Y005075D01*
X011096Y005174D02*
X011800Y005174D01*
X011800Y005272D02*
X011153Y005272D01*
X011190Y005371D02*
X011800Y005371D01*
X011800Y005469D02*
X011190Y005469D01*
X011178Y005568D02*
X011800Y005568D01*
X011800Y005666D02*
X011137Y005666D01*
X011058Y005765D02*
X011800Y005765D01*
X010597Y005863D02*
X010389Y005863D01*
X010250Y005950D02*
X010750Y006450D01*
X010357Y006651D02*
X010143Y006651D01*
X010073Y006750D02*
X010427Y006750D01*
X010561Y006848D02*
X009939Y006848D01*
X009561Y006848D02*
X000300Y006848D01*
X000300Y006750D02*
X009427Y006750D01*
X009357Y006651D02*
X000300Y006651D01*
X000300Y006553D02*
X001449Y006553D01*
X001477Y006567D02*
X001414Y006535D01*
X001357Y006493D01*
X001307Y006443D01*
X001265Y006386D01*
X001233Y006323D01*
X001211Y006255D01*
X001202Y006200D01*
X001600Y006200D01*
X001600Y006598D01*
X001545Y006589D01*
X001477Y006567D01*
X001600Y006553D02*
X001700Y006553D01*
X001700Y006598D02*
X001755Y006589D01*
X001823Y006567D01*
X001886Y006535D01*
X001943Y006493D01*
X001993Y006443D01*
X002035Y006386D01*
X002067Y006323D01*
X002089Y006255D01*
X002098Y006200D01*
X001700Y006200D01*
X001700Y006100D01*
X002098Y006100D01*
X002089Y006045D01*
X002067Y005977D01*
X002035Y005914D01*
X001993Y005857D01*
X001943Y005807D01*
X001886Y005765D01*
X001823Y005733D01*
X001755Y005711D01*
X001700Y005702D01*
X001700Y006100D01*
X001600Y006100D01*
X001600Y005702D01*
X001545Y005711D01*
X001477Y005733D01*
X001414Y005765D01*
X001357Y005807D01*
X001307Y005857D01*
X001265Y005914D01*
X001233Y005977D01*
X001211Y006045D01*
X001202Y006100D01*
X001600Y006100D01*
X001600Y006200D01*
X001700Y006200D01*
X001700Y006598D01*
X001851Y006553D02*
X002550Y006553D01*
X002568Y006560D02*
X002418Y006498D01*
X002302Y006382D01*
X002240Y006232D01*
X002240Y006068D01*
X002302Y005918D01*
X002418Y005802D01*
X002568Y005740D01*
X002732Y005740D01*
X002882Y005802D01*
X002998Y005918D01*
X003060Y006068D01*
X003060Y006232D01*
X002998Y006382D01*
X002882Y006498D01*
X002732Y006560D01*
X002568Y006560D01*
X002750Y006553D02*
X003550Y006553D01*
X003568Y006560D02*
X003418Y006498D01*
X003302Y006382D01*
X003240Y006232D01*
X003240Y006068D01*
X003302Y005918D01*
X003418Y005802D01*
X003568Y005740D01*
X003732Y005740D01*
X003882Y005802D01*
X003998Y005918D01*
X004060Y006068D01*
X004060Y006232D01*
X003998Y006382D01*
X003882Y006498D01*
X003732Y006560D01*
X003568Y006560D01*
X003750Y006553D02*
X004550Y006553D01*
X004568Y006560D02*
X004418Y006498D01*
X004302Y006382D01*
X004240Y006232D01*
X004240Y006068D01*
X004302Y005918D01*
X004418Y005802D01*
X004568Y005740D01*
X004732Y005740D01*
X004882Y005802D01*
X004998Y005918D01*
X005060Y006068D01*
X005060Y006232D01*
X004998Y006382D01*
X004882Y006498D01*
X004732Y006560D01*
X004568Y006560D01*
X004374Y006454D02*
X003926Y006454D01*
X004009Y006356D02*
X004291Y006356D01*
X004251Y006257D02*
X004049Y006257D01*
X004060Y006159D02*
X004240Y006159D01*
X004243Y006060D02*
X004057Y006060D01*
X004016Y005962D02*
X004284Y005962D01*
X004357Y005863D02*
X003943Y005863D01*
X003791Y005765D02*
X004509Y005765D01*
X004791Y005765D02*
X005509Y005765D01*
X005568Y005740D02*
X005732Y005740D01*
X005882Y005802D01*
X005998Y005918D01*
X006060Y006068D01*
X006060Y006232D01*
X005998Y006382D01*
X005882Y006498D01*
X005732Y006560D01*
X005568Y006560D01*
X005418Y006498D01*
X005302Y006382D01*
X005240Y006232D01*
X005240Y006068D01*
X005302Y005918D01*
X005418Y005802D01*
X005568Y005740D01*
X005791Y005765D02*
X006509Y005765D01*
X006568Y005740D02*
X006418Y005802D01*
X006302Y005918D01*
X006240Y006068D01*
X006240Y006232D01*
X006302Y006382D01*
X006418Y006498D01*
X006568Y006560D01*
X006732Y006560D01*
X006882Y006498D01*
X006998Y006382D01*
X007060Y006232D01*
X007060Y006068D01*
X006998Y005918D01*
X006882Y005802D01*
X006732Y005740D01*
X006568Y005740D01*
X006791Y005765D02*
X007509Y005765D01*
X007568Y005740D02*
X007418Y005802D01*
X007302Y005918D01*
X007240Y006068D01*
X007240Y006232D01*
X007302Y006382D01*
X007418Y006498D01*
X007568Y006560D01*
X007732Y006560D01*
X007882Y006498D01*
X007998Y006382D01*
X008060Y006232D01*
X008060Y006068D01*
X007998Y005918D01*
X007882Y005802D01*
X007732Y005740D01*
X007568Y005740D01*
X007791Y005765D02*
X008838Y005765D01*
X008740Y005666D02*
X000300Y005666D01*
X000300Y005568D02*
X008641Y005568D01*
X008543Y005469D02*
X007794Y005469D01*
X007848Y005447D02*
X007720Y005500D01*
X007580Y005500D01*
X007452Y005447D01*
X007353Y005348D01*
X007300Y005220D01*
X007300Y005080D01*
X007353Y004952D01*
X007452Y004853D01*
X007580Y004800D01*
X007720Y004800D01*
X007848Y004853D01*
X007947Y004952D01*
X008000Y005080D01*
X008000Y005220D01*
X007947Y005348D01*
X007848Y005447D01*
X007924Y005371D02*
X008444Y005371D01*
X008346Y005272D02*
X007978Y005272D01*
X008000Y005174D02*
X008247Y005174D01*
X008149Y005075D02*
X007998Y005075D01*
X007957Y004977D02*
X008050Y004977D01*
X007952Y004878D02*
X007873Y004878D01*
X007853Y004780D02*
X001775Y004780D01*
X001764Y004775D02*
X001835Y004804D01*
X001899Y004847D01*
X001953Y004901D01*
X001996Y004965D01*
X002025Y005036D01*
X002040Y005112D01*
X002040Y005120D01*
X001680Y005120D01*
X001680Y005180D01*
X001620Y005180D01*
X001620Y005540D01*
X001612Y005540D01*
X001536Y005525D01*
X001465Y005496D01*
X001401Y005453D01*
X001347Y005399D01*
X001304Y005335D01*
X001275Y005264D01*
X001260Y005188D01*
X001260Y005180D01*
X001620Y005180D01*
X001620Y005120D01*
X001260Y005120D01*
X001260Y005112D01*
X001275Y005036D01*
X001304Y004965D01*
X001347Y004901D01*
X001401Y004847D01*
X001465Y004804D01*
X001536Y004775D01*
X001612Y004760D01*
X001620Y004760D01*
X001620Y005120D01*
X001680Y005120D01*
X001680Y004760D01*
X001688Y004760D01*
X001764Y004775D01*
X001680Y004780D02*
X001620Y004780D01*
X001525Y004780D02*
X000300Y004780D01*
X000300Y004878D02*
X001370Y004878D01*
X001300Y004977D02*
X000300Y004977D01*
X000300Y005075D02*
X001267Y005075D01*
X001278Y005272D02*
X000300Y005272D01*
X000300Y005371D02*
X001328Y005371D01*
X001425Y005469D02*
X000300Y005469D01*
X000300Y005174D02*
X001620Y005174D01*
X001680Y005174D02*
X002300Y005174D01*
X002300Y005220D02*
X002300Y005080D01*
X002353Y004952D01*
X002452Y004853D01*
X002580Y004800D01*
X002720Y004800D01*
X002848Y004853D01*
X002947Y004952D01*
X003000Y005080D01*
X003000Y005220D01*
X002947Y005348D01*
X002848Y005447D01*
X002720Y005500D01*
X002580Y005500D01*
X002452Y005447D01*
X002353Y005348D01*
X002300Y005220D01*
X002322Y005272D02*
X002022Y005272D01*
X002025Y005264D02*
X001996Y005335D01*
X001953Y005399D01*
X001899Y005453D01*
X001835Y005496D01*
X001764Y005525D01*
X001688Y005540D01*
X001680Y005540D01*
X001680Y005180D01*
X002040Y005180D01*
X002040Y005188D01*
X002025Y005264D01*
X001972Y005371D02*
X002376Y005371D01*
X002506Y005469D02*
X001875Y005469D01*
X001680Y005469D02*
X001620Y005469D01*
X001620Y005371D02*
X001680Y005371D01*
X001680Y005272D02*
X001620Y005272D01*
X001620Y005075D02*
X001680Y005075D01*
X001680Y004977D02*
X001620Y004977D01*
X001620Y004878D02*
X001680Y004878D01*
X001930Y004878D02*
X002427Y004878D01*
X002343Y004977D02*
X002000Y004977D01*
X002033Y005075D02*
X002302Y005075D01*
X002442Y004706D02*
X002000Y004706D01*
X002000Y004291D01*
X001900Y004291D01*
X001900Y004706D01*
X001458Y004706D01*
X001420Y004695D01*
X001385Y004676D01*
X001358Y004648D01*
X001338Y004613D01*
X001328Y004575D01*
X001328Y004291D01*
X001900Y004291D01*
X001900Y004191D01*
X001328Y004191D01*
X001328Y003928D01*
X001305Y003941D01*
X001397Y003799D02*
X001420Y003786D01*
X001458Y003776D01*
X001900Y003776D01*
X001900Y004191D01*
X002000Y004191D01*
X002000Y004291D01*
X002572Y004291D01*
X002572Y004575D01*
X002562Y004613D01*
X002542Y004648D01*
X002515Y004676D01*
X002480Y004695D01*
X002442Y004706D01*
X002505Y004681D02*
X007755Y004681D01*
X007656Y004583D02*
X002570Y004583D01*
X002572Y004484D02*
X003075Y004484D01*
X003059Y004468D02*
X003059Y004337D01*
X003009Y004387D01*
X002906Y004430D01*
X002794Y004430D01*
X002691Y004387D01*
X002613Y004309D01*
X002570Y004206D01*
X002570Y004191D01*
X002000Y004191D01*
X002000Y003776D01*
X002442Y003776D01*
X002452Y003778D01*
X002158Y003484D01*
X001432Y003484D01*
X001397Y003449D01*
X001397Y003536D01*
X001098Y003536D01*
X001098Y003633D01*
X001397Y003633D01*
X001397Y003799D01*
X001397Y003795D02*
X001405Y003795D01*
X001397Y003696D02*
X002370Y003696D01*
X002271Y003598D02*
X001098Y003598D01*
X001002Y003598D02*
X000300Y003598D01*
X001002Y003696D02*
X001098Y003696D01*
X001098Y003795D02*
X001002Y003795D01*
X001002Y003893D02*
X001098Y003893D01*
X001328Y004090D02*
X000300Y004090D01*
X000300Y004189D02*
X001328Y004189D01*
X001328Y004386D02*
X000300Y004386D01*
X000300Y004484D02*
X001328Y004484D01*
X001330Y004583D02*
X000300Y004583D01*
X000300Y004681D02*
X001395Y004681D01*
X001900Y004681D02*
X002000Y004681D01*
X002000Y004583D02*
X001900Y004583D01*
X001900Y004484D02*
X002000Y004484D01*
X002000Y004386D02*
X001900Y004386D01*
X001900Y004287D02*
X000300Y004287D01*
X001397Y003499D02*
X002173Y003499D01*
X002000Y003795D02*
X001900Y003795D01*
X001900Y003893D02*
X002000Y003893D01*
X002000Y003992D02*
X001900Y003992D01*
X001900Y004090D02*
X002000Y004090D01*
X002000Y004189D02*
X001900Y004189D01*
X002000Y004287D02*
X002604Y004287D01*
X002572Y004386D02*
X002690Y004386D01*
X003010Y004386D02*
X003059Y004386D01*
X003059Y004468D02*
X003123Y004532D01*
X004002Y004532D01*
X004066Y004468D01*
X004066Y003432D01*
X004002Y003368D01*
X003206Y003368D01*
X003096Y003257D01*
X003177Y003257D01*
X003229Y003206D01*
X003248Y003239D01*
X003276Y003267D01*
X003310Y003287D01*
X003348Y003297D01*
X003536Y003297D01*
X003536Y002998D01*
X003633Y002998D01*
X003951Y002998D01*
X003951Y003167D01*
X003941Y003205D01*
X003921Y003239D01*
X003893Y003267D01*
X003859Y003287D01*
X003821Y003297D01*
X003633Y003297D01*
X003633Y002998D01*
X003633Y002902D01*
X003951Y002902D01*
X003951Y002733D01*
X003941Y002695D01*
X003921Y002661D01*
X003893Y002633D01*
X003859Y002613D01*
X003821Y002603D01*
X003633Y002603D01*
X003633Y002902D01*
X003536Y002902D01*
X003536Y002603D01*
X003348Y002603D01*
X003310Y002613D01*
X003276Y002633D01*
X003248Y002661D01*
X003229Y002694D01*
X003177Y002643D01*
X003075Y002643D01*
X003075Y002349D01*
X002984Y002258D01*
X003000Y002220D01*
X003000Y002080D01*
X002947Y001952D01*
X002848Y001853D01*
X002720Y001800D01*
X002918Y001923D02*
X003382Y001923D01*
X003324Y002022D02*
X002976Y002022D01*
X003000Y002120D02*
X003300Y002120D01*
X003300Y002219D02*
X003000Y002219D01*
X003043Y002317D02*
X003340Y002317D01*
X003421Y002416D02*
X003075Y002416D01*
X003075Y002514D02*
X003788Y002514D01*
X003856Y002613D02*
X003886Y002613D01*
X003945Y002711D02*
X003985Y002711D01*
X003989Y002810D02*
X003951Y002810D01*
X003989Y002908D02*
X003633Y002908D01*
X003633Y002810D02*
X003536Y002810D01*
X003536Y002711D02*
X003633Y002711D01*
X003633Y002613D02*
X003536Y002613D01*
X003313Y002613D02*
X003075Y002613D01*
X002915Y002415D02*
X002650Y002150D01*
X002915Y002415D02*
X002915Y002950D01*
X002915Y003303D01*
X003563Y003950D01*
X004066Y003992D02*
X004634Y003992D01*
X004634Y003893D02*
X004066Y003893D01*
X004066Y003795D02*
X004634Y003795D01*
X004634Y003696D02*
X004066Y003696D01*
X004066Y003598D02*
X004559Y003598D01*
X004460Y003499D02*
X004066Y003499D01*
X004035Y003401D02*
X004362Y003401D01*
X004263Y003302D02*
X003141Y003302D01*
X003536Y003204D02*
X003633Y003204D01*
X003633Y003105D02*
X003536Y003105D01*
X003536Y003007D02*
X003633Y003007D01*
X003951Y003007D02*
X003989Y003007D01*
X003989Y003105D02*
X003951Y003105D01*
X003941Y003204D02*
X004000Y003204D01*
X004315Y003128D02*
X004315Y002950D01*
X004315Y002815D01*
X003650Y002150D01*
X004000Y002120D02*
X004300Y002120D01*
X004300Y002219D02*
X004000Y002219D01*
X004043Y002317D02*
X004340Y002317D01*
X004421Y002416D02*
X004142Y002416D01*
X004240Y002514D02*
X005088Y002514D01*
X005033Y002613D02*
X004936Y002613D01*
X004936Y002711D02*
X005033Y002711D01*
X005033Y002810D02*
X004936Y002810D01*
X005033Y002908D02*
X005482Y002908D01*
X005383Y002810D02*
X005351Y002810D01*
X005351Y003007D02*
X005580Y003007D01*
X005715Y002915D02*
X006650Y002915D01*
X006323Y003105D02*
X005351Y003105D01*
X005341Y003204D02*
X006369Y003204D01*
X006364Y003302D02*
X004716Y003302D01*
X004936Y003204D02*
X005033Y003204D01*
X005033Y003105D02*
X004936Y003105D01*
X004936Y003007D02*
X005033Y003007D01*
X005610Y003401D02*
X005921Y003401D01*
X005809Y003499D02*
X005641Y003499D01*
X005641Y003598D02*
X005770Y003598D01*
X005770Y003696D02*
X005641Y003696D01*
X005641Y003795D02*
X005807Y003795D01*
X005905Y003893D02*
X005641Y003893D01*
X005641Y003992D02*
X007065Y003992D01*
X006967Y003893D02*
X006195Y003893D01*
X006050Y003650D02*
X006585Y003650D01*
X006650Y003585D01*
X006885Y003585D01*
X009250Y005950D01*
X010250Y005950D01*
X010232Y006159D02*
X010081Y006159D01*
X010146Y006257D02*
X010331Y006257D01*
X010313Y006356D02*
X010187Y006356D01*
X010190Y006454D02*
X010310Y006454D01*
X010316Y006553D02*
X010184Y006553D01*
X009419Y006159D02*
X008060Y006159D01*
X008049Y006257D02*
X009354Y006257D01*
X009313Y006356D02*
X008009Y006356D01*
X007926Y006454D02*
X009310Y006454D01*
X009316Y006553D02*
X007750Y006553D01*
X007550Y006553D02*
X006750Y006553D01*
X006550Y006553D02*
X005750Y006553D01*
X005926Y006454D02*
X006374Y006454D01*
X006291Y006356D02*
X006009Y006356D01*
X006049Y006257D02*
X006251Y006257D01*
X006240Y006159D02*
X006060Y006159D01*
X006057Y006060D02*
X006243Y006060D01*
X006284Y005962D02*
X006016Y005962D01*
X005943Y005863D02*
X006357Y005863D01*
X006580Y005500D02*
X006452Y005447D01*
X006353Y005348D01*
X006300Y005220D01*
X006300Y005080D01*
X006353Y004952D01*
X006452Y004853D01*
X006580Y004800D01*
X006720Y004800D01*
X006848Y004853D01*
X006947Y004952D01*
X007000Y005080D01*
X007000Y005220D01*
X006947Y005348D01*
X006848Y005447D01*
X006720Y005500D01*
X006580Y005500D01*
X006506Y005469D02*
X005794Y005469D01*
X005848Y005447D02*
X005720Y005500D01*
X005580Y005500D01*
X005452Y005447D01*
X005353Y005348D01*
X005300Y005220D01*
X005300Y005080D01*
X005353Y004952D01*
X005452Y004853D01*
X005580Y004800D01*
X005720Y004800D01*
X005848Y004853D01*
X005947Y004952D01*
X006000Y005080D01*
X006000Y005220D01*
X005947Y005348D01*
X005848Y005447D01*
X005924Y005371D02*
X006376Y005371D01*
X006322Y005272D02*
X005978Y005272D01*
X006000Y005174D02*
X006300Y005174D01*
X006302Y005075D02*
X005998Y005075D01*
X005957Y004977D02*
X006343Y004977D01*
X006427Y004878D02*
X005873Y004878D01*
X005427Y004878D02*
X004873Y004878D01*
X004848Y004853D02*
X004947Y004952D01*
X005000Y005080D01*
X005000Y005220D01*
X004947Y005348D01*
X004848Y005447D01*
X004720Y005500D01*
X004580Y005500D01*
X004452Y005447D01*
X004353Y005348D01*
X004300Y005220D01*
X004300Y005080D01*
X004353Y004952D01*
X004452Y004853D01*
X004580Y004800D01*
X004720Y004800D01*
X004848Y004853D01*
X004957Y004977D02*
X005343Y004977D01*
X005302Y005075D02*
X004998Y005075D01*
X005000Y005174D02*
X005300Y005174D01*
X005322Y005272D02*
X004978Y005272D01*
X004924Y005371D02*
X005376Y005371D01*
X005506Y005469D02*
X004794Y005469D01*
X004506Y005469D02*
X003794Y005469D01*
X003848Y005447D02*
X003720Y005500D01*
X003580Y005500D01*
X003452Y005447D01*
X003353Y005348D01*
X003300Y005220D01*
X003300Y005080D01*
X003353Y004952D01*
X003452Y004853D01*
X003580Y004800D01*
X003720Y004800D01*
X003848Y004853D01*
X003947Y004952D01*
X004000Y005080D01*
X004000Y005220D01*
X003947Y005348D01*
X003848Y005447D01*
X003924Y005371D02*
X004376Y005371D01*
X004322Y005272D02*
X003978Y005272D01*
X004000Y005174D02*
X004300Y005174D01*
X004302Y005075D02*
X003998Y005075D01*
X003957Y004977D02*
X004343Y004977D01*
X004427Y004878D02*
X003873Y004878D01*
X003427Y004878D02*
X002873Y004878D01*
X002957Y004977D02*
X003343Y004977D01*
X003302Y005075D02*
X002998Y005075D01*
X003000Y005174D02*
X003300Y005174D01*
X003322Y005272D02*
X002978Y005272D01*
X002924Y005371D02*
X003376Y005371D01*
X003506Y005469D02*
X002794Y005469D01*
X002791Y005765D02*
X003509Y005765D01*
X003357Y005863D02*
X002943Y005863D01*
X003016Y005962D02*
X003284Y005962D01*
X003243Y006060D02*
X003057Y006060D01*
X003060Y006159D02*
X003240Y006159D01*
X003251Y006257D02*
X003049Y006257D01*
X003009Y006356D02*
X003291Y006356D01*
X003374Y006454D02*
X002926Y006454D01*
X002374Y006454D02*
X001982Y006454D01*
X002050Y006356D02*
X002291Y006356D01*
X002251Y006257D02*
X002088Y006257D01*
X002240Y006159D02*
X001700Y006159D01*
X001700Y006257D02*
X001600Y006257D01*
X001600Y006159D02*
X000300Y006159D01*
X000300Y006257D02*
X001212Y006257D01*
X001250Y006356D02*
X000300Y006356D01*
X000300Y006454D02*
X001318Y006454D01*
X001600Y006454D02*
X001700Y006454D01*
X001700Y006356D02*
X001600Y006356D01*
X001600Y006060D02*
X001700Y006060D01*
X001700Y005962D02*
X001600Y005962D01*
X001600Y005863D02*
X001700Y005863D01*
X001700Y005765D02*
X001600Y005765D01*
X001415Y005765D02*
X000300Y005765D01*
X000300Y005863D02*
X001302Y005863D01*
X001241Y005962D02*
X000300Y005962D01*
X000300Y006060D02*
X001209Y006060D01*
X001885Y005765D02*
X002509Y005765D01*
X002357Y005863D02*
X001998Y005863D01*
X002059Y005962D02*
X002284Y005962D01*
X002243Y006060D02*
X002091Y006060D01*
X004050Y004484D02*
X004650Y004484D01*
X004634Y004386D02*
X004066Y004386D01*
X004066Y004287D02*
X004634Y004287D01*
X004634Y004189D02*
X004066Y004189D01*
X004066Y004090D02*
X004634Y004090D01*
X005137Y003950D02*
X004315Y003128D01*
X004339Y002613D02*
X004713Y002613D01*
X004879Y002416D02*
X004989Y002416D01*
X006179Y003401D02*
X006323Y003401D01*
X005641Y004090D02*
X007164Y004090D01*
X007262Y004189D02*
X005641Y004189D01*
X005641Y004287D02*
X007361Y004287D01*
X007459Y004386D02*
X005641Y004386D01*
X005625Y004484D02*
X007558Y004484D01*
X007427Y004878D02*
X006873Y004878D01*
X006957Y004977D02*
X007343Y004977D01*
X007302Y005075D02*
X006998Y005075D01*
X007000Y005174D02*
X007300Y005174D01*
X007322Y005272D02*
X006978Y005272D01*
X006924Y005371D02*
X007376Y005371D01*
X007506Y005469D02*
X006794Y005469D01*
X006943Y005863D02*
X007357Y005863D01*
X007284Y005962D02*
X007016Y005962D01*
X007057Y006060D02*
X007243Y006060D01*
X007240Y006159D02*
X007060Y006159D01*
X007049Y006257D02*
X007251Y006257D01*
X007291Y006356D02*
X007009Y006356D01*
X006926Y006454D02*
X007374Y006454D01*
X008057Y006060D02*
X009134Y006060D01*
X009035Y005962D02*
X008016Y005962D01*
X007943Y005863D02*
X008937Y005863D01*
X009192Y005666D02*
X009363Y005666D01*
X009322Y005568D02*
X009094Y005568D01*
X008995Y005469D02*
X009310Y005469D01*
X009310Y005371D02*
X008897Y005371D01*
X008798Y005272D02*
X009347Y005272D01*
X009404Y005174D02*
X008700Y005174D01*
X008601Y005075D02*
X009506Y005075D01*
X009442Y005765D02*
X009291Y005765D01*
X005550Y006553D02*
X004750Y006553D01*
X004926Y006454D02*
X005374Y006454D01*
X005291Y006356D02*
X005009Y006356D01*
X005049Y006257D02*
X005251Y006257D01*
X005240Y006159D02*
X005060Y006159D01*
X005057Y006060D02*
X005243Y006060D01*
X005284Y005962D02*
X005016Y005962D01*
X004943Y005863D02*
X005357Y005863D01*
X001368Y002711D02*
X001357Y002711D01*
X001806Y001529D02*
X002494Y001529D01*
X002351Y001431D02*
X001949Y001431D01*
X002018Y001332D02*
X002282Y001332D01*
X002241Y001234D02*
X002059Y001234D01*
X002060Y001135D02*
X002240Y001135D01*
X002253Y001037D02*
X002047Y001037D01*
X002006Y000938D02*
X002294Y000938D01*
X002381Y000840D02*
X001919Y000840D01*
X002919Y000840D02*
X003381Y000840D01*
X003294Y000938D02*
X003006Y000938D01*
X003047Y001037D02*
X003253Y001037D01*
X003240Y001135D02*
X003060Y001135D01*
X003059Y001234D02*
X003241Y001234D01*
X003282Y001332D02*
X003018Y001332D01*
X002949Y001431D02*
X003351Y001431D01*
X003494Y001529D02*
X002806Y001529D01*
X008953Y001135D02*
X011147Y001135D01*
X010989Y001037D02*
X009111Y001037D01*
D19*
X006050Y003650D03*
X002850Y004150D03*
M02*
