%
M48
M72
T01C0.0200
T02C0.0320
T03C0.0400
T04C0.0472
%
T01
X6050Y3650
X2850Y4150
T02
X2650Y5150
X1650Y5150
X3650Y5150
X4650Y5150
X5650Y5150
X6650Y5150
X7650Y5150
X7650Y2150
X6650Y2150
X5650Y2150
X4650Y2150
X3650Y2150
X2650Y2150
X1650Y2150
T03
X1650Y1150
X2650Y1150
X3650Y1150
X4650Y1150
X5650Y1150
X6650Y1150
X7650Y1150
X9750Y4450
X10750Y4450
X10750Y5450
X9750Y5450
X9750Y6450
X10750Y6450
X7650Y6150
X6650Y6150
X5650Y6150
X4650Y6150
X3650Y6150
X2650Y6150
X1650Y6150
T04
X8770Y2436
X11330Y2436
X11330Y664
X8770Y664
M30
