G75*
G70*
%OFA0B0*%
%FSLAX24Y24*%
%IPPOS*%
%LPD*%
%AMOC8*
5,1,8,0,0,1.08239X$1,22.5*
%
%ADD10C,0.0660*%
%ADD11C,0.0560*%
%ADD12C,0.0600*%
%ADD13C,0.0709*%
%ADD14C,0.0100*%
%ADD15C,0.0270*%
D10*
X008850Y003850D03*
X009850Y003850D03*
X009850Y004850D03*
X008850Y004850D03*
X008850Y005850D03*
X009850Y005850D03*
D11*
X006850Y004850D03*
X005850Y004850D03*
X004850Y004850D03*
X003850Y004850D03*
X002850Y004850D03*
X001850Y004850D03*
X000850Y004850D03*
X000850Y001850D03*
X001850Y001850D03*
X002850Y001850D03*
X003850Y001850D03*
X004850Y001850D03*
X005850Y001850D03*
X006850Y001850D03*
D12*
X006850Y000850D03*
X005850Y000850D03*
X004850Y000850D03*
X003850Y000850D03*
X002850Y000850D03*
X001850Y000850D03*
X000850Y000850D03*
X000850Y005850D03*
X001850Y005850D03*
X002850Y005850D03*
X003850Y005850D03*
X004850Y005850D03*
X005850Y005850D03*
X006850Y005850D03*
D13*
X007972Y001050D03*
X010728Y001050D03*
D14*
X010935Y000347D02*
X000665Y000347D01*
X000712Y000300D02*
X000300Y000712D01*
X000300Y005988D01*
X000712Y006400D01*
X010888Y006400D01*
X011300Y005988D01*
X011300Y000712D01*
X010888Y000300D01*
X000712Y000300D01*
X000768Y000440D02*
X000932Y000440D01*
X001082Y000502D01*
X001198Y000618D01*
X001260Y000768D01*
X001260Y000932D01*
X001198Y001082D01*
X001082Y001198D01*
X001010Y001228D01*
X001010Y001494D01*
X001071Y001519D01*
X001181Y001629D01*
X001240Y001772D01*
X001240Y001928D01*
X001181Y002071D01*
X001071Y002181D01*
X000928Y002240D01*
X000772Y002240D01*
X000629Y002181D01*
X000519Y002071D01*
X000460Y001928D01*
X000460Y001772D01*
X000519Y001629D01*
X000629Y001519D01*
X000690Y001494D01*
X000690Y001228D01*
X000618Y001198D01*
X000502Y001082D01*
X000440Y000932D01*
X000440Y000768D01*
X000502Y000618D01*
X000618Y000502D01*
X000768Y000440D01*
X000755Y000446D02*
X000567Y000446D01*
X000576Y000544D02*
X000468Y000544D01*
X000492Y000643D02*
X000370Y000643D01*
X000300Y000741D02*
X000451Y000741D01*
X000440Y000840D02*
X000300Y000840D01*
X000300Y000938D02*
X000443Y000938D01*
X000483Y001037D02*
X000300Y001037D01*
X000300Y001135D02*
X000555Y001135D01*
X000690Y001234D02*
X000300Y001234D01*
X000300Y001332D02*
X000690Y001332D01*
X000690Y001431D02*
X000300Y001431D01*
X000300Y001529D02*
X000619Y001529D01*
X000521Y001628D02*
X000300Y001628D01*
X000300Y001726D02*
X000479Y001726D01*
X000460Y001825D02*
X000300Y001825D01*
X000300Y001923D02*
X000460Y001923D01*
X000499Y002022D02*
X000300Y002022D01*
X000300Y002120D02*
X000568Y002120D01*
X000721Y002219D02*
X000300Y002219D01*
X000300Y002317D02*
X003991Y002317D01*
X003914Y002240D02*
X003772Y002240D01*
X003629Y002181D01*
X003519Y002071D01*
X003460Y001928D01*
X003460Y001772D01*
X003519Y001629D01*
X003629Y001519D01*
X003690Y001494D01*
X003690Y001228D01*
X003618Y001198D01*
X003502Y001082D01*
X003440Y000932D01*
X003440Y000768D01*
X003502Y000618D01*
X003618Y000502D01*
X003768Y000440D01*
X003932Y000440D01*
X004082Y000502D01*
X004198Y000618D01*
X004260Y000768D01*
X004260Y000932D01*
X004198Y001082D01*
X004082Y001198D01*
X004010Y001228D01*
X004010Y001494D01*
X004071Y001519D01*
X004181Y001629D01*
X004240Y001772D01*
X004240Y001928D01*
X004185Y002059D01*
X004616Y002490D01*
X005564Y002490D01*
X005611Y002442D01*
X005701Y002405D01*
X005799Y002405D01*
X005889Y002442D01*
X005958Y002511D01*
X005995Y002601D01*
X005995Y002699D01*
X005958Y002789D01*
X005889Y002858D01*
X005799Y002895D01*
X005701Y002895D01*
X005611Y002858D01*
X005564Y002810D01*
X004484Y002810D01*
X004390Y002716D01*
X003914Y002240D01*
X003721Y002219D02*
X002979Y002219D01*
X002928Y002240D02*
X002772Y002240D01*
X002629Y002181D01*
X002519Y002071D01*
X002460Y001928D01*
X002460Y001772D01*
X002519Y001629D01*
X002629Y001519D01*
X002690Y001494D01*
X002690Y001228D01*
X002618Y001198D01*
X002502Y001082D01*
X002440Y000932D01*
X002440Y000768D01*
X002502Y000618D01*
X002618Y000502D01*
X002768Y000440D01*
X002932Y000440D01*
X003082Y000502D01*
X003198Y000618D01*
X003260Y000768D01*
X003260Y000932D01*
X003198Y001082D01*
X003082Y001198D01*
X003010Y001228D01*
X003010Y001494D01*
X003071Y001519D01*
X003181Y001629D01*
X003240Y001772D01*
X003240Y001928D01*
X003181Y002071D01*
X003071Y002181D01*
X002928Y002240D01*
X002721Y002219D02*
X001979Y002219D01*
X001928Y002240D02*
X002071Y002181D01*
X002181Y002071D01*
X002240Y001928D01*
X002240Y001772D01*
X002181Y001629D01*
X002071Y001519D01*
X002010Y001494D01*
X002010Y001228D01*
X002082Y001198D01*
X002198Y001082D01*
X002260Y000932D01*
X002260Y000768D01*
X002198Y000618D01*
X002082Y000502D01*
X001932Y000440D01*
X001768Y000440D01*
X001618Y000502D01*
X001502Y000618D01*
X001440Y000768D01*
X001440Y000932D01*
X001502Y001082D01*
X001618Y001198D01*
X001690Y001228D01*
X001690Y001494D01*
X001629Y001519D01*
X001519Y001629D01*
X001460Y001772D01*
X001460Y001928D01*
X001519Y002071D01*
X001629Y002181D01*
X001772Y002240D01*
X001928Y002240D01*
X001721Y002219D02*
X000979Y002219D01*
X001132Y002120D02*
X001568Y002120D01*
X001499Y002022D02*
X001201Y002022D01*
X001240Y001923D02*
X001460Y001923D01*
X001460Y001825D02*
X001240Y001825D01*
X001221Y001726D02*
X001479Y001726D01*
X001521Y001628D02*
X001179Y001628D01*
X001081Y001529D02*
X001619Y001529D01*
X001690Y001431D02*
X001010Y001431D01*
X001010Y001332D02*
X001690Y001332D01*
X001690Y001234D02*
X001010Y001234D01*
X001145Y001135D02*
X001555Y001135D01*
X001483Y001037D02*
X001217Y001037D01*
X001257Y000938D02*
X001443Y000938D01*
X001440Y000840D02*
X001260Y000840D01*
X001249Y000741D02*
X001451Y000741D01*
X001492Y000643D02*
X001208Y000643D01*
X001124Y000544D02*
X001576Y000544D01*
X001755Y000446D02*
X000945Y000446D01*
X000850Y000850D02*
X000850Y001850D01*
X001850Y001850D02*
X001850Y000850D01*
X002145Y001135D02*
X002555Y001135D01*
X002483Y001037D02*
X002217Y001037D01*
X002257Y000938D02*
X002443Y000938D01*
X002440Y000840D02*
X002260Y000840D01*
X002249Y000741D02*
X002451Y000741D01*
X002492Y000643D02*
X002208Y000643D01*
X002124Y000544D02*
X002576Y000544D01*
X002755Y000446D02*
X001945Y000446D01*
X002850Y000850D02*
X002850Y001850D01*
X002499Y002022D02*
X002201Y002022D01*
X002132Y002120D02*
X002568Y002120D01*
X002460Y001923D02*
X002240Y001923D01*
X002240Y001825D02*
X002460Y001825D01*
X002479Y001726D02*
X002221Y001726D01*
X002179Y001628D02*
X002521Y001628D01*
X002619Y001529D02*
X002081Y001529D01*
X002010Y001431D02*
X002690Y001431D01*
X002690Y001332D02*
X002010Y001332D01*
X002010Y001234D02*
X002690Y001234D01*
X003010Y001234D02*
X003690Y001234D01*
X003690Y001332D02*
X003010Y001332D01*
X003010Y001431D02*
X003690Y001431D01*
X003619Y001529D02*
X003081Y001529D01*
X003179Y001628D02*
X003521Y001628D01*
X003479Y001726D02*
X003221Y001726D01*
X003240Y001825D02*
X003460Y001825D01*
X003460Y001923D02*
X003240Y001923D01*
X003201Y002022D02*
X003499Y002022D01*
X003568Y002120D02*
X003132Y002120D01*
X003850Y001950D02*
X003850Y001850D01*
X003850Y000850D01*
X004260Y000840D02*
X004440Y000840D01*
X004440Y000768D02*
X004502Y000618D01*
X004618Y000502D01*
X004768Y000440D01*
X004932Y000440D01*
X005082Y000502D01*
X005198Y000618D01*
X005260Y000768D01*
X005260Y000932D01*
X005198Y001082D01*
X005082Y001198D01*
X005010Y001228D01*
X005010Y001494D01*
X005071Y001519D01*
X005181Y001629D01*
X005240Y001772D01*
X005240Y001928D01*
X005181Y002071D01*
X005071Y002181D01*
X004928Y002240D01*
X004772Y002240D01*
X004629Y002181D01*
X004519Y002071D01*
X004460Y001928D01*
X004460Y001772D01*
X004519Y001629D01*
X004629Y001519D01*
X004690Y001494D01*
X004690Y001228D01*
X004618Y001198D01*
X004502Y001082D01*
X004440Y000932D01*
X004440Y000768D01*
X004451Y000741D02*
X004249Y000741D01*
X004208Y000643D02*
X004492Y000643D01*
X004576Y000544D02*
X004124Y000544D01*
X003945Y000446D02*
X004755Y000446D01*
X004945Y000446D02*
X005755Y000446D01*
X005768Y000440D02*
X005932Y000440D01*
X006082Y000502D01*
X006198Y000618D01*
X006260Y000768D01*
X006260Y000932D01*
X006198Y001082D01*
X006082Y001198D01*
X006010Y001228D01*
X006010Y001494D01*
X006071Y001519D01*
X006181Y001629D01*
X006240Y001772D01*
X006240Y001928D01*
X006181Y002071D01*
X006071Y002181D01*
X005928Y002240D01*
X005772Y002240D01*
X005629Y002181D01*
X005519Y002071D01*
X005460Y001928D01*
X005460Y001772D01*
X005519Y001629D01*
X005629Y001519D01*
X005690Y001494D01*
X005690Y001228D01*
X005618Y001198D01*
X005502Y001082D01*
X005440Y000932D01*
X005440Y000768D01*
X005502Y000618D01*
X005618Y000502D01*
X005768Y000440D01*
X005945Y000446D02*
X006755Y000446D01*
X006768Y000440D02*
X006932Y000440D01*
X007082Y000502D01*
X007198Y000618D01*
X007260Y000768D01*
X007260Y000932D01*
X007198Y001082D01*
X007082Y001198D01*
X007010Y001228D01*
X007010Y001494D01*
X007071Y001519D01*
X007181Y001629D01*
X007206Y001690D01*
X008816Y001690D01*
X009510Y002384D01*
X009510Y003511D01*
X009537Y003484D01*
X009598Y003439D01*
X009666Y003405D01*
X009738Y003382D01*
X009800Y003372D01*
X009800Y003800D01*
X009900Y003800D01*
X009900Y003900D01*
X009800Y003900D01*
X009800Y004328D01*
X009738Y004318D01*
X009666Y004295D01*
X009598Y004261D01*
X009537Y004216D01*
X009510Y004189D01*
X009510Y004284D01*
X009673Y004447D01*
X009762Y004410D01*
X009938Y004410D01*
X010099Y004477D01*
X010223Y004601D01*
X010290Y004762D01*
X010290Y004938D01*
X010223Y005099D01*
X010099Y005223D01*
X009938Y005290D01*
X009762Y005290D01*
X009601Y005223D01*
X009477Y005099D01*
X009410Y004938D01*
X009410Y004762D01*
X009447Y004673D01*
X009190Y004416D01*
X009190Y004132D01*
X009099Y004223D01*
X008938Y004290D01*
X008762Y004290D01*
X008601Y004223D01*
X008477Y004099D01*
X008410Y003938D01*
X008410Y003762D01*
X008477Y003601D01*
X008601Y003477D01*
X008762Y003410D01*
X008938Y003410D01*
X009099Y003477D01*
X009190Y003568D01*
X009190Y002516D01*
X008684Y002010D01*
X007206Y002010D01*
X007181Y002071D01*
X007071Y002181D01*
X006928Y002240D01*
X006772Y002240D01*
X006629Y002181D01*
X006519Y002071D01*
X006460Y001928D01*
X006460Y001772D01*
X006519Y001629D01*
X006629Y001519D01*
X006690Y001494D01*
X006690Y001228D01*
X006618Y001198D01*
X006502Y001082D01*
X006440Y000932D01*
X006440Y000768D01*
X006502Y000618D01*
X006618Y000502D01*
X006768Y000440D01*
X006945Y000446D02*
X011033Y000446D01*
X011132Y000544D02*
X007124Y000544D01*
X007208Y000643D02*
X007742Y000643D01*
X007709Y000656D02*
X007880Y000586D01*
X008064Y000586D01*
X008235Y000656D01*
X008366Y000787D01*
X008436Y000958D01*
X008436Y001142D01*
X008366Y001313D01*
X008235Y001444D01*
X008064Y001514D01*
X007880Y001514D01*
X007709Y001444D01*
X007578Y001313D01*
X007508Y001142D01*
X007508Y000958D01*
X007578Y000787D01*
X007709Y000656D01*
X007624Y000741D02*
X007249Y000741D01*
X007260Y000840D02*
X007557Y000840D01*
X007516Y000938D02*
X007257Y000938D01*
X007217Y001037D02*
X007508Y001037D01*
X007508Y001135D02*
X007145Y001135D01*
X007010Y001234D02*
X007545Y001234D01*
X007597Y001332D02*
X007010Y001332D01*
X007010Y001431D02*
X007696Y001431D01*
X008248Y001431D02*
X010395Y001431D01*
X010399Y001435D02*
X010343Y001379D01*
X010297Y001314D01*
X010261Y001244D01*
X010236Y001168D01*
X010225Y001100D01*
X010678Y001100D01*
X010678Y001553D01*
X010610Y001542D01*
X010534Y001517D01*
X010464Y001481D01*
X010399Y001435D01*
X010309Y001332D02*
X008347Y001332D01*
X008399Y001234D02*
X010257Y001234D01*
X010231Y001135D02*
X008436Y001135D01*
X008436Y001037D02*
X010678Y001037D01*
X010678Y001000D02*
X010225Y001000D01*
X010236Y000932D01*
X010261Y000856D01*
X010297Y000786D01*
X010343Y000721D01*
X010399Y000665D01*
X010464Y000619D01*
X010534Y000583D01*
X010610Y000558D01*
X010678Y000547D01*
X010678Y001000D01*
X010778Y001000D01*
X010778Y001100D01*
X011231Y001100D01*
X011220Y001168D01*
X011195Y001244D01*
X011159Y001314D01*
X011113Y001379D01*
X011057Y001435D01*
X010992Y001481D01*
X010922Y001517D01*
X010846Y001542D01*
X010778Y001553D01*
X010778Y001100D01*
X010678Y001100D01*
X010678Y001000D01*
X010678Y000938D02*
X010778Y000938D01*
X010778Y001000D02*
X010778Y000547D01*
X010846Y000558D01*
X010922Y000583D01*
X010992Y000619D01*
X011057Y000665D01*
X011113Y000721D01*
X011159Y000786D01*
X011195Y000856D01*
X011220Y000932D01*
X011231Y001000D01*
X010778Y001000D01*
X010778Y001037D02*
X011300Y001037D01*
X011300Y001135D02*
X011225Y001135D01*
X011199Y001234D02*
X011300Y001234D01*
X011300Y001332D02*
X011146Y001332D01*
X011061Y001431D02*
X011300Y001431D01*
X011300Y001529D02*
X010886Y001529D01*
X010778Y001529D02*
X010678Y001529D01*
X010678Y001431D02*
X010778Y001431D01*
X010570Y001529D02*
X007081Y001529D01*
X007179Y001628D02*
X011300Y001628D01*
X011300Y001726D02*
X008852Y001726D01*
X008951Y001825D02*
X011300Y001825D01*
X011300Y001923D02*
X009049Y001923D01*
X009148Y002022D02*
X011300Y002022D01*
X011300Y002120D02*
X009246Y002120D01*
X009345Y002219D02*
X011300Y002219D01*
X011300Y002317D02*
X009443Y002317D01*
X009510Y002416D02*
X011300Y002416D01*
X011300Y002514D02*
X009510Y002514D01*
X009510Y002613D02*
X011300Y002613D01*
X011300Y002711D02*
X009510Y002711D01*
X009510Y002810D02*
X011300Y002810D01*
X011300Y002908D02*
X009510Y002908D01*
X009510Y003007D02*
X011300Y003007D01*
X011300Y003105D02*
X009510Y003105D01*
X009510Y003204D02*
X011300Y003204D01*
X011300Y003302D02*
X009510Y003302D01*
X009510Y003401D02*
X009680Y003401D01*
X009800Y003401D02*
X009900Y003401D01*
X009900Y003372D02*
X009962Y003382D01*
X010034Y003405D01*
X010102Y003439D01*
X010163Y003484D01*
X010216Y003537D01*
X010261Y003598D01*
X010295Y003666D01*
X010318Y003738D01*
X010328Y003800D01*
X009900Y003800D01*
X009900Y003372D01*
X010020Y003401D02*
X011300Y003401D01*
X011300Y003499D02*
X010178Y003499D01*
X010260Y003598D02*
X011300Y003598D01*
X011300Y003696D02*
X010305Y003696D01*
X010327Y003795D02*
X011300Y003795D01*
X011300Y003893D02*
X009900Y003893D01*
X009900Y003900D02*
X010328Y003900D01*
X010318Y003962D01*
X010295Y004034D01*
X010261Y004102D01*
X010216Y004163D01*
X010163Y004216D01*
X010102Y004261D01*
X010034Y004295D01*
X009962Y004318D01*
X009900Y004328D01*
X009900Y003900D01*
X009900Y003992D02*
X009800Y003992D01*
X009800Y003900D02*
X009510Y003900D01*
X009510Y003800D01*
X009800Y003800D01*
X009800Y003900D01*
X009800Y003893D02*
X009510Y003893D01*
X009800Y003795D02*
X009900Y003795D01*
X009900Y003696D02*
X009800Y003696D01*
X009800Y003598D02*
X009900Y003598D01*
X009900Y003499D02*
X009800Y003499D01*
X009522Y003499D02*
X009510Y003499D01*
X009190Y003499D02*
X009121Y003499D01*
X009190Y003401D02*
X000300Y003401D01*
X000300Y003302D02*
X009190Y003302D01*
X009190Y003204D02*
X000300Y003204D01*
X000300Y003105D02*
X009190Y003105D01*
X009190Y003007D02*
X000300Y003007D01*
X000300Y002908D02*
X009190Y002908D01*
X009190Y002810D02*
X005937Y002810D01*
X005990Y002711D02*
X009190Y002711D01*
X009190Y002613D02*
X005995Y002613D01*
X005959Y002514D02*
X009188Y002514D01*
X009089Y002416D02*
X005824Y002416D01*
X005676Y002416D02*
X004542Y002416D01*
X004443Y002317D02*
X008991Y002317D01*
X008892Y002219D02*
X006979Y002219D01*
X007132Y002120D02*
X008794Y002120D01*
X008695Y002022D02*
X007201Y002022D01*
X006850Y001850D02*
X008750Y001850D01*
X009350Y002450D01*
X009350Y004350D01*
X009850Y004850D01*
X009444Y004681D02*
X009256Y004681D01*
X009223Y004601D02*
X009290Y004762D01*
X009290Y004938D01*
X009223Y005099D01*
X009099Y005223D01*
X008938Y005290D01*
X008762Y005290D01*
X008601Y005223D01*
X008477Y005099D01*
X008440Y005010D01*
X007584Y005010D01*
X007490Y004916D01*
X007184Y004610D01*
X007162Y004610D01*
X007181Y004629D01*
X007240Y004772D01*
X007240Y004928D01*
X007181Y005071D01*
X007071Y005181D01*
X007010Y005206D01*
X007010Y005472D01*
X007082Y005502D01*
X007198Y005618D01*
X007228Y005690D01*
X008440Y005690D01*
X008477Y005601D01*
X008601Y005477D01*
X008762Y005410D01*
X008938Y005410D01*
X009099Y005477D01*
X009223Y005601D01*
X009290Y005762D01*
X009290Y005938D01*
X009223Y006099D01*
X009099Y006223D01*
X008938Y006290D01*
X008762Y006290D01*
X008601Y006223D01*
X008477Y006099D01*
X008440Y006010D01*
X007228Y006010D01*
X007198Y006082D01*
X007082Y006198D01*
X006932Y006260D01*
X006768Y006260D01*
X006618Y006198D01*
X006502Y006082D01*
X006440Y005932D01*
X006440Y005768D01*
X006502Y005618D01*
X006618Y005502D01*
X006690Y005472D01*
X006690Y005206D01*
X006629Y005181D01*
X006519Y005071D01*
X006460Y004928D01*
X006460Y004772D01*
X006519Y004629D01*
X006538Y004610D01*
X006216Y004610D01*
X006185Y004641D01*
X006240Y004772D01*
X006240Y004928D01*
X006181Y005071D01*
X006071Y005181D01*
X006010Y005206D01*
X006010Y005472D01*
X006082Y005502D01*
X006198Y005618D01*
X006260Y005768D01*
X006260Y005932D01*
X006198Y006082D01*
X006082Y006198D01*
X005932Y006260D01*
X005768Y006260D01*
X005618Y006198D01*
X005502Y006082D01*
X005440Y005932D01*
X005440Y005768D01*
X005502Y005618D01*
X005618Y005502D01*
X005690Y005472D01*
X005690Y005206D01*
X005629Y005181D01*
X005519Y005071D01*
X005460Y004928D01*
X005460Y004772D01*
X005519Y004629D01*
X005629Y004519D01*
X005772Y004460D01*
X005914Y004460D01*
X005990Y004384D01*
X006084Y004290D01*
X007316Y004290D01*
X007716Y004690D01*
X008440Y004690D01*
X008477Y004601D01*
X008601Y004477D01*
X008762Y004410D01*
X008938Y004410D01*
X009099Y004477D01*
X009223Y004601D01*
X009205Y004583D02*
X009356Y004583D01*
X009258Y004484D02*
X009106Y004484D01*
X009190Y004386D02*
X007412Y004386D01*
X007510Y004484D02*
X008594Y004484D01*
X008495Y004583D02*
X007609Y004583D01*
X007707Y004681D02*
X008444Y004681D01*
X008850Y004850D02*
X007650Y004850D01*
X007250Y004450D01*
X006150Y004450D01*
X005850Y004750D01*
X005850Y004850D01*
X005850Y005850D01*
X006260Y005863D02*
X006440Y005863D01*
X006442Y005765D02*
X006258Y005765D01*
X006218Y005666D02*
X006482Y005666D01*
X006553Y005568D02*
X006147Y005568D01*
X006010Y005469D02*
X006690Y005469D01*
X006690Y005371D02*
X006010Y005371D01*
X006010Y005272D02*
X006690Y005272D01*
X006622Y005174D02*
X006078Y005174D01*
X006177Y005075D02*
X006523Y005075D01*
X006480Y004977D02*
X006220Y004977D01*
X006240Y004878D02*
X006460Y004878D01*
X006460Y004780D02*
X006240Y004780D01*
X006202Y004681D02*
X006498Y004681D01*
X006850Y004850D02*
X006850Y005850D01*
X008850Y005850D01*
X009250Y005666D02*
X009450Y005666D01*
X009477Y005601D02*
X009601Y005477D01*
X009762Y005410D01*
X009938Y005410D01*
X010099Y005477D01*
X010223Y005601D01*
X010290Y005762D01*
X010290Y005938D01*
X010223Y006099D01*
X010099Y006223D01*
X009938Y006290D01*
X009762Y006290D01*
X009601Y006223D01*
X009477Y006099D01*
X009410Y005938D01*
X009410Y005762D01*
X009477Y005601D01*
X009510Y005568D02*
X009190Y005568D01*
X009080Y005469D02*
X009620Y005469D01*
X009719Y005272D02*
X008981Y005272D01*
X009149Y005174D02*
X009551Y005174D01*
X009467Y005075D02*
X009233Y005075D01*
X009274Y004977D02*
X009426Y004977D01*
X009410Y004878D02*
X009290Y004878D01*
X009290Y004780D02*
X009410Y004780D01*
X009612Y004386D02*
X011300Y004386D01*
X011300Y004484D02*
X010106Y004484D01*
X010205Y004583D02*
X011300Y004583D01*
X011300Y004681D02*
X010256Y004681D01*
X010290Y004780D02*
X011300Y004780D01*
X011300Y004878D02*
X010290Y004878D01*
X010274Y004977D02*
X011300Y004977D01*
X011300Y005075D02*
X010233Y005075D01*
X010149Y005174D02*
X011300Y005174D01*
X011300Y005272D02*
X009981Y005272D01*
X010080Y005469D02*
X011300Y005469D01*
X011300Y005371D02*
X007010Y005371D01*
X007010Y005469D02*
X008620Y005469D01*
X008510Y005568D02*
X007147Y005568D01*
X007218Y005666D02*
X008450Y005666D01*
X008461Y006060D02*
X007207Y006060D01*
X007121Y006159D02*
X008536Y006159D01*
X008683Y006257D02*
X006939Y006257D01*
X006761Y006257D02*
X005939Y006257D01*
X005761Y006257D02*
X004939Y006257D01*
X004932Y006260D02*
X004768Y006260D01*
X004618Y006198D01*
X004502Y006082D01*
X004440Y005932D01*
X004440Y005768D01*
X004502Y005618D01*
X004618Y005502D01*
X004690Y005472D01*
X004690Y005206D01*
X004629Y005181D01*
X004519Y005071D01*
X004460Y004928D01*
X004460Y004772D01*
X004519Y004629D01*
X004629Y004519D01*
X004772Y004460D01*
X004928Y004460D01*
X005071Y004519D01*
X005181Y004629D01*
X005240Y004772D01*
X005240Y004928D01*
X005181Y005071D01*
X005071Y005181D01*
X005010Y005206D01*
X005010Y005472D01*
X005082Y005502D01*
X005198Y005618D01*
X005260Y005768D01*
X005260Y005932D01*
X005198Y006082D01*
X005082Y006198D01*
X004932Y006260D01*
X004761Y006257D02*
X003939Y006257D01*
X003932Y006260D02*
X003768Y006260D01*
X003618Y006198D01*
X003502Y006082D01*
X003440Y005932D01*
X003440Y005768D01*
X003502Y005618D01*
X003618Y005502D01*
X003690Y005472D01*
X003690Y005206D01*
X003629Y005181D01*
X003519Y005071D01*
X003460Y004928D01*
X003460Y004772D01*
X003519Y004629D01*
X003629Y004519D01*
X003772Y004460D01*
X003928Y004460D01*
X004071Y004519D01*
X004181Y004629D01*
X004240Y004772D01*
X004240Y004928D01*
X004181Y005071D01*
X004071Y005181D01*
X004010Y005206D01*
X004010Y005472D01*
X004082Y005502D01*
X004198Y005618D01*
X004260Y005768D01*
X004260Y005932D01*
X004198Y006082D01*
X004082Y006198D01*
X003932Y006260D01*
X003761Y006257D02*
X002939Y006257D01*
X002932Y006260D02*
X002768Y006260D01*
X002618Y006198D01*
X002502Y006082D01*
X002440Y005932D01*
X002440Y005768D01*
X002502Y005618D01*
X002618Y005502D01*
X002690Y005472D01*
X002690Y005206D01*
X002629Y005181D01*
X002519Y005071D01*
X002460Y004928D01*
X002460Y004772D01*
X002519Y004629D01*
X002629Y004519D01*
X002772Y004460D01*
X002928Y004460D01*
X003071Y004519D01*
X003181Y004629D01*
X003240Y004772D01*
X003240Y004928D01*
X003181Y005071D01*
X003071Y005181D01*
X003010Y005206D01*
X003010Y005472D01*
X003082Y005502D01*
X003198Y005618D01*
X003260Y005768D01*
X003260Y005932D01*
X003198Y006082D01*
X003082Y006198D01*
X002932Y006260D01*
X002761Y006257D02*
X001939Y006257D01*
X001932Y006260D02*
X001768Y006260D01*
X001618Y006198D01*
X001502Y006082D01*
X001440Y005932D01*
X001440Y005768D01*
X001502Y005618D01*
X001618Y005502D01*
X001690Y005472D01*
X001690Y005206D01*
X001629Y005181D01*
X001519Y005071D01*
X001460Y004928D01*
X001460Y004772D01*
X001519Y004629D01*
X001629Y004519D01*
X001772Y004460D01*
X001928Y004460D01*
X002071Y004519D01*
X002181Y004629D01*
X002240Y004772D01*
X002240Y004928D01*
X002181Y005071D01*
X002071Y005181D01*
X002010Y005206D01*
X002010Y005472D01*
X002082Y005502D01*
X002198Y005618D01*
X002260Y005768D01*
X002260Y005932D01*
X002198Y006082D01*
X002082Y006198D01*
X001932Y006260D01*
X001761Y006257D02*
X001042Y006257D01*
X001023Y006267D02*
X000955Y006289D01*
X000900Y006298D01*
X000900Y005900D01*
X001298Y005900D01*
X001289Y005955D01*
X001267Y006023D01*
X001235Y006086D01*
X001193Y006143D01*
X001143Y006193D01*
X001086Y006235D01*
X001023Y006267D01*
X000900Y006257D02*
X000800Y006257D01*
X000800Y006298D02*
X000745Y006289D01*
X000677Y006267D01*
X000614Y006235D01*
X000557Y006193D01*
X000507Y006143D01*
X000465Y006086D01*
X000433Y006023D01*
X000411Y005955D01*
X000402Y005900D01*
X000800Y005900D01*
X000800Y006298D01*
X000668Y006356D02*
X010932Y006356D01*
X011031Y006257D02*
X010017Y006257D01*
X010164Y006159D02*
X011129Y006159D01*
X011228Y006060D02*
X010239Y006060D01*
X010280Y005962D02*
X011300Y005962D01*
X011300Y005863D02*
X010290Y005863D01*
X010290Y005765D02*
X011300Y005765D01*
X011300Y005666D02*
X010250Y005666D01*
X010190Y005568D02*
X011300Y005568D01*
X009683Y006257D02*
X009017Y006257D01*
X009164Y006159D02*
X009536Y006159D01*
X009461Y006060D02*
X009239Y006060D01*
X009280Y005962D02*
X009420Y005962D01*
X009410Y005863D02*
X009290Y005863D01*
X009290Y005765D02*
X009410Y005765D01*
X008719Y005272D02*
X007010Y005272D01*
X007078Y005174D02*
X008551Y005174D01*
X008467Y005075D02*
X007177Y005075D01*
X007220Y004977D02*
X007550Y004977D01*
X007452Y004878D02*
X007240Y004878D01*
X007240Y004780D02*
X007353Y004780D01*
X007255Y004681D02*
X007202Y004681D01*
X008432Y003992D02*
X000300Y003992D01*
X000300Y003893D02*
X008410Y003893D01*
X008410Y003795D02*
X000300Y003795D01*
X000300Y003696D02*
X008438Y003696D01*
X008480Y003598D02*
X000300Y003598D01*
X000300Y003499D02*
X008579Y003499D01*
X008473Y004090D02*
X000300Y004090D01*
X000300Y004189D02*
X008566Y004189D01*
X008755Y004287D02*
X000300Y004287D01*
X000300Y004386D02*
X005988Y004386D01*
X005714Y004484D02*
X004986Y004484D01*
X005134Y004583D02*
X005566Y004583D01*
X005498Y004681D02*
X005202Y004681D01*
X005240Y004780D02*
X005460Y004780D01*
X005460Y004878D02*
X005240Y004878D01*
X005220Y004977D02*
X005480Y004977D01*
X005523Y005075D02*
X005177Y005075D01*
X005078Y005174D02*
X005622Y005174D01*
X005690Y005272D02*
X005010Y005272D01*
X005010Y005371D02*
X005690Y005371D01*
X005690Y005469D02*
X005010Y005469D01*
X005147Y005568D02*
X005553Y005568D01*
X005482Y005666D02*
X005218Y005666D01*
X005258Y005765D02*
X005442Y005765D01*
X005440Y005863D02*
X005260Y005863D01*
X005248Y005962D02*
X005452Y005962D01*
X005493Y006060D02*
X005207Y006060D01*
X005121Y006159D02*
X005579Y006159D01*
X006121Y006159D02*
X006579Y006159D01*
X006493Y006060D02*
X006207Y006060D01*
X006248Y005962D02*
X006452Y005962D01*
X004850Y005850D02*
X004850Y004850D01*
X004498Y004681D02*
X004202Y004681D01*
X004134Y004583D02*
X004566Y004583D01*
X004714Y004484D02*
X003986Y004484D01*
X003714Y004484D02*
X002986Y004484D01*
X003134Y004583D02*
X003566Y004583D01*
X003498Y004681D02*
X003202Y004681D01*
X003240Y004780D02*
X003460Y004780D01*
X003460Y004878D02*
X003240Y004878D01*
X003220Y004977D02*
X003480Y004977D01*
X003523Y005075D02*
X003177Y005075D01*
X003078Y005174D02*
X003622Y005174D01*
X003690Y005272D02*
X003010Y005272D01*
X003010Y005371D02*
X003690Y005371D01*
X003690Y005469D02*
X003010Y005469D01*
X003147Y005568D02*
X003553Y005568D01*
X003482Y005666D02*
X003218Y005666D01*
X003258Y005765D02*
X003442Y005765D01*
X003440Y005863D02*
X003260Y005863D01*
X003248Y005962D02*
X003452Y005962D01*
X003493Y006060D02*
X003207Y006060D01*
X003121Y006159D02*
X003579Y006159D01*
X003850Y005850D02*
X003850Y004850D01*
X004220Y004977D02*
X004480Y004977D01*
X004523Y005075D02*
X004177Y005075D01*
X004078Y005174D02*
X004622Y005174D01*
X004690Y005272D02*
X004010Y005272D01*
X004010Y005371D02*
X004690Y005371D01*
X004690Y005469D02*
X004010Y005469D01*
X004147Y005568D02*
X004553Y005568D01*
X004482Y005666D02*
X004218Y005666D01*
X004258Y005765D02*
X004442Y005765D01*
X004440Y005863D02*
X004260Y005863D01*
X004248Y005962D02*
X004452Y005962D01*
X004493Y006060D02*
X004207Y006060D01*
X004121Y006159D02*
X004579Y006159D01*
X002850Y005850D02*
X002850Y004850D01*
X002498Y004681D02*
X002202Y004681D01*
X002134Y004583D02*
X002566Y004583D01*
X002714Y004484D02*
X001986Y004484D01*
X001714Y004484D02*
X001078Y004484D01*
X001075Y004482D02*
X001130Y004522D01*
X001178Y004570D01*
X001218Y004625D01*
X001248Y004685D01*
X001269Y004749D01*
X001280Y004816D01*
X001280Y004820D01*
X000880Y004820D01*
X000880Y004880D01*
X000820Y004880D01*
X000820Y005280D01*
X000816Y005280D01*
X000749Y005269D01*
X000685Y005248D01*
X000625Y005218D01*
X000570Y005178D01*
X000522Y005130D01*
X000482Y005075D01*
X000300Y005075D01*
X000300Y004977D02*
X000439Y004977D01*
X000431Y004951D02*
X000452Y005015D01*
X000482Y005075D01*
X000565Y005174D02*
X000300Y005174D01*
X000300Y005272D02*
X000766Y005272D01*
X000820Y005272D02*
X000880Y005272D01*
X000880Y005280D02*
X000880Y004880D01*
X001280Y004880D01*
X001280Y004884D01*
X001269Y004951D01*
X001248Y005015D01*
X001218Y005075D01*
X001523Y005075D01*
X001480Y004977D02*
X001261Y004977D01*
X001218Y005075D02*
X001178Y005130D01*
X001130Y005178D01*
X001075Y005218D01*
X001015Y005248D01*
X000951Y005269D01*
X000884Y005280D01*
X000880Y005280D01*
X000934Y005272D02*
X001690Y005272D01*
X001622Y005174D02*
X001135Y005174D01*
X000880Y005174D02*
X000820Y005174D01*
X000820Y005075D02*
X000880Y005075D01*
X000880Y004977D02*
X000820Y004977D01*
X000820Y004880D02*
X000820Y004820D01*
X000420Y004820D01*
X000420Y004816D01*
X000431Y004749D01*
X000452Y004685D01*
X000482Y004625D01*
X000522Y004570D01*
X000570Y004522D01*
X000625Y004482D01*
X000685Y004452D01*
X000749Y004431D01*
X000816Y004420D01*
X000820Y004420D01*
X000820Y004820D01*
X000880Y004820D01*
X000880Y004420D01*
X000884Y004420D01*
X000951Y004431D01*
X001015Y004452D01*
X001075Y004482D01*
X001187Y004583D02*
X001566Y004583D01*
X001498Y004681D02*
X001246Y004681D01*
X001274Y004780D02*
X001460Y004780D01*
X001460Y004878D02*
X000880Y004878D01*
X000820Y004878D02*
X000300Y004878D01*
X000300Y004780D02*
X000426Y004780D01*
X000420Y004880D02*
X000820Y004880D01*
X000820Y004780D02*
X000880Y004780D01*
X000880Y004681D02*
X000820Y004681D01*
X000820Y004583D02*
X000880Y004583D01*
X000880Y004484D02*
X000820Y004484D01*
X000622Y004484D02*
X000300Y004484D01*
X000300Y004583D02*
X000513Y004583D01*
X000454Y004681D02*
X000300Y004681D01*
X000420Y004880D02*
X000420Y004884D01*
X000431Y004951D01*
X000300Y005371D02*
X001690Y005371D01*
X001690Y005469D02*
X001091Y005469D01*
X001086Y005465D02*
X001143Y005507D01*
X001193Y005557D01*
X001235Y005614D01*
X001267Y005677D01*
X001289Y005745D01*
X001298Y005800D01*
X000900Y005800D01*
X000900Y005900D01*
X000800Y005900D01*
X000800Y005800D01*
X000900Y005800D01*
X000900Y005402D01*
X000955Y005411D01*
X001023Y005433D01*
X001086Y005465D01*
X001201Y005568D02*
X001553Y005568D01*
X001482Y005666D02*
X001261Y005666D01*
X001292Y005765D02*
X001442Y005765D01*
X001440Y005863D02*
X000900Y005863D01*
X000900Y005765D02*
X000800Y005765D01*
X000800Y005800D02*
X000800Y005402D01*
X000745Y005411D01*
X000677Y005433D01*
X000614Y005465D01*
X000557Y005507D01*
X000507Y005557D01*
X000465Y005614D01*
X000433Y005677D01*
X000411Y005745D01*
X000402Y005800D01*
X000800Y005800D01*
X000800Y005863D02*
X000300Y005863D01*
X000300Y005765D02*
X000408Y005765D01*
X000439Y005666D02*
X000300Y005666D01*
X000300Y005568D02*
X000499Y005568D01*
X000609Y005469D02*
X000300Y005469D01*
X000800Y005469D02*
X000900Y005469D01*
X000900Y005568D02*
X000800Y005568D01*
X000800Y005666D02*
X000900Y005666D01*
X000900Y005962D02*
X000800Y005962D01*
X000800Y006060D02*
X000900Y006060D01*
X000900Y006159D02*
X000800Y006159D01*
X000658Y006257D02*
X000569Y006257D01*
X000522Y006159D02*
X000471Y006159D01*
X000452Y006060D02*
X000372Y006060D01*
X000413Y005962D02*
X000300Y005962D01*
X001178Y006159D02*
X001579Y006159D01*
X001493Y006060D02*
X001248Y006060D01*
X001287Y005962D02*
X001452Y005962D01*
X001850Y005850D02*
X001850Y004850D01*
X002177Y005075D02*
X002523Y005075D01*
X002480Y004977D02*
X002220Y004977D01*
X002240Y004878D02*
X002460Y004878D01*
X002460Y004780D02*
X002240Y004780D01*
X002078Y005174D02*
X002622Y005174D01*
X002690Y005272D02*
X002010Y005272D01*
X002010Y005371D02*
X002690Y005371D01*
X002690Y005469D02*
X002010Y005469D01*
X002147Y005568D02*
X002553Y005568D01*
X002482Y005666D02*
X002218Y005666D01*
X002258Y005765D02*
X002442Y005765D01*
X002440Y005863D02*
X002260Y005863D01*
X002248Y005962D02*
X002452Y005962D01*
X002493Y006060D02*
X002207Y006060D01*
X002121Y006159D02*
X002579Y006159D01*
X004240Y004878D02*
X004460Y004878D01*
X004460Y004780D02*
X004240Y004780D01*
X004483Y002810D02*
X000300Y002810D01*
X000300Y002711D02*
X004385Y002711D01*
X004286Y002613D02*
X000300Y002613D01*
X000300Y002514D02*
X004188Y002514D01*
X004089Y002416D02*
X000300Y002416D01*
X003145Y001135D02*
X003555Y001135D01*
X003483Y001037D02*
X003217Y001037D01*
X003257Y000938D02*
X003443Y000938D01*
X003440Y000840D02*
X003260Y000840D01*
X003249Y000741D02*
X003451Y000741D01*
X003492Y000643D02*
X003208Y000643D01*
X003124Y000544D02*
X003576Y000544D01*
X003755Y000446D02*
X002945Y000446D01*
X004145Y001135D02*
X004555Y001135D01*
X004483Y001037D02*
X004217Y001037D01*
X004257Y000938D02*
X004443Y000938D01*
X004850Y000850D02*
X004850Y001850D01*
X004499Y002022D02*
X004201Y002022D01*
X004246Y002120D02*
X004568Y002120D01*
X004721Y002219D02*
X004345Y002219D01*
X004550Y002650D02*
X003850Y001950D01*
X004240Y001923D02*
X004460Y001923D01*
X004460Y001825D02*
X004240Y001825D01*
X004221Y001726D02*
X004479Y001726D01*
X004521Y001628D02*
X004179Y001628D01*
X004081Y001529D02*
X004619Y001529D01*
X004690Y001431D02*
X004010Y001431D01*
X004010Y001332D02*
X004690Y001332D01*
X004690Y001234D02*
X004010Y001234D01*
X005010Y001234D02*
X005690Y001234D01*
X005690Y001332D02*
X005010Y001332D01*
X005010Y001431D02*
X005690Y001431D01*
X005619Y001529D02*
X005081Y001529D01*
X005179Y001628D02*
X005521Y001628D01*
X005479Y001726D02*
X005221Y001726D01*
X005240Y001825D02*
X005460Y001825D01*
X005460Y001923D02*
X005240Y001923D01*
X005201Y002022D02*
X005499Y002022D01*
X005568Y002120D02*
X005132Y002120D01*
X004979Y002219D02*
X005721Y002219D01*
X005979Y002219D02*
X006721Y002219D01*
X006568Y002120D02*
X006132Y002120D01*
X006201Y002022D02*
X006499Y002022D01*
X006460Y001923D02*
X006240Y001923D01*
X006240Y001825D02*
X006460Y001825D01*
X006479Y001726D02*
X006221Y001726D01*
X006179Y001628D02*
X006521Y001628D01*
X006619Y001529D02*
X006081Y001529D01*
X006010Y001431D02*
X006690Y001431D01*
X006690Y001332D02*
X006010Y001332D01*
X006010Y001234D02*
X006690Y001234D01*
X006555Y001135D02*
X006145Y001135D01*
X006217Y001037D02*
X006483Y001037D01*
X006443Y000938D02*
X006257Y000938D01*
X006260Y000840D02*
X006440Y000840D01*
X006451Y000741D02*
X006249Y000741D01*
X006208Y000643D02*
X006492Y000643D01*
X006576Y000544D02*
X006124Y000544D01*
X005850Y000850D02*
X005850Y001850D01*
X006850Y001850D02*
X006850Y000850D01*
X005576Y000544D02*
X005124Y000544D01*
X005208Y000643D02*
X005492Y000643D01*
X005451Y000741D02*
X005249Y000741D01*
X005260Y000840D02*
X005440Y000840D01*
X005443Y000938D02*
X005257Y000938D01*
X005217Y001037D02*
X005483Y001037D01*
X005555Y001135D02*
X005145Y001135D01*
X004550Y002650D02*
X005750Y002650D01*
X008428Y000938D02*
X010235Y000938D01*
X010269Y000840D02*
X008387Y000840D01*
X008320Y000741D02*
X010329Y000741D01*
X010431Y000643D02*
X008202Y000643D01*
X010678Y000643D02*
X010778Y000643D01*
X010778Y000741D02*
X010678Y000741D01*
X010678Y000840D02*
X010778Y000840D01*
X011025Y000643D02*
X011230Y000643D01*
X011300Y000741D02*
X011127Y000741D01*
X011187Y000840D02*
X011300Y000840D01*
X011300Y000938D02*
X011221Y000938D01*
X010778Y001135D02*
X010678Y001135D01*
X010678Y001234D02*
X010778Y001234D01*
X010778Y001332D02*
X010678Y001332D01*
X010309Y003992D02*
X011300Y003992D01*
X011300Y004090D02*
X010266Y004090D01*
X010190Y004189D02*
X011300Y004189D01*
X011300Y004287D02*
X010050Y004287D01*
X009900Y004287D02*
X009800Y004287D01*
X009800Y004189D02*
X009900Y004189D01*
X009900Y004090D02*
X009800Y004090D01*
X009650Y004287D02*
X009513Y004287D01*
X009190Y004287D02*
X008945Y004287D01*
X009134Y004189D02*
X009190Y004189D01*
D15*
X005750Y002650D03*
M02*
