G75*
G70*
%OFA0B0*%
%FSLAX24Y24*%
%IPPOS*%
%LPD*%
%AMOC8*
5,1,8,0,0,1.08239X$1,22.5*
%
%ADD10C,0.0660*%
%ADD11C,0.0560*%
%ADD12C,0.0600*%
%ADD13C,0.0709*%
%ADD14C,0.0100*%
%ADD15C,0.0270*%
D10*
X008850Y003850D03*
X009850Y003850D03*
X009850Y004850D03*
X008850Y004850D03*
X008850Y005850D03*
X009850Y005850D03*
D11*
X006850Y004850D03*
X005850Y004850D03*
X004850Y004850D03*
X003850Y004850D03*
X002850Y004850D03*
X001850Y004850D03*
X000850Y004850D03*
X000850Y001850D03*
X001850Y001850D03*
X002850Y001850D03*
X003850Y001850D03*
X004850Y001850D03*
X005850Y001850D03*
X006850Y001850D03*
D12*
X006850Y000850D03*
X005850Y000850D03*
X004850Y000850D03*
X003850Y000850D03*
X002850Y000850D03*
X001850Y000850D03*
X000850Y000850D03*
X000850Y005850D03*
X001850Y005850D03*
X002850Y005850D03*
X003850Y005850D03*
X004850Y005850D03*
X005850Y005850D03*
X006850Y005850D03*
D13*
X007972Y001050D03*
X010728Y001050D03*
D14*
X010935Y000347D02*
X000665Y000347D01*
X000712Y000300D02*
X000300Y000712D01*
X000300Y005988D01*
X000712Y006400D01*
X010888Y006400D01*
X011300Y005988D01*
X011300Y000712D01*
X010888Y000300D01*
X000712Y000300D01*
X000760Y000400D02*
X000940Y000400D01*
X001105Y000469D01*
X001231Y000595D01*
X001300Y000760D01*
X001300Y000940D01*
X001231Y001105D01*
X001105Y001231D01*
X001050Y001254D01*
X001050Y001467D01*
X001094Y001485D01*
X001215Y001606D01*
X001280Y001764D01*
X001280Y001936D01*
X001215Y002094D01*
X001094Y002215D01*
X000936Y002280D01*
X000764Y002280D01*
X000606Y002215D01*
X000485Y002094D01*
X000420Y001936D01*
X000420Y001764D01*
X000485Y001606D01*
X000606Y001485D01*
X000650Y001467D01*
X000650Y001254D01*
X000595Y001231D01*
X000469Y001105D01*
X000400Y000940D01*
X000400Y000760D01*
X000469Y000595D01*
X000595Y000469D01*
X000760Y000400D01*
X000651Y000446D02*
X000567Y000446D01*
X000520Y000544D02*
X000468Y000544D01*
X000449Y000643D02*
X000370Y000643D01*
X000408Y000741D02*
X000300Y000741D01*
X000300Y000840D02*
X000400Y000840D01*
X000400Y000938D02*
X000300Y000938D01*
X000300Y001037D02*
X000440Y001037D01*
X000499Y001135D02*
X000300Y001135D01*
X000300Y001234D02*
X000600Y001234D01*
X000650Y001332D02*
X000300Y001332D01*
X000300Y001431D02*
X000650Y001431D01*
X000563Y001529D02*
X000300Y001529D01*
X000300Y001628D02*
X000477Y001628D01*
X000436Y001726D02*
X000300Y001726D01*
X000300Y001825D02*
X000420Y001825D01*
X000420Y001923D02*
X000300Y001923D01*
X000300Y002022D02*
X000456Y002022D01*
X000512Y002120D02*
X000300Y002120D01*
X000300Y002219D02*
X000616Y002219D01*
X000300Y002317D02*
X003034Y002317D01*
X002979Y002262D02*
X002936Y002280D01*
X002764Y002280D01*
X002606Y002215D01*
X002485Y002094D01*
X002420Y001936D01*
X002420Y001764D01*
X002485Y001606D01*
X002606Y001485D01*
X002650Y001467D01*
X002650Y001254D01*
X002595Y001231D01*
X002469Y001105D01*
X002400Y000940D01*
X002400Y000760D01*
X002469Y000595D01*
X002595Y000469D01*
X002760Y000400D01*
X002940Y000400D01*
X003105Y000469D01*
X003231Y000595D01*
X003300Y000760D01*
X003300Y000940D01*
X003231Y001105D01*
X003105Y001231D01*
X003050Y001254D01*
X003050Y001467D01*
X003094Y001485D01*
X003215Y001606D01*
X003280Y001764D01*
X003280Y001936D01*
X003262Y001979D01*
X003661Y002378D01*
X003693Y002365D01*
X003807Y002365D01*
X003911Y002408D01*
X003992Y002489D01*
X004035Y002593D01*
X004035Y002707D01*
X003992Y002811D01*
X003911Y002892D01*
X003807Y002935D01*
X003693Y002935D01*
X003589Y002892D01*
X003508Y002811D01*
X003494Y002777D01*
X003450Y002733D01*
X002979Y002262D01*
X003133Y002416D02*
X000300Y002416D01*
X000300Y002514D02*
X003231Y002514D01*
X003330Y002613D02*
X000300Y002613D01*
X000300Y002711D02*
X003428Y002711D01*
X003508Y002810D02*
X000300Y002810D01*
X000300Y002908D02*
X003628Y002908D01*
X003872Y002908D02*
X005328Y002908D01*
X005289Y002892D02*
X005247Y002850D01*
X004467Y002850D01*
X004350Y002733D01*
X003897Y002280D01*
X003764Y002280D01*
X003606Y002215D01*
X003485Y002094D01*
X003420Y001936D01*
X003420Y001764D01*
X003485Y001606D01*
X003606Y001485D01*
X003650Y001467D01*
X003650Y001254D01*
X003595Y001231D01*
X003469Y001105D01*
X003400Y000940D01*
X003400Y000760D01*
X003469Y000595D01*
X003595Y000469D01*
X003760Y000400D01*
X003940Y000400D01*
X004105Y000469D01*
X004231Y000595D01*
X004300Y000760D01*
X004300Y000940D01*
X004231Y001105D01*
X004105Y001231D01*
X004050Y001254D01*
X004050Y001467D01*
X004094Y001485D01*
X004215Y001606D01*
X004280Y001764D01*
X004280Y001936D01*
X004233Y002050D01*
X004633Y002450D01*
X005247Y002450D01*
X005289Y002408D01*
X005393Y002365D01*
X005507Y002365D01*
X005611Y002408D01*
X005692Y002489D01*
X005735Y002593D01*
X005735Y002707D01*
X005692Y002811D01*
X005611Y002892D01*
X005507Y002935D01*
X005393Y002935D01*
X005289Y002892D01*
X005572Y002908D02*
X009150Y002908D01*
X009150Y003007D02*
X000300Y003007D01*
X000300Y003105D02*
X009150Y003105D01*
X009150Y003204D02*
X000300Y003204D01*
X000300Y003302D02*
X009150Y003302D01*
X009150Y003401D02*
X009019Y003401D01*
X008945Y003370D02*
X009122Y003443D01*
X009150Y003471D01*
X009150Y002533D01*
X008667Y002050D01*
X007233Y002050D01*
X007215Y002094D01*
X007094Y002215D01*
X006936Y002280D01*
X006764Y002280D01*
X006606Y002215D01*
X006485Y002094D01*
X006420Y001936D01*
X006420Y001764D01*
X006485Y001606D01*
X006606Y001485D01*
X006650Y001467D01*
X006650Y001254D01*
X006595Y001231D01*
X006469Y001105D01*
X006400Y000940D01*
X006400Y000760D01*
X006469Y000595D01*
X006595Y000469D01*
X006760Y000400D01*
X006940Y000400D01*
X007105Y000469D01*
X007231Y000595D01*
X007300Y000760D01*
X007300Y000940D01*
X007231Y001105D01*
X007105Y001231D01*
X007050Y001254D01*
X007050Y001467D01*
X007094Y001485D01*
X007215Y001606D01*
X007233Y001650D01*
X008833Y001650D01*
X009433Y002250D01*
X009550Y002367D01*
X009550Y003475D01*
X009598Y003439D01*
X009666Y003405D01*
X009738Y003382D01*
X009800Y003372D01*
X009800Y003800D01*
X009900Y003800D01*
X009900Y003900D01*
X009800Y003900D01*
X009800Y004328D01*
X009738Y004318D01*
X009666Y004295D01*
X009598Y004261D01*
X009550Y004225D01*
X009550Y004267D01*
X009683Y004400D01*
X009755Y004370D01*
X009945Y004370D01*
X010122Y004443D01*
X010257Y004578D01*
X010330Y004755D01*
X010330Y004945D01*
X010257Y005122D01*
X010122Y005257D01*
X009945Y005330D01*
X009755Y005330D01*
X009578Y005257D01*
X009443Y005122D01*
X009370Y004945D01*
X009370Y004755D01*
X009400Y004683D01*
X009150Y004433D01*
X009150Y004229D01*
X009122Y004257D01*
X008945Y004330D01*
X008755Y004330D01*
X008578Y004257D01*
X008443Y004122D01*
X008370Y003945D01*
X008370Y003755D01*
X008443Y003578D01*
X008578Y003443D01*
X008755Y003370D01*
X008945Y003370D01*
X008681Y003401D02*
X000300Y003401D01*
X000300Y003499D02*
X008522Y003499D01*
X008435Y003598D02*
X000300Y003598D01*
X000300Y003696D02*
X008394Y003696D01*
X008370Y003795D02*
X000300Y003795D01*
X000300Y003893D02*
X008370Y003893D01*
X008389Y003992D02*
X000300Y003992D01*
X000300Y004090D02*
X008430Y004090D01*
X008510Y004189D02*
X007371Y004189D01*
X007333Y004150D02*
X007833Y004650D01*
X008413Y004650D01*
X008443Y004578D01*
X008578Y004443D01*
X008755Y004370D01*
X008945Y004370D01*
X009122Y004443D01*
X009257Y004578D01*
X009330Y004755D01*
X009330Y004945D01*
X009257Y005122D01*
X009122Y005257D01*
X008945Y005330D01*
X008755Y005330D01*
X008578Y005257D01*
X008443Y005122D01*
X008413Y005050D01*
X007667Y005050D01*
X007550Y004933D01*
X007167Y004550D01*
X007158Y004550D01*
X007215Y004606D01*
X007280Y004764D01*
X007280Y004936D01*
X007215Y005094D01*
X007094Y005215D01*
X007050Y005233D01*
X007050Y005446D01*
X007105Y005469D01*
X008552Y005469D01*
X008578Y005443D02*
X008755Y005370D01*
X008945Y005370D01*
X009122Y005443D01*
X009257Y005578D01*
X009330Y005755D01*
X009330Y005945D01*
X009257Y006122D01*
X009122Y006257D01*
X008945Y006330D01*
X008755Y006330D01*
X008578Y006257D01*
X008443Y006122D01*
X008413Y006050D01*
X007254Y006050D01*
X007231Y006105D01*
X007105Y006231D01*
X006940Y006300D01*
X006760Y006300D01*
X006595Y006231D01*
X006469Y006105D01*
X006400Y005940D01*
X006400Y005760D01*
X006469Y005595D01*
X006595Y005469D01*
X006105Y005469D01*
X006231Y005595D01*
X006300Y005760D01*
X006300Y005940D01*
X006231Y006105D01*
X006105Y006231D01*
X005940Y006300D01*
X005760Y006300D01*
X005595Y006231D01*
X005469Y006105D01*
X005400Y005940D01*
X005400Y005760D01*
X005469Y005595D01*
X005595Y005469D01*
X005105Y005469D01*
X005231Y005595D01*
X005300Y005760D01*
X005300Y005940D01*
X005231Y006105D01*
X005105Y006231D01*
X004940Y006300D01*
X004760Y006300D01*
X004595Y006231D01*
X004469Y006105D01*
X004400Y005940D01*
X004400Y005760D01*
X004469Y005595D01*
X004595Y005469D01*
X004105Y005469D01*
X004231Y005595D01*
X004300Y005760D01*
X004300Y005940D01*
X004231Y006105D01*
X004105Y006231D01*
X003940Y006300D01*
X003760Y006300D01*
X003595Y006231D01*
X003469Y006105D01*
X003400Y005940D01*
X003400Y005760D01*
X003469Y005595D01*
X003595Y005469D01*
X003105Y005469D01*
X003231Y005595D01*
X003300Y005760D01*
X003300Y005940D01*
X003231Y006105D01*
X003105Y006231D01*
X002940Y006300D01*
X002760Y006300D01*
X002595Y006231D01*
X002469Y006105D01*
X002400Y005940D01*
X002400Y005760D01*
X002469Y005595D01*
X002595Y005469D01*
X002105Y005469D01*
X002231Y005595D01*
X002300Y005760D01*
X002300Y005940D01*
X002231Y006105D01*
X002105Y006231D01*
X001940Y006300D01*
X001760Y006300D01*
X001595Y006231D01*
X001469Y006105D01*
X001400Y005940D01*
X001400Y005760D01*
X001469Y005595D01*
X001595Y005469D01*
X001091Y005469D01*
X001086Y005465D02*
X001143Y005507D01*
X001193Y005557D01*
X001235Y005614D01*
X001267Y005677D01*
X001289Y005745D01*
X001298Y005800D01*
X000900Y005800D01*
X000900Y005900D01*
X001298Y005900D01*
X001289Y005955D01*
X001267Y006023D01*
X001235Y006086D01*
X001193Y006143D01*
X001143Y006193D01*
X001086Y006235D01*
X001023Y006267D01*
X000955Y006289D01*
X000900Y006298D01*
X000900Y005900D01*
X000800Y005900D01*
X000800Y006298D01*
X000745Y006289D01*
X000677Y006267D01*
X000614Y006235D01*
X000557Y006193D01*
X000507Y006143D01*
X000465Y006086D01*
X000433Y006023D01*
X000411Y005955D01*
X000402Y005900D01*
X000800Y005900D01*
X000800Y005800D01*
X000900Y005800D01*
X000900Y005402D01*
X000955Y005411D01*
X001023Y005433D01*
X001086Y005465D01*
X001201Y005568D02*
X001496Y005568D01*
X001439Y005666D02*
X001261Y005666D01*
X001292Y005765D02*
X001400Y005765D01*
X001400Y005863D02*
X000900Y005863D01*
X000900Y005765D02*
X000800Y005765D01*
X000800Y005800D02*
X000800Y005402D01*
X000745Y005411D01*
X000677Y005433D01*
X000614Y005465D01*
X000557Y005507D01*
X000507Y005557D01*
X000465Y005614D01*
X000433Y005677D01*
X000411Y005745D01*
X000402Y005800D01*
X000800Y005800D01*
X000800Y005863D02*
X000300Y005863D01*
X000300Y005765D02*
X000408Y005765D01*
X000439Y005666D02*
X000300Y005666D01*
X000300Y005568D02*
X000499Y005568D01*
X000609Y005469D02*
X000300Y005469D01*
X000300Y005371D02*
X001650Y005371D01*
X001650Y005446D02*
X001595Y005469D01*
X001650Y005446D02*
X001650Y005233D01*
X001606Y005215D01*
X001485Y005094D01*
X001420Y004936D01*
X001420Y004764D01*
X001485Y004606D01*
X001606Y004485D01*
X001764Y004420D01*
X001936Y004420D01*
X002094Y004485D01*
X002215Y004606D01*
X002280Y004764D01*
X002280Y004936D01*
X002215Y005094D01*
X002094Y005215D01*
X002050Y005233D01*
X002050Y005446D01*
X002105Y005469D01*
X002050Y005371D02*
X002650Y005371D01*
X002650Y005446D02*
X002650Y005233D01*
X002606Y005215D01*
X002485Y005094D01*
X002420Y004936D01*
X002420Y004764D01*
X002485Y004606D01*
X002606Y004485D01*
X002764Y004420D01*
X002936Y004420D01*
X003094Y004485D01*
X003215Y004606D01*
X003280Y004764D01*
X003280Y004936D01*
X003215Y005094D01*
X003094Y005215D01*
X003050Y005233D01*
X003050Y005446D01*
X003105Y005469D01*
X003050Y005371D02*
X003650Y005371D01*
X003650Y005446D02*
X003595Y005469D01*
X003650Y005446D02*
X003650Y005233D01*
X003606Y005215D01*
X003485Y005094D01*
X003420Y004936D01*
X003420Y004764D01*
X003485Y004606D01*
X003606Y004485D01*
X003764Y004420D01*
X003936Y004420D01*
X004094Y004485D01*
X004215Y004606D01*
X004280Y004764D01*
X004280Y004936D01*
X004215Y005094D01*
X004094Y005215D01*
X004050Y005233D01*
X004050Y005446D01*
X004105Y005469D01*
X004050Y005371D02*
X004650Y005371D01*
X004650Y005446D02*
X004595Y005469D01*
X004650Y005446D02*
X004650Y005233D01*
X004606Y005215D01*
X004485Y005094D01*
X004420Y004936D01*
X004420Y004764D01*
X004485Y004606D01*
X004606Y004485D01*
X004764Y004420D01*
X004936Y004420D01*
X005094Y004485D01*
X005215Y004606D01*
X005280Y004764D01*
X005280Y004936D01*
X005215Y005094D01*
X005094Y005215D01*
X005050Y005233D01*
X005050Y005446D01*
X005105Y005469D01*
X005050Y005371D02*
X005650Y005371D01*
X005650Y005446D02*
X005650Y005233D01*
X005606Y005215D01*
X005485Y005094D01*
X005420Y004936D01*
X005420Y004764D01*
X005485Y004606D01*
X005606Y004485D01*
X005764Y004420D01*
X005897Y004420D01*
X006050Y004267D01*
X006167Y004150D01*
X007333Y004150D01*
X007470Y004287D02*
X008651Y004287D01*
X008717Y004386D02*
X007568Y004386D01*
X007667Y004484D02*
X008537Y004484D01*
X008441Y004583D02*
X007765Y004583D01*
X007397Y004780D02*
X007280Y004780D01*
X007280Y004878D02*
X007495Y004878D01*
X007594Y004977D02*
X007263Y004977D01*
X007222Y005075D02*
X008424Y005075D01*
X008495Y005174D02*
X007135Y005174D01*
X007050Y005272D02*
X008615Y005272D01*
X008753Y005371D02*
X007050Y005371D01*
X007105Y005469D02*
X007231Y005595D01*
X007254Y005650D01*
X008413Y005650D01*
X008443Y005578D01*
X008578Y005443D01*
X008454Y005568D02*
X007204Y005568D01*
X006850Y005850D02*
X008850Y005850D01*
X009293Y005666D02*
X009407Y005666D01*
X009443Y005578D02*
X009370Y005755D01*
X009370Y005945D01*
X009443Y006122D01*
X009578Y006257D01*
X009755Y006330D01*
X009945Y006330D01*
X010122Y006257D01*
X010257Y006122D01*
X010330Y005945D01*
X010330Y005755D01*
X010257Y005578D01*
X010122Y005443D01*
X009945Y005370D01*
X009755Y005370D01*
X009578Y005443D01*
X009443Y005578D01*
X009454Y005568D02*
X009246Y005568D01*
X009148Y005469D02*
X009552Y005469D01*
X009753Y005371D02*
X008947Y005371D01*
X009085Y005272D02*
X009615Y005272D01*
X009495Y005174D02*
X009205Y005174D01*
X009276Y005075D02*
X009424Y005075D01*
X009383Y004977D02*
X009317Y004977D01*
X009330Y004878D02*
X009370Y004878D01*
X009370Y004780D02*
X009330Y004780D01*
X009300Y004681D02*
X009398Y004681D01*
X009300Y004583D02*
X009259Y004583D01*
X009201Y004484D02*
X009163Y004484D01*
X009150Y004386D02*
X008983Y004386D01*
X009049Y004287D02*
X009150Y004287D01*
X009350Y004350D02*
X009850Y004850D01*
X010300Y004681D02*
X011300Y004681D01*
X011300Y004583D02*
X010259Y004583D01*
X010163Y004484D02*
X011300Y004484D01*
X011300Y004386D02*
X009983Y004386D01*
X009962Y004318D02*
X009900Y004328D01*
X009900Y003900D01*
X010328Y003900D01*
X010318Y003962D01*
X010295Y004034D01*
X010261Y004102D01*
X010216Y004163D01*
X010163Y004216D01*
X010102Y004261D01*
X010034Y004295D01*
X009962Y004318D01*
X009900Y004287D02*
X009800Y004287D01*
X009800Y004189D02*
X009900Y004189D01*
X009900Y004090D02*
X009800Y004090D01*
X009800Y003992D02*
X009900Y003992D01*
X009900Y003893D02*
X011300Y003893D01*
X011300Y003992D02*
X010309Y003992D01*
X010266Y004090D02*
X011300Y004090D01*
X011300Y004189D02*
X010190Y004189D01*
X010050Y004287D02*
X011300Y004287D01*
X011300Y003795D02*
X010327Y003795D01*
X010328Y003800D02*
X009900Y003800D01*
X009900Y003372D01*
X009962Y003382D01*
X010034Y003405D01*
X010102Y003439D01*
X010163Y003484D01*
X010216Y003537D01*
X010261Y003598D01*
X010295Y003666D01*
X010318Y003738D01*
X010328Y003800D01*
X010305Y003696D02*
X011300Y003696D01*
X011300Y003598D02*
X010260Y003598D01*
X010178Y003499D02*
X011300Y003499D01*
X011300Y003401D02*
X010020Y003401D01*
X009900Y003401D02*
X009800Y003401D01*
X009680Y003401D02*
X009550Y003401D01*
X009550Y003302D02*
X011300Y003302D01*
X011300Y003204D02*
X009550Y003204D01*
X009550Y003105D02*
X011300Y003105D01*
X011300Y003007D02*
X009550Y003007D01*
X009550Y002908D02*
X011300Y002908D01*
X011300Y002810D02*
X009550Y002810D01*
X009550Y002711D02*
X011300Y002711D01*
X011300Y002613D02*
X009550Y002613D01*
X009550Y002514D02*
X011300Y002514D01*
X011300Y002416D02*
X009550Y002416D01*
X009500Y002317D02*
X011300Y002317D01*
X011300Y002219D02*
X009401Y002219D01*
X009303Y002120D02*
X011300Y002120D01*
X011300Y002022D02*
X009204Y002022D01*
X009106Y001923D02*
X011300Y001923D01*
X011300Y001825D02*
X009007Y001825D01*
X008909Y001726D02*
X011300Y001726D01*
X011300Y001628D02*
X007223Y001628D01*
X007137Y001529D02*
X007811Y001529D01*
X007872Y001554D02*
X007686Y001478D01*
X007544Y001336D01*
X007468Y001150D01*
X007468Y000950D01*
X007544Y000764D01*
X007686Y000622D01*
X007872Y000546D01*
X008072Y000546D01*
X008258Y000622D01*
X008400Y000764D01*
X008476Y000950D01*
X008476Y001150D01*
X008400Y001336D01*
X008258Y001478D01*
X008072Y001554D01*
X007872Y001554D01*
X007639Y001431D02*
X007050Y001431D01*
X007050Y001332D02*
X007543Y001332D01*
X007502Y001234D02*
X007100Y001234D01*
X007201Y001135D02*
X007468Y001135D01*
X007468Y001037D02*
X007260Y001037D01*
X007300Y000938D02*
X007473Y000938D01*
X007513Y000840D02*
X007300Y000840D01*
X007292Y000741D02*
X007568Y000741D01*
X007666Y000643D02*
X007251Y000643D01*
X007180Y000544D02*
X011132Y000544D01*
X011230Y000643D02*
X011025Y000643D01*
X011057Y000665D02*
X011113Y000721D01*
X011159Y000786D01*
X011195Y000856D01*
X011220Y000932D01*
X011231Y001000D01*
X010778Y001000D01*
X010778Y001100D01*
X011231Y001100D01*
X011220Y001168D01*
X011195Y001244D01*
X011159Y001314D01*
X011113Y001379D01*
X011057Y001435D01*
X010992Y001481D01*
X010922Y001517D01*
X010846Y001542D01*
X010778Y001553D01*
X010778Y001100D01*
X010678Y001100D01*
X010678Y001553D01*
X010610Y001542D01*
X010534Y001517D01*
X010464Y001481D01*
X010399Y001435D01*
X010343Y001379D01*
X010297Y001314D01*
X010261Y001244D01*
X010236Y001168D01*
X010225Y001100D01*
X010678Y001100D01*
X010678Y001000D01*
X010778Y001000D01*
X010778Y000547D01*
X010846Y000558D01*
X010922Y000583D01*
X010992Y000619D01*
X011057Y000665D01*
X011127Y000741D02*
X011300Y000741D01*
X011300Y000840D02*
X011187Y000840D01*
X011221Y000938D02*
X011300Y000938D01*
X011300Y001037D02*
X010778Y001037D01*
X010778Y001135D02*
X010678Y001135D01*
X010678Y001037D02*
X008476Y001037D01*
X008476Y001135D02*
X010231Y001135D01*
X010257Y001234D02*
X008442Y001234D01*
X008401Y001332D02*
X010309Y001332D01*
X010395Y001431D02*
X008305Y001431D01*
X008134Y001529D02*
X010570Y001529D01*
X010678Y001529D02*
X010778Y001529D01*
X010778Y001431D02*
X010678Y001431D01*
X010886Y001529D02*
X011300Y001529D01*
X011300Y001431D02*
X011061Y001431D01*
X011146Y001332D02*
X011300Y001332D01*
X011300Y001234D02*
X011199Y001234D01*
X011225Y001135D02*
X011300Y001135D01*
X010778Y001234D02*
X010678Y001234D01*
X010678Y001332D02*
X010778Y001332D01*
X010678Y001000D02*
X010225Y001000D01*
X010236Y000932D01*
X010261Y000856D01*
X010297Y000786D01*
X010343Y000721D01*
X010399Y000665D01*
X010464Y000619D01*
X010534Y000583D01*
X010610Y000558D01*
X010678Y000547D01*
X010678Y001000D01*
X010678Y000938D02*
X010778Y000938D01*
X010778Y000840D02*
X010678Y000840D01*
X010678Y000741D02*
X010778Y000741D01*
X010778Y000643D02*
X010678Y000643D01*
X010431Y000643D02*
X008278Y000643D01*
X008376Y000741D02*
X010329Y000741D01*
X010269Y000840D02*
X008431Y000840D01*
X008472Y000938D02*
X010235Y000938D01*
X011033Y000446D02*
X007049Y000446D01*
X006651Y000446D02*
X006049Y000446D01*
X006105Y000469D02*
X006231Y000595D01*
X006300Y000760D01*
X006300Y000940D01*
X006231Y001105D01*
X006105Y001231D01*
X006050Y001254D01*
X006050Y001467D01*
X006094Y001485D01*
X006215Y001606D01*
X006280Y001764D01*
X006280Y001936D01*
X006215Y002094D01*
X006094Y002215D01*
X005936Y002280D01*
X005764Y002280D01*
X005606Y002215D01*
X005485Y002094D01*
X005420Y001936D01*
X005420Y001764D01*
X005485Y001606D01*
X005606Y001485D01*
X005650Y001467D01*
X005650Y001254D01*
X005595Y001231D01*
X005469Y001105D01*
X005400Y000940D01*
X005400Y000760D01*
X005469Y000595D01*
X005595Y000469D01*
X005760Y000400D01*
X005940Y000400D01*
X006105Y000469D01*
X006180Y000544D02*
X006520Y000544D01*
X006449Y000643D02*
X006251Y000643D01*
X006292Y000741D02*
X006408Y000741D01*
X006400Y000840D02*
X006300Y000840D01*
X006300Y000938D02*
X006400Y000938D01*
X006440Y001037D02*
X006260Y001037D01*
X006201Y001135D02*
X006499Y001135D01*
X006600Y001234D02*
X006100Y001234D01*
X006050Y001332D02*
X006650Y001332D01*
X006650Y001431D02*
X006050Y001431D01*
X006137Y001529D02*
X006563Y001529D01*
X006477Y001628D02*
X006223Y001628D01*
X006264Y001726D02*
X006436Y001726D01*
X006420Y001825D02*
X006280Y001825D01*
X006280Y001923D02*
X006420Y001923D01*
X006456Y002022D02*
X006244Y002022D01*
X006188Y002120D02*
X006512Y002120D01*
X006616Y002219D02*
X006084Y002219D01*
X005616Y002219D02*
X005084Y002219D01*
X005094Y002215D02*
X004936Y002280D01*
X004764Y002280D01*
X004606Y002215D01*
X004485Y002094D01*
X004420Y001936D01*
X004420Y001764D01*
X004485Y001606D01*
X004606Y001485D01*
X004650Y001467D01*
X004650Y001254D01*
X004595Y001231D01*
X004469Y001105D01*
X004400Y000940D01*
X004400Y000760D01*
X004469Y000595D01*
X004595Y000469D01*
X004760Y000400D01*
X004940Y000400D01*
X005105Y000469D01*
X005231Y000595D01*
X005300Y000760D01*
X005300Y000940D01*
X005231Y001105D01*
X005105Y001231D01*
X005050Y001254D01*
X005050Y001467D01*
X005094Y001485D01*
X005215Y001606D01*
X005280Y001764D01*
X005280Y001936D01*
X005215Y002094D01*
X005094Y002215D01*
X005188Y002120D02*
X005512Y002120D01*
X005456Y002022D02*
X005244Y002022D01*
X005280Y001923D02*
X005420Y001923D01*
X005420Y001825D02*
X005280Y001825D01*
X005264Y001726D02*
X005436Y001726D01*
X005477Y001628D02*
X005223Y001628D01*
X005137Y001529D02*
X005563Y001529D01*
X005650Y001431D02*
X005050Y001431D01*
X005050Y001332D02*
X005650Y001332D01*
X005600Y001234D02*
X005100Y001234D01*
X005201Y001135D02*
X005499Y001135D01*
X005440Y001037D02*
X005260Y001037D01*
X005300Y000938D02*
X005400Y000938D01*
X005400Y000840D02*
X005300Y000840D01*
X005292Y000741D02*
X005408Y000741D01*
X005449Y000643D02*
X005251Y000643D01*
X005180Y000544D02*
X005520Y000544D01*
X005651Y000446D02*
X005049Y000446D01*
X004651Y000446D02*
X004049Y000446D01*
X004180Y000544D02*
X004520Y000544D01*
X004449Y000643D02*
X004251Y000643D01*
X004292Y000741D02*
X004408Y000741D01*
X004400Y000840D02*
X004300Y000840D01*
X004300Y000938D02*
X004400Y000938D01*
X004440Y001037D02*
X004260Y001037D01*
X004201Y001135D02*
X004499Y001135D01*
X004600Y001234D02*
X004100Y001234D01*
X004050Y001332D02*
X004650Y001332D01*
X004650Y001431D02*
X004050Y001431D01*
X004137Y001529D02*
X004563Y001529D01*
X004477Y001628D02*
X004223Y001628D01*
X004264Y001726D02*
X004436Y001726D01*
X004420Y001825D02*
X004280Y001825D01*
X004280Y001923D02*
X004420Y001923D01*
X004456Y002022D02*
X004244Y002022D01*
X004303Y002120D02*
X004512Y002120D01*
X004616Y002219D02*
X004401Y002219D01*
X004500Y002317D02*
X008934Y002317D01*
X008836Y002219D02*
X007084Y002219D01*
X007188Y002120D02*
X008737Y002120D01*
X008750Y001850D02*
X009350Y002450D01*
X009350Y004350D01*
X009570Y004287D02*
X009650Y004287D01*
X009668Y004386D02*
X009717Y004386D01*
X010330Y004780D02*
X011300Y004780D01*
X011300Y004878D02*
X010330Y004878D01*
X010317Y004977D02*
X011300Y004977D01*
X011300Y005075D02*
X010276Y005075D01*
X010205Y005174D02*
X011300Y005174D01*
X011300Y005272D02*
X010085Y005272D01*
X009947Y005371D02*
X011300Y005371D01*
X011300Y005469D02*
X010148Y005469D01*
X010246Y005568D02*
X011300Y005568D01*
X011300Y005666D02*
X010293Y005666D01*
X010330Y005765D02*
X011300Y005765D01*
X011300Y005863D02*
X010330Y005863D01*
X010323Y005962D02*
X011300Y005962D01*
X011228Y006060D02*
X010283Y006060D01*
X010220Y006159D02*
X011129Y006159D01*
X011031Y006257D02*
X010122Y006257D01*
X009578Y006257D02*
X009122Y006257D01*
X009220Y006159D02*
X009480Y006159D01*
X009417Y006060D02*
X009283Y006060D01*
X009323Y005962D02*
X009377Y005962D01*
X009370Y005863D02*
X009330Y005863D01*
X009330Y005765D02*
X009370Y005765D01*
X008578Y006257D02*
X007043Y006257D01*
X007178Y006159D02*
X008480Y006159D01*
X008417Y006060D02*
X007250Y006060D01*
X006850Y005850D02*
X006850Y004850D01*
X007245Y004681D02*
X007298Y004681D01*
X007200Y004583D02*
X007191Y004583D01*
X007250Y004350D02*
X007750Y004850D01*
X008850Y004850D01*
X009550Y003900D02*
X009800Y003900D01*
X009800Y003800D01*
X009550Y003800D01*
X009550Y003900D01*
X009550Y003893D02*
X009800Y003893D01*
X009800Y003795D02*
X009900Y003795D01*
X009900Y003696D02*
X009800Y003696D01*
X009800Y003598D02*
X009900Y003598D01*
X009900Y003499D02*
X009800Y003499D01*
X009150Y002810D02*
X005692Y002810D01*
X005733Y002711D02*
X009150Y002711D01*
X009150Y002613D02*
X005735Y002613D01*
X005702Y002514D02*
X009131Y002514D01*
X009033Y002416D02*
X005619Y002416D01*
X005450Y002650D02*
X004550Y002650D01*
X003850Y001950D01*
X003850Y001850D01*
X003850Y000850D01*
X003400Y000840D02*
X003300Y000840D01*
X003292Y000741D02*
X003408Y000741D01*
X003449Y000643D02*
X003251Y000643D01*
X003180Y000544D02*
X003520Y000544D01*
X003651Y000446D02*
X003049Y000446D01*
X002651Y000446D02*
X002049Y000446D01*
X002105Y000469D02*
X001940Y000400D01*
X001760Y000400D01*
X001595Y000469D01*
X001469Y000595D01*
X001400Y000760D01*
X001400Y000940D01*
X001469Y001105D01*
X001595Y001231D01*
X001650Y001254D01*
X001650Y001467D01*
X001606Y001485D01*
X001485Y001606D01*
X001420Y001764D01*
X001420Y001936D01*
X001485Y002094D01*
X001606Y002215D01*
X001764Y002280D01*
X001936Y002280D01*
X002094Y002215D01*
X002215Y002094D01*
X002280Y001936D01*
X002280Y001764D01*
X002215Y001606D01*
X002094Y001485D01*
X002050Y001467D01*
X002050Y001254D01*
X002105Y001231D01*
X002231Y001105D01*
X002300Y000940D01*
X002300Y000760D01*
X002231Y000595D01*
X002105Y000469D01*
X002180Y000544D02*
X002520Y000544D01*
X002449Y000643D02*
X002251Y000643D01*
X002292Y000741D02*
X002408Y000741D01*
X002400Y000840D02*
X002300Y000840D01*
X002300Y000938D02*
X002400Y000938D01*
X002440Y001037D02*
X002260Y001037D01*
X002201Y001135D02*
X002499Y001135D01*
X002600Y001234D02*
X002100Y001234D01*
X002050Y001332D02*
X002650Y001332D01*
X002650Y001431D02*
X002050Y001431D01*
X002137Y001529D02*
X002563Y001529D01*
X002477Y001628D02*
X002223Y001628D01*
X002264Y001726D02*
X002436Y001726D01*
X002420Y001825D02*
X002280Y001825D01*
X002280Y001923D02*
X002420Y001923D01*
X002456Y002022D02*
X002244Y002022D01*
X002188Y002120D02*
X002512Y002120D01*
X002616Y002219D02*
X002084Y002219D01*
X001616Y002219D02*
X001084Y002219D01*
X001188Y002120D02*
X001512Y002120D01*
X001456Y002022D02*
X001244Y002022D01*
X001280Y001923D02*
X001420Y001923D01*
X001420Y001825D02*
X001280Y001825D01*
X001264Y001726D02*
X001436Y001726D01*
X001477Y001628D02*
X001223Y001628D01*
X001137Y001529D02*
X001563Y001529D01*
X001650Y001431D02*
X001050Y001431D01*
X001050Y001332D02*
X001650Y001332D01*
X001600Y001234D02*
X001100Y001234D01*
X001201Y001135D02*
X001499Y001135D01*
X001440Y001037D02*
X001260Y001037D01*
X001300Y000938D02*
X001400Y000938D01*
X001400Y000840D02*
X001300Y000840D01*
X001292Y000741D02*
X001408Y000741D01*
X001449Y000643D02*
X001251Y000643D01*
X001180Y000544D02*
X001520Y000544D01*
X001651Y000446D02*
X001049Y000446D01*
X000850Y000850D02*
X000850Y001850D01*
X001850Y001850D02*
X001850Y000850D01*
X002850Y000850D02*
X002850Y001850D01*
X003650Y002650D01*
X003750Y002650D01*
X004002Y002514D02*
X004131Y002514D01*
X004035Y002613D02*
X004230Y002613D01*
X004328Y002711D02*
X004033Y002711D01*
X003992Y002810D02*
X004427Y002810D01*
X004598Y002416D02*
X005281Y002416D01*
X004850Y001850D02*
X004850Y000850D01*
X005850Y000850D02*
X005850Y001850D01*
X006850Y001850D02*
X008750Y001850D01*
X006850Y001850D02*
X006850Y000850D01*
X004033Y002416D02*
X003919Y002416D01*
X003934Y002317D02*
X003600Y002317D01*
X003616Y002219D02*
X003501Y002219D01*
X003512Y002120D02*
X003403Y002120D01*
X003456Y002022D02*
X003304Y002022D01*
X003280Y001923D02*
X003420Y001923D01*
X003420Y001825D02*
X003280Y001825D01*
X003264Y001726D02*
X003436Y001726D01*
X003477Y001628D02*
X003223Y001628D01*
X003137Y001529D02*
X003563Y001529D01*
X003650Y001431D02*
X003050Y001431D01*
X003050Y001332D02*
X003650Y001332D01*
X003600Y001234D02*
X003100Y001234D01*
X003201Y001135D02*
X003499Y001135D01*
X003440Y001037D02*
X003260Y001037D01*
X003300Y000938D02*
X003400Y000938D01*
X006129Y004189D02*
X000300Y004189D01*
X000300Y004287D02*
X006030Y004287D01*
X005932Y004386D02*
X000300Y004386D01*
X000300Y004484D02*
X000622Y004484D01*
X000625Y004482D02*
X000685Y004452D01*
X000749Y004431D01*
X000816Y004420D01*
X000820Y004420D01*
X000820Y004820D01*
X000420Y004820D01*
X000420Y004816D01*
X000431Y004749D01*
X000452Y004685D01*
X000482Y004625D01*
X000522Y004570D01*
X000570Y004522D01*
X000625Y004482D01*
X000513Y004583D02*
X000300Y004583D01*
X000300Y004681D02*
X000454Y004681D01*
X000426Y004780D02*
X000300Y004780D01*
X000300Y004878D02*
X000820Y004878D01*
X000820Y004880D02*
X000820Y004820D01*
X000880Y004820D01*
X000880Y004880D01*
X000820Y004880D01*
X000820Y005280D01*
X000816Y005280D01*
X000749Y005269D01*
X000685Y005248D01*
X000625Y005218D01*
X000570Y005178D01*
X000522Y005130D01*
X000482Y005075D01*
X000300Y005075D01*
X000300Y004977D02*
X000439Y004977D01*
X000431Y004951D02*
X000452Y005015D01*
X000482Y005075D01*
X000565Y005174D02*
X000300Y005174D01*
X000300Y005272D02*
X000766Y005272D01*
X000820Y005272D02*
X000880Y005272D01*
X000880Y005280D02*
X000880Y004880D01*
X001280Y004880D01*
X001280Y004884D01*
X001269Y004951D01*
X001248Y005015D01*
X001218Y005075D01*
X001478Y005075D01*
X001437Y004977D02*
X001261Y004977D01*
X001218Y005075D02*
X001178Y005130D01*
X001130Y005178D01*
X001075Y005218D01*
X001015Y005248D01*
X000951Y005269D01*
X000884Y005280D01*
X000880Y005280D01*
X000934Y005272D02*
X001650Y005272D01*
X001565Y005174D02*
X001135Y005174D01*
X000880Y005174D02*
X000820Y005174D01*
X000820Y005075D02*
X000880Y005075D01*
X000880Y004977D02*
X000820Y004977D01*
X000820Y004880D02*
X000420Y004880D01*
X000420Y004884D01*
X000431Y004951D01*
X000820Y004780D02*
X000880Y004780D01*
X000880Y004820D02*
X000880Y004420D01*
X000884Y004420D01*
X000951Y004431D01*
X001015Y004452D01*
X001075Y004482D01*
X001130Y004522D01*
X001178Y004570D01*
X001218Y004625D01*
X001248Y004685D01*
X001269Y004749D01*
X001280Y004816D01*
X001280Y004820D01*
X000880Y004820D01*
X000880Y004878D02*
X001420Y004878D01*
X001420Y004780D02*
X001274Y004780D01*
X001246Y004681D02*
X001455Y004681D01*
X001509Y004583D02*
X001187Y004583D01*
X001078Y004484D02*
X001610Y004484D01*
X002090Y004484D02*
X002610Y004484D01*
X002509Y004583D02*
X002191Y004583D01*
X002245Y004681D02*
X002455Y004681D01*
X002420Y004780D02*
X002280Y004780D01*
X002280Y004878D02*
X002420Y004878D01*
X002437Y004977D02*
X002263Y004977D01*
X002222Y005075D02*
X002478Y005075D01*
X002565Y005174D02*
X002135Y005174D01*
X002050Y005272D02*
X002650Y005272D01*
X002650Y005446D02*
X002595Y005469D01*
X002496Y005568D02*
X002204Y005568D01*
X002261Y005666D02*
X002439Y005666D01*
X002400Y005765D02*
X002300Y005765D01*
X002300Y005863D02*
X002400Y005863D01*
X002409Y005962D02*
X002291Y005962D01*
X002250Y006060D02*
X002450Y006060D01*
X002522Y006159D02*
X002178Y006159D01*
X002043Y006257D02*
X002657Y006257D01*
X003043Y006257D02*
X003657Y006257D01*
X003522Y006159D02*
X003178Y006159D01*
X003250Y006060D02*
X003450Y006060D01*
X003409Y005962D02*
X003291Y005962D01*
X003300Y005863D02*
X003400Y005863D01*
X003400Y005765D02*
X003300Y005765D01*
X003261Y005666D02*
X003439Y005666D01*
X003496Y005568D02*
X003204Y005568D01*
X002850Y005850D02*
X002850Y004850D01*
X003245Y004681D02*
X003455Y004681D01*
X003509Y004583D02*
X003191Y004583D01*
X003090Y004484D02*
X003610Y004484D01*
X004090Y004484D02*
X004610Y004484D01*
X004509Y004583D02*
X004191Y004583D01*
X004245Y004681D02*
X004455Y004681D01*
X004420Y004780D02*
X004280Y004780D01*
X004280Y004878D02*
X004420Y004878D01*
X004437Y004977D02*
X004263Y004977D01*
X004222Y005075D02*
X004478Y005075D01*
X004565Y005174D02*
X004135Y005174D01*
X004050Y005272D02*
X004650Y005272D01*
X005050Y005272D02*
X005650Y005272D01*
X005565Y005174D02*
X005135Y005174D01*
X005222Y005075D02*
X005478Y005075D01*
X005437Y004977D02*
X005263Y004977D01*
X005280Y004878D02*
X005420Y004878D01*
X005420Y004780D02*
X005280Y004780D01*
X005245Y004681D02*
X005455Y004681D01*
X005509Y004583D02*
X005191Y004583D01*
X005090Y004484D02*
X005610Y004484D01*
X005850Y004750D02*
X006250Y004350D01*
X007250Y004350D01*
X006542Y004550D02*
X006333Y004550D01*
X006233Y004650D01*
X006280Y004764D01*
X006280Y004936D01*
X006215Y005094D01*
X006094Y005215D01*
X006050Y005233D01*
X006050Y005446D01*
X006105Y005469D01*
X006050Y005371D02*
X006650Y005371D01*
X006650Y005446D02*
X006595Y005469D01*
X006650Y005446D02*
X006650Y005233D01*
X006606Y005215D01*
X006485Y005094D01*
X006420Y004936D01*
X006420Y004764D01*
X006485Y004606D01*
X006542Y004550D01*
X006509Y004583D02*
X006300Y004583D01*
X006245Y004681D02*
X006455Y004681D01*
X006420Y004780D02*
X006280Y004780D01*
X006280Y004878D02*
X006420Y004878D01*
X006437Y004977D02*
X006263Y004977D01*
X006222Y005075D02*
X006478Y005075D01*
X006565Y005174D02*
X006135Y005174D01*
X006050Y005272D02*
X006650Y005272D01*
X006496Y005568D02*
X006204Y005568D01*
X006261Y005666D02*
X006439Y005666D01*
X006400Y005765D02*
X006300Y005765D01*
X006300Y005863D02*
X006400Y005863D01*
X006409Y005962D02*
X006291Y005962D01*
X006250Y006060D02*
X006450Y006060D01*
X006522Y006159D02*
X006178Y006159D01*
X006043Y006257D02*
X006657Y006257D01*
X005850Y005850D02*
X005850Y004850D01*
X005850Y004750D01*
X004850Y004850D02*
X004850Y005850D01*
X004439Y005666D02*
X004261Y005666D01*
X004204Y005568D02*
X004496Y005568D01*
X004400Y005765D02*
X004300Y005765D01*
X004300Y005863D02*
X004400Y005863D01*
X004409Y005962D02*
X004291Y005962D01*
X004250Y006060D02*
X004450Y006060D01*
X004522Y006159D02*
X004178Y006159D01*
X004043Y006257D02*
X004657Y006257D01*
X005043Y006257D02*
X005657Y006257D01*
X005522Y006159D02*
X005178Y006159D01*
X005250Y006060D02*
X005450Y006060D01*
X005409Y005962D02*
X005291Y005962D01*
X005300Y005863D02*
X005400Y005863D01*
X005400Y005765D02*
X005300Y005765D01*
X005261Y005666D02*
X005439Y005666D01*
X005496Y005568D02*
X005204Y005568D01*
X005595Y005469D02*
X005650Y005446D01*
X003850Y005850D02*
X003850Y004850D01*
X003420Y004878D02*
X003280Y004878D01*
X003280Y004780D02*
X003420Y004780D01*
X003437Y004977D02*
X003263Y004977D01*
X003222Y005075D02*
X003478Y005075D01*
X003565Y005174D02*
X003135Y005174D01*
X003050Y005272D02*
X003650Y005272D01*
X001850Y004850D02*
X001850Y005850D01*
X001450Y006060D02*
X001248Y006060D01*
X001178Y006159D02*
X001522Y006159D01*
X001657Y006257D02*
X001042Y006257D01*
X000900Y006257D02*
X000800Y006257D01*
X000658Y006257D02*
X000569Y006257D01*
X000668Y006356D02*
X010932Y006356D01*
X001409Y005962D02*
X001287Y005962D01*
X000900Y005962D02*
X000800Y005962D01*
X000800Y006060D02*
X000900Y006060D01*
X000900Y006159D02*
X000800Y006159D01*
X000522Y006159D02*
X000471Y006159D01*
X000452Y006060D02*
X000372Y006060D01*
X000413Y005962D02*
X000300Y005962D01*
X000800Y005666D02*
X000900Y005666D01*
X000900Y005568D02*
X000800Y005568D01*
X000800Y005469D02*
X000900Y005469D01*
X000880Y004681D02*
X000820Y004681D01*
X000820Y004583D02*
X000880Y004583D01*
X000880Y004484D02*
X000820Y004484D01*
D15*
X003750Y002650D03*
X005450Y002650D03*
M02*
