G75*
G70*
%OFA0B0*%
%FSLAX24Y24*%
%IPPOS*%
%LPD*%
%AMOC8*
5,1,8,0,0,1.08239X$1,22.5*
%
%ADD10C,0.0080*%
%ADD11C,0.0160*%
D10*
X000350Y002200D02*
X000350Y002950D01*
X000389Y002952D01*
X000428Y002958D01*
X000466Y002967D01*
X000503Y002980D01*
X000539Y002997D01*
X000572Y003017D01*
X000604Y003041D01*
X000633Y003067D01*
X000659Y003096D01*
X000683Y003128D01*
X000703Y003161D01*
X000720Y003197D01*
X000733Y003234D01*
X000742Y003272D01*
X000748Y003311D01*
X000750Y003350D01*
X000748Y003389D01*
X000742Y003428D01*
X000733Y003466D01*
X000720Y003503D01*
X000703Y003539D01*
X000683Y003572D01*
X000659Y003604D01*
X000633Y003633D01*
X000604Y003659D01*
X000572Y003683D01*
X000539Y003703D01*
X000503Y003720D01*
X000466Y003733D01*
X000428Y003742D01*
X000389Y003748D01*
X000350Y003750D01*
X000350Y004500D01*
X007350Y004500D01*
X007350Y002200D01*
X000350Y002200D01*
X001480Y003140D02*
X001480Y003560D01*
X001340Y003560D02*
X001620Y003560D01*
X001800Y003560D02*
X001941Y003560D01*
X001870Y003560D02*
X001870Y003140D01*
X001800Y003140D02*
X001941Y003140D01*
X002107Y003140D02*
X002107Y003560D01*
X002388Y003140D01*
X002388Y003560D01*
X002568Y003560D02*
X002568Y003490D01*
X002708Y003350D01*
X002708Y003140D01*
X003028Y003140D02*
X003308Y003420D01*
X003308Y003490D01*
X003238Y003560D01*
X003098Y003560D01*
X003028Y003490D01*
X002848Y003490D02*
X002848Y003560D01*
X002848Y003490D02*
X002708Y003350D01*
X003028Y003140D02*
X003308Y003140D01*
X003699Y003140D02*
X003699Y003560D01*
X003488Y003350D01*
X003769Y003350D01*
X003949Y003140D02*
X004229Y003560D01*
X004409Y003350D02*
X004690Y003350D01*
X004870Y003350D02*
X005150Y003350D01*
X005080Y003140D02*
X005080Y003560D01*
X004870Y003350D01*
X004619Y003140D02*
X004619Y003560D01*
X004409Y003350D01*
X005330Y003140D02*
X005610Y003560D01*
X005790Y003490D02*
X005790Y003420D01*
X005861Y003350D01*
X006001Y003350D01*
X006071Y003280D01*
X006071Y003210D01*
X006001Y003140D01*
X005861Y003140D01*
X005790Y003210D01*
X005790Y003280D01*
X005861Y003350D01*
X006001Y003350D02*
X006071Y003420D01*
X006071Y003490D01*
X006001Y003560D01*
X005861Y003560D01*
X005790Y003490D01*
X006251Y003350D02*
X006531Y003350D01*
X006461Y003140D02*
X006461Y003560D01*
X006251Y003350D01*
X007790Y003010D02*
X007790Y002690D01*
X007790Y002797D02*
X007950Y002797D01*
X008004Y002850D01*
X008004Y002957D01*
X007950Y003010D01*
X007790Y003010D01*
X007897Y002797D02*
X008004Y002690D01*
X008158Y002743D02*
X008158Y002850D01*
X008212Y002904D01*
X008318Y002904D01*
X008372Y002850D01*
X008372Y002797D01*
X008158Y002797D01*
X008158Y002743D02*
X008212Y002690D01*
X008318Y002690D01*
X008527Y002904D02*
X008633Y002690D01*
X008740Y002904D01*
X009263Y002957D02*
X009263Y002743D01*
X009477Y002957D01*
X009477Y002743D01*
X009423Y002690D01*
X009317Y002690D01*
X009263Y002743D01*
X009263Y002957D02*
X009317Y003010D01*
X009423Y003010D01*
X009477Y002957D01*
X009816Y002957D02*
X009869Y003010D01*
X009976Y003010D01*
X010029Y002957D01*
X010029Y002904D01*
X009976Y002850D01*
X010029Y002797D01*
X010029Y002743D01*
X009976Y002690D01*
X009869Y002690D01*
X009816Y002743D01*
X009685Y002743D02*
X009685Y002690D01*
X009632Y002690D01*
X009632Y002743D01*
X009685Y002743D01*
X009922Y002850D02*
X009976Y002850D01*
X010184Y002850D02*
X010398Y002850D01*
X010398Y002904D02*
X010398Y002690D01*
X010184Y002690D02*
X010184Y002904D01*
X010291Y003010D01*
X010398Y002904D01*
X010690Y002740D02*
X010743Y002740D01*
X010957Y002527D01*
X011010Y002527D01*
X011010Y002740D01*
X010690Y002740D02*
X010690Y002527D01*
X010850Y002372D02*
X010903Y002372D01*
X010903Y002158D01*
X010850Y002158D02*
X010796Y002212D01*
X010796Y002318D01*
X010850Y002372D01*
X011010Y002318D02*
X011010Y002212D01*
X010957Y002158D01*
X010850Y002158D01*
X010850Y002004D02*
X010903Y002004D01*
X010903Y001790D01*
X010850Y001790D02*
X010796Y001843D01*
X010796Y001950D01*
X010850Y002004D01*
X011010Y001950D02*
X011010Y001843D01*
X010957Y001790D01*
X010850Y001790D01*
X010531Y001739D02*
X008169Y001739D01*
X008169Y001719D02*
X008169Y001483D01*
X008759Y001345D02*
X008759Y000755D01*
X009941Y000755D01*
X009941Y001345D01*
X008759Y001345D01*
X008944Y001990D02*
X008874Y002060D01*
X008874Y002200D01*
X008944Y002270D01*
X009084Y002270D01*
X009154Y002200D01*
X009154Y002130D01*
X008874Y002130D01*
X008944Y001990D02*
X009084Y001990D01*
X009334Y001990D02*
X009544Y001990D01*
X009614Y002060D01*
X009544Y002130D01*
X009404Y002130D01*
X009334Y002200D01*
X009404Y002270D01*
X009614Y002270D01*
X009794Y002200D02*
X009865Y002270D01*
X010005Y002270D01*
X010075Y002200D01*
X010075Y002130D01*
X009794Y002130D01*
X009794Y002060D02*
X009794Y002200D01*
X009794Y002060D02*
X009865Y001990D01*
X010005Y001990D01*
X010325Y002060D02*
X010395Y001990D01*
X010325Y002060D02*
X010325Y002340D01*
X010255Y002270D02*
X010395Y002270D01*
X010531Y001719D02*
X010531Y001483D01*
X010531Y000617D02*
X010531Y000381D01*
X010531Y000361D02*
X008169Y000361D01*
X008169Y000381D02*
X008169Y000617D01*
X008490Y001990D02*
X008490Y002270D01*
X008490Y002130D02*
X008630Y002270D01*
X008700Y002270D01*
X008350Y003350D02*
X010350Y003350D01*
X010350Y006350D01*
X008350Y006350D01*
X008350Y003350D01*
X010690Y003632D02*
X010796Y003738D01*
X010690Y003845D01*
X011010Y003845D01*
X010957Y004000D02*
X010850Y004000D01*
X010796Y004053D01*
X010796Y004160D01*
X010850Y004213D01*
X010903Y004213D01*
X010903Y004000D01*
X010957Y004000D02*
X011010Y004053D01*
X011010Y004160D01*
X010957Y004368D02*
X010850Y004368D01*
X010796Y004422D01*
X010796Y004582D01*
X010690Y004582D02*
X011010Y004582D01*
X011010Y004422D01*
X010957Y004368D01*
X010690Y004737D02*
X010690Y004950D01*
X010690Y004843D02*
X011010Y004843D01*
X011010Y005105D02*
X011010Y005212D01*
X011010Y005158D02*
X010796Y005158D01*
X010796Y005105D01*
X010690Y005158D02*
X010636Y005158D01*
X010796Y005350D02*
X010796Y005511D01*
X010850Y005564D01*
X011010Y005564D01*
X010957Y005719D02*
X010796Y005719D01*
X010957Y005719D02*
X011010Y005772D01*
X011010Y005932D01*
X011063Y005932D02*
X011117Y005879D01*
X011117Y005825D01*
X011063Y005932D02*
X010796Y005932D01*
X010796Y005350D02*
X011010Y005350D01*
X011010Y003632D02*
X010690Y003632D01*
X010850Y003477D02*
X010903Y003477D01*
X010903Y003263D01*
X010850Y003263D02*
X010796Y003317D01*
X010796Y003423D01*
X010850Y003477D01*
X011010Y003423D02*
X011010Y003317D01*
X010957Y003263D01*
X010850Y003263D01*
X010850Y003108D02*
X010903Y003108D01*
X010903Y002895D01*
X010850Y002895D02*
X010796Y002948D01*
X010796Y003055D01*
X010850Y003108D01*
X011010Y003055D02*
X011010Y002948D01*
X010957Y002895D01*
X010850Y002895D01*
D11*
X008350Y004350D02*
X007950Y004350D01*
X007950Y005350D01*
X008350Y005350D01*
X008350Y004350D01*
X008350Y004430D02*
X007950Y004430D01*
X007950Y004588D02*
X008350Y004588D01*
X008350Y004747D02*
X007950Y004747D01*
X007950Y004905D02*
X008350Y004905D01*
X008350Y005064D02*
X007950Y005064D01*
X007950Y005222D02*
X008350Y005222D01*
M02*
