G75*
G70*
%OFA0B0*%
%FSLAX24Y24*%
%IPPOS*%
%LPD*%
%AMOC8*
5,1,8,0,0,1.08239X$1,22.5*
%
%ADD10R,0.0474X0.0513*%
%ADD11R,0.0513X0.0474*%
%ADD12C,0.0740*%
%ADD13R,0.0789X0.0710*%
%ADD14R,0.0867X0.1025*%
%ADD15C,0.0640*%
%ADD16C,0.0680*%
%ADD17C,0.0789*%
D10*
X000750Y003415D03*
X000750Y004085D03*
D11*
X002615Y002650D03*
X003285Y002650D03*
X004015Y002650D03*
X004685Y002650D03*
X005850Y002615D03*
X005850Y003285D03*
D12*
X008850Y003850D03*
X009850Y003850D03*
X009850Y004850D03*
X008850Y004850D03*
X008850Y005850D03*
X009850Y005850D03*
D13*
X001650Y003901D03*
X001650Y002799D03*
D14*
X002863Y003650D03*
X004437Y003650D03*
D15*
X004850Y004850D03*
X003850Y004850D03*
X002850Y004850D03*
X001850Y004850D03*
X000850Y004850D03*
X005850Y004850D03*
X006850Y004850D03*
X006850Y001850D03*
X005850Y001850D03*
X004850Y001850D03*
X003850Y001850D03*
X002850Y001850D03*
X001850Y001850D03*
X000850Y001850D03*
D16*
X000850Y000850D03*
X001850Y000850D03*
X002850Y000850D03*
X003850Y000850D03*
X004850Y000850D03*
X005850Y000850D03*
X006850Y000850D03*
X006850Y005850D03*
X005850Y005850D03*
X004850Y005850D03*
X003850Y005850D03*
X002850Y005850D03*
X001850Y005850D03*
X000850Y005850D03*
D17*
X007972Y001050D03*
X010728Y001050D03*
M02*
