G75*
%MOIN*%
%OFA0B0*%
%FSLAX24Y24*%
%IPPOS*%
%LPD*%
%AMOC8*
5,1,8,0,0,1.08239X$1,22.5*
%
%ADD10C,0.0030*%
%ADD11C,0.0040*%
%ADD12C,0.0160*%
%ADD13C,0.0050*%
%ADD14C,0.0060*%
D10*
X008407Y002865D02*
X008407Y003155D01*
X008553Y003155D01*
X008601Y003107D01*
X008601Y003010D01*
X008553Y002962D01*
X008407Y002962D01*
X008504Y002962D02*
X008601Y002865D01*
X008702Y002913D02*
X008702Y003010D01*
X008750Y003058D01*
X008847Y003058D01*
X008896Y003010D01*
X008896Y002962D01*
X008702Y002962D01*
X008702Y002913D02*
X008750Y002865D01*
X008847Y002865D01*
X008997Y003058D02*
X009093Y002865D01*
X009190Y003058D01*
X009586Y003107D02*
X009586Y002913D01*
X009779Y003107D01*
X009779Y002913D01*
X009731Y002865D01*
X009634Y002865D01*
X009586Y002913D01*
X009586Y003107D02*
X009634Y003155D01*
X009731Y003155D01*
X009779Y003107D01*
X010028Y003010D02*
X010221Y003010D01*
X010173Y002865D02*
X010173Y003155D01*
X010028Y003010D01*
X009929Y002913D02*
X009929Y002865D01*
X009881Y002865D01*
X009881Y002913D01*
X009929Y002913D01*
D11*
X010670Y002747D02*
X010670Y002507D01*
X010850Y002379D02*
X010910Y002379D01*
X010910Y002138D01*
X010970Y002138D02*
X010850Y002138D01*
X010790Y002198D01*
X010790Y002318D01*
X010850Y002379D01*
X010970Y002507D02*
X011030Y002507D01*
X011030Y002747D01*
X010970Y002875D02*
X010850Y002875D01*
X010790Y002935D01*
X010790Y003055D01*
X010850Y003115D01*
X010910Y003115D01*
X010910Y002875D01*
X010970Y002875D02*
X011030Y002935D01*
X011030Y003055D01*
X010970Y003243D02*
X010850Y003243D01*
X010790Y003303D01*
X010790Y003423D01*
X010850Y003483D01*
X010910Y003483D01*
X010910Y003243D01*
X010970Y003243D02*
X011030Y003303D01*
X011030Y003423D01*
X011030Y003612D02*
X010670Y003612D01*
X010790Y003732D01*
X010670Y003852D01*
X011030Y003852D01*
X010970Y003980D02*
X010850Y003980D01*
X010790Y004040D01*
X010790Y004160D01*
X010850Y004220D01*
X010910Y004220D01*
X010910Y003980D01*
X010970Y003980D02*
X011030Y004040D01*
X011030Y004160D01*
X010970Y004348D02*
X010850Y004348D01*
X010790Y004408D01*
X010790Y004588D01*
X010670Y004588D02*
X011030Y004588D01*
X011030Y004408D01*
X010970Y004348D01*
X010670Y004717D02*
X010670Y004957D01*
X010670Y004837D02*
X011030Y004837D01*
X011030Y005085D02*
X011030Y005205D01*
X011030Y005145D02*
X010790Y005145D01*
X010790Y005085D01*
X010670Y005145D02*
X010610Y005145D01*
X010790Y005330D02*
X010790Y005511D01*
X010850Y005571D01*
X011030Y005571D01*
X010970Y005699D02*
X010790Y005699D01*
X010970Y005699D02*
X011030Y005759D01*
X011030Y005939D01*
X011090Y005939D02*
X011150Y005879D01*
X011150Y005819D01*
X011090Y005939D02*
X010790Y005939D01*
X010790Y005330D02*
X011030Y005330D01*
X010730Y002747D02*
X010670Y002747D01*
X010730Y002747D02*
X010970Y002507D01*
X011030Y002318D02*
X011030Y002198D01*
X010970Y002138D01*
X010910Y002010D02*
X010850Y002010D01*
X010790Y001950D01*
X010790Y001830D01*
X010850Y001770D01*
X010970Y001770D01*
X011030Y001830D01*
X011030Y001950D01*
X010910Y002010D02*
X010910Y001770D01*
X010073Y001970D02*
X010013Y002030D01*
X010013Y002270D01*
X009953Y002210D02*
X010073Y002210D01*
X009825Y002150D02*
X009825Y002090D01*
X009585Y002090D01*
X009585Y002030D02*
X009585Y002150D01*
X009645Y002210D01*
X009765Y002210D01*
X009825Y002150D01*
X009645Y001970D02*
X009585Y002030D01*
X009645Y001970D02*
X009765Y001970D01*
X009457Y002030D02*
X009397Y001970D01*
X009217Y001970D01*
X009277Y002090D02*
X009217Y002150D01*
X009277Y002210D01*
X009457Y002210D01*
X009397Y002090D02*
X009277Y002090D01*
X009088Y002090D02*
X009088Y002150D01*
X009028Y002210D01*
X008908Y002210D01*
X008848Y002150D01*
X008848Y002030D01*
X008908Y001970D01*
X009028Y001970D01*
X009088Y002090D02*
X008848Y002090D01*
X008721Y002210D02*
X008661Y002210D01*
X008541Y002090D01*
X008541Y001970D02*
X008541Y002210D01*
X009397Y002090D02*
X009457Y002030D01*
D12*
X008350Y004350D02*
X007950Y004350D01*
X007950Y005350D01*
X008350Y005350D01*
X008350Y004350D01*
X008350Y004430D02*
X007950Y004430D01*
X007950Y004588D02*
X008350Y004588D01*
X008350Y004747D02*
X007950Y004747D01*
X007950Y004905D02*
X008350Y004905D01*
X008350Y005064D02*
X007950Y005064D01*
X007950Y005222D02*
X008350Y005222D01*
D13*
X008350Y006350D02*
X008350Y003350D01*
X010350Y003350D01*
X010350Y006350D01*
X008350Y006350D01*
X006461Y003575D02*
X006236Y003350D01*
X006536Y003350D01*
X006461Y003125D02*
X006461Y003575D01*
X006076Y003500D02*
X006076Y003425D01*
X006001Y003350D01*
X005851Y003350D01*
X005775Y003425D01*
X005775Y003500D01*
X005851Y003575D01*
X006001Y003575D01*
X006076Y003500D01*
X006001Y003350D02*
X006076Y003275D01*
X006076Y003200D01*
X006001Y003125D01*
X005851Y003125D01*
X005775Y003200D01*
X005775Y003275D01*
X005851Y003350D01*
X005615Y003575D02*
X005315Y003125D01*
X005080Y003125D02*
X005080Y003575D01*
X004855Y003350D01*
X005155Y003350D01*
X004695Y003350D02*
X004394Y003350D01*
X004619Y003575D01*
X004619Y003125D01*
X004234Y003575D02*
X003934Y003125D01*
X003699Y003125D02*
X003699Y003575D01*
X003473Y003350D01*
X003774Y003350D01*
X003313Y003425D02*
X003313Y003500D01*
X003238Y003575D01*
X003088Y003575D01*
X003013Y003500D01*
X002853Y003500D02*
X002853Y003575D01*
X002853Y003500D02*
X002703Y003350D01*
X002703Y003125D01*
X003013Y003125D02*
X003313Y003425D01*
X003313Y003125D02*
X003013Y003125D01*
X002703Y003350D02*
X002553Y003500D01*
X002553Y003575D01*
X002393Y003575D02*
X002393Y003125D01*
X002092Y003575D01*
X002092Y003125D01*
X001936Y003125D02*
X001785Y003125D01*
X001860Y003125D02*
X001860Y003575D01*
X001785Y003575D02*
X001936Y003575D01*
X001625Y003575D02*
X001325Y003575D01*
X001475Y003575D02*
X001475Y003125D01*
X008169Y001739D02*
X010531Y001739D01*
X010531Y001719D02*
X010531Y001483D01*
X009941Y001345D02*
X008759Y001345D01*
X008759Y000755D01*
X009941Y000755D01*
X009941Y001345D01*
X010531Y000617D02*
X010531Y000381D01*
X010531Y000361D02*
X008169Y000361D01*
X008169Y000381D02*
X008169Y000617D01*
X008169Y001483D02*
X008169Y001719D01*
D14*
X000350Y002200D02*
X000350Y002950D01*
X000389Y002952D01*
X000428Y002958D01*
X000466Y002967D01*
X000503Y002980D01*
X000539Y002997D01*
X000572Y003017D01*
X000604Y003041D01*
X000633Y003067D01*
X000659Y003096D01*
X000683Y003128D01*
X000703Y003161D01*
X000720Y003197D01*
X000733Y003234D01*
X000742Y003272D01*
X000748Y003311D01*
X000750Y003350D01*
X000748Y003389D01*
X000742Y003428D01*
X000733Y003466D01*
X000720Y003503D01*
X000703Y003539D01*
X000683Y003572D01*
X000659Y003604D01*
X000633Y003633D01*
X000604Y003659D01*
X000572Y003683D01*
X000539Y003703D01*
X000503Y003720D01*
X000466Y003733D01*
X000428Y003742D01*
X000389Y003748D01*
X000350Y003750D01*
X000350Y004500D01*
X007350Y004500D01*
X007350Y002200D01*
X000350Y002200D01*
M02*
