G75*
G70*
%OFA0B0*%
%FSLAX24Y24*%
%IPPOS*%
%LPD*%
%AMOC8*
5,1,8,0,0,1.08239X$1,22.5*
%
%ADD10R,0.0394X0.0433*%
%ADD11R,0.0433X0.0394*%
%ADD12C,0.0660*%
%ADD13R,0.0709X0.0630*%
%ADD14R,0.0787X0.0945*%
%ADD15C,0.0560*%
%ADD16C,0.0600*%
%ADD17C,0.0709*%
%ADD18C,0.0100*%
%ADD19C,0.0270*%
D10*
X000750Y003415D03*
X000750Y004085D03*
D11*
X002615Y002650D03*
X003285Y002650D03*
X004015Y002650D03*
X004685Y002650D03*
X005850Y002615D03*
X005850Y003285D03*
D12*
X008850Y003850D03*
X009850Y003850D03*
X009850Y004850D03*
X008850Y004850D03*
X008850Y005850D03*
X009850Y005850D03*
D13*
X001650Y003901D03*
X001650Y002799D03*
D14*
X002863Y003650D03*
X004437Y003650D03*
D15*
X004850Y004850D03*
X003850Y004850D03*
X002850Y004850D03*
X001850Y004850D03*
X000850Y004850D03*
X005850Y004850D03*
X006850Y004850D03*
X006850Y001850D03*
X005850Y001850D03*
X004850Y001850D03*
X003850Y001850D03*
X002850Y001850D03*
X001850Y001850D03*
X000850Y001850D03*
D16*
X000850Y000850D03*
X001850Y000850D03*
X002850Y000850D03*
X003850Y000850D03*
X004850Y000850D03*
X005850Y000850D03*
X006850Y000850D03*
X006850Y005850D03*
X005850Y005850D03*
X004850Y005850D03*
X003850Y005850D03*
X002850Y005850D03*
X001850Y005850D03*
X000850Y005850D03*
D17*
X007972Y001050D03*
X010728Y001050D03*
D18*
X010935Y000347D02*
X000665Y000347D01*
X000712Y000300D02*
X000300Y000712D01*
X000300Y005988D01*
X000712Y006400D01*
X010888Y006400D01*
X011300Y005988D01*
X011300Y000712D01*
X010888Y000300D01*
X000712Y000300D01*
X000760Y000400D02*
X000940Y000400D01*
X001105Y000469D01*
X001231Y000595D01*
X001300Y000760D01*
X001300Y000940D01*
X001231Y001105D01*
X001105Y001231D01*
X000940Y001300D01*
X000760Y001300D01*
X000595Y001231D01*
X000469Y001105D01*
X000400Y000940D01*
X000400Y000760D01*
X000469Y000595D01*
X000595Y000469D01*
X000760Y000400D01*
X000651Y000446D02*
X000567Y000446D01*
X000520Y000544D02*
X000468Y000544D01*
X000449Y000643D02*
X000370Y000643D01*
X000408Y000741D02*
X000300Y000741D01*
X000300Y000840D02*
X000400Y000840D01*
X000400Y000938D02*
X000300Y000938D01*
X000300Y001037D02*
X000440Y001037D01*
X000499Y001135D02*
X000300Y001135D01*
X000300Y001234D02*
X000600Y001234D01*
X000739Y001431D02*
X000300Y001431D01*
X000300Y001529D02*
X000563Y001529D01*
X000606Y001485D02*
X000485Y001606D01*
X000420Y001764D01*
X000420Y001936D01*
X000485Y002094D01*
X000550Y002158D01*
X000550Y003049D01*
X000491Y003049D01*
X000403Y003137D01*
X000403Y003694D01*
X000459Y003750D01*
X000433Y003776D01*
X000413Y003810D01*
X000403Y003848D01*
X000403Y004036D01*
X000702Y004036D01*
X000702Y004133D01*
X000403Y004133D01*
X000403Y004321D01*
X000413Y004359D01*
X000433Y004393D01*
X000461Y004421D01*
X000495Y004441D01*
X000533Y004451D01*
X000686Y004451D01*
X000685Y004452D01*
X000625Y004482D01*
X000570Y004522D01*
X000522Y004570D01*
X000482Y004625D01*
X000452Y004685D01*
X000431Y004749D01*
X000420Y004816D01*
X000420Y004820D01*
X000820Y004820D01*
X000820Y004880D01*
X000820Y005280D01*
X000816Y005280D01*
X000749Y005269D01*
X000685Y005248D01*
X000625Y005218D01*
X000570Y005178D01*
X000522Y005130D01*
X000482Y005075D01*
X000300Y005075D01*
X000300Y004977D02*
X000439Y004977D01*
X000431Y004951D02*
X000452Y005015D01*
X000482Y005075D01*
X000565Y005174D02*
X000300Y005174D01*
X000300Y005272D02*
X000766Y005272D01*
X000820Y005272D02*
X000880Y005272D01*
X000880Y005280D02*
X000880Y004880D01*
X000820Y004880D01*
X000420Y004880D01*
X000420Y004884D01*
X000431Y004951D01*
X000300Y004878D02*
X000820Y004878D01*
X000820Y004820D02*
X000880Y004820D01*
X000880Y004880D01*
X001280Y004880D01*
X001280Y004884D01*
X001269Y004951D01*
X001248Y005015D01*
X001218Y005075D01*
X001478Y005075D01*
X001485Y005094D02*
X001420Y004936D01*
X001420Y004764D01*
X001485Y004606D01*
X001606Y004485D01*
X001764Y004420D01*
X001936Y004420D01*
X002094Y004485D01*
X002215Y004606D01*
X002280Y004764D01*
X002280Y004936D01*
X002215Y005094D01*
X002094Y005215D01*
X001936Y005280D01*
X001764Y005280D01*
X001606Y005215D01*
X001485Y005094D01*
X001565Y005174D02*
X001135Y005174D01*
X001130Y005178D02*
X001075Y005218D01*
X001015Y005248D01*
X000951Y005269D01*
X000884Y005280D01*
X000880Y005280D01*
X000934Y005272D02*
X001745Y005272D01*
X001955Y005272D02*
X002745Y005272D01*
X002764Y005280D02*
X002606Y005215D01*
X002485Y005094D01*
X002420Y004936D01*
X002420Y004764D01*
X002485Y004606D01*
X002542Y004550D01*
X002167Y004550D01*
X002050Y004433D01*
X001983Y004366D01*
X001234Y004366D01*
X001146Y004278D01*
X001146Y003988D01*
X001097Y003949D01*
X001097Y004036D01*
X000798Y004036D01*
X000798Y004133D01*
X001097Y004133D01*
X001097Y004321D01*
X001087Y004359D01*
X001067Y004393D01*
X001039Y004421D01*
X001005Y004441D01*
X000993Y004444D01*
X001015Y004452D01*
X001075Y004482D01*
X001130Y004522D01*
X001178Y004570D01*
X001218Y004625D01*
X001248Y004685D01*
X001269Y004749D01*
X001280Y004816D01*
X001280Y004820D01*
X000880Y004820D01*
X000880Y004451D01*
X000820Y004451D01*
X000820Y004820D01*
X000820Y004780D02*
X000880Y004780D01*
X000880Y004878D02*
X001420Y004878D01*
X001420Y004780D02*
X001274Y004780D01*
X001246Y004681D02*
X001455Y004681D01*
X001509Y004583D02*
X001187Y004583D01*
X001078Y004484D02*
X001610Y004484D01*
X002003Y004386D02*
X001071Y004386D01*
X001097Y004287D02*
X001154Y004287D01*
X001146Y004189D02*
X001097Y004189D01*
X001146Y004090D02*
X000798Y004090D01*
X000702Y004090D02*
X000300Y004090D01*
X000300Y004189D02*
X000403Y004189D01*
X000403Y004287D02*
X000300Y004287D01*
X000300Y004386D02*
X000429Y004386D01*
X000300Y004484D02*
X000622Y004484D01*
X000513Y004583D02*
X000300Y004583D01*
X000300Y004681D02*
X000454Y004681D01*
X000426Y004780D02*
X000300Y004780D01*
X000820Y004681D02*
X000880Y004681D01*
X000880Y004583D02*
X000820Y004583D01*
X000820Y004484D02*
X000880Y004484D01*
X001097Y003992D02*
X001146Y003992D01*
X001406Y003941D02*
X000750Y003415D01*
X000750Y001950D01*
X000850Y001850D01*
X001244Y002022D02*
X001456Y002022D01*
X001485Y002094D02*
X001420Y001936D01*
X001420Y001764D01*
X001485Y001606D01*
X001606Y001485D01*
X001764Y001420D01*
X001936Y001420D01*
X002094Y001485D01*
X002215Y001606D01*
X002280Y001764D01*
X002280Y001797D01*
X002350Y001867D01*
X002421Y001938D01*
X002420Y001936D01*
X002420Y001764D01*
X002485Y001606D01*
X002606Y001485D01*
X002764Y001420D01*
X002936Y001420D01*
X003094Y001485D01*
X003215Y001606D01*
X003280Y001764D01*
X003280Y001936D01*
X003215Y002094D01*
X003094Y002215D01*
X002936Y002280D01*
X002764Y002280D01*
X002762Y002279D01*
X002786Y002303D01*
X002894Y002303D01*
X002950Y002359D01*
X002976Y002333D01*
X003010Y002313D01*
X003048Y002303D01*
X003236Y002303D01*
X003236Y002602D01*
X003333Y002602D01*
X003333Y002303D01*
X003521Y002303D01*
X003559Y002313D01*
X003593Y002333D01*
X003621Y002361D01*
X003637Y002388D01*
X003662Y002378D01*
X003737Y002303D01*
X004294Y002303D01*
X004350Y002359D01*
X004376Y002333D01*
X004410Y002313D01*
X004448Y002303D01*
X004636Y002303D01*
X004636Y002602D01*
X004733Y002602D01*
X004733Y002698D01*
X005051Y002698D01*
X005051Y002867D01*
X005041Y002905D01*
X005021Y002939D01*
X004993Y002967D01*
X004959Y002987D01*
X004921Y002997D01*
X004733Y002997D01*
X004733Y002698D01*
X004636Y002698D01*
X004636Y002997D01*
X004448Y002997D01*
X004410Y002987D01*
X004376Y002967D01*
X004350Y002941D01*
X004337Y002954D01*
X004410Y003028D01*
X004893Y003028D01*
X004981Y003115D01*
X004981Y004136D01*
X005050Y004067D01*
X005050Y003467D01*
X005167Y003350D01*
X005433Y003085D01*
X005483Y003085D01*
X005483Y003026D01*
X005559Y002950D01*
X005533Y002924D01*
X005507Y002935D01*
X005393Y002935D01*
X005289Y002892D01*
X005208Y002811D01*
X005165Y002707D01*
X005165Y002593D01*
X005208Y002489D01*
X005289Y002408D01*
X005393Y002365D01*
X005483Y002365D01*
X005483Y002356D01*
X005571Y002269D01*
X005737Y002269D01*
X005606Y002215D01*
X005485Y002094D01*
X005420Y001936D01*
X005420Y001764D01*
X005485Y001606D01*
X005606Y001485D01*
X005764Y001420D01*
X005936Y001420D01*
X006094Y001485D01*
X006215Y001606D01*
X006280Y001764D01*
X006280Y001936D01*
X006215Y002094D01*
X006094Y002215D01*
X005963Y002269D01*
X006129Y002269D01*
X006217Y002356D01*
X006217Y002415D01*
X007033Y002415D01*
X007772Y001676D01*
X007772Y001513D01*
X007686Y001478D01*
X007544Y001336D01*
X007468Y001150D01*
X007468Y000950D01*
X007544Y000764D01*
X007686Y000622D01*
X007872Y000546D01*
X008072Y000546D01*
X008258Y000622D01*
X008400Y000764D01*
X008476Y000950D01*
X008476Y001150D01*
X008400Y001336D01*
X008258Y001478D01*
X008172Y001513D01*
X008172Y001842D01*
X007398Y002615D01*
X008419Y003636D01*
X008443Y003578D01*
X008578Y003443D01*
X008755Y003370D01*
X008945Y003370D01*
X009122Y003443D01*
X009257Y003578D01*
X009330Y003755D01*
X009330Y003945D01*
X009257Y004122D01*
X009229Y004150D01*
X009233Y004150D01*
X009433Y004350D01*
X009550Y004467D01*
X009550Y004471D01*
X009578Y004443D01*
X009755Y004370D01*
X009945Y004370D01*
X010122Y004443D01*
X010257Y004578D01*
X010330Y004755D01*
X010330Y004945D01*
X010257Y005122D01*
X010122Y005257D01*
X009945Y005330D01*
X009755Y005330D01*
X009578Y005257D01*
X009550Y005229D01*
X009550Y005267D01*
X009683Y005400D01*
X009755Y005370D01*
X009945Y005370D01*
X010122Y005443D01*
X010257Y005578D01*
X010330Y005755D01*
X010330Y005945D01*
X010257Y006122D01*
X010122Y006257D01*
X009945Y006330D01*
X009755Y006330D01*
X009578Y006257D01*
X009443Y006122D01*
X009370Y005945D01*
X009370Y005755D01*
X009400Y005683D01*
X009150Y005433D01*
X009150Y005229D01*
X009122Y005257D01*
X008945Y005330D01*
X008755Y005330D01*
X008578Y005257D01*
X008443Y005122D01*
X008370Y004945D01*
X008370Y004755D01*
X008443Y004578D01*
X008471Y004550D01*
X008067Y004550D01*
X007950Y004433D01*
X007002Y003485D01*
X006217Y003485D01*
X006217Y003544D01*
X006129Y003631D01*
X005571Y003631D01*
X005511Y003572D01*
X005450Y003633D01*
X005450Y004233D01*
X005333Y004350D01*
X005145Y004537D01*
X005215Y004606D01*
X005280Y004764D01*
X005280Y004936D01*
X005215Y005094D01*
X005094Y005215D01*
X004936Y005280D01*
X004764Y005280D01*
X004606Y005215D01*
X004485Y005094D01*
X004420Y004936D01*
X004420Y004764D01*
X004485Y004606D01*
X004542Y004550D01*
X004158Y004550D01*
X004215Y004606D01*
X004280Y004764D01*
X004280Y004936D01*
X004215Y005094D01*
X004094Y005215D01*
X003936Y005280D01*
X003764Y005280D01*
X003606Y005215D01*
X003485Y005094D01*
X003420Y004936D01*
X003420Y004764D01*
X003485Y004606D01*
X003542Y004550D01*
X003158Y004550D01*
X003215Y004606D01*
X003280Y004764D01*
X003280Y004936D01*
X003215Y005094D01*
X003094Y005215D01*
X002936Y005280D01*
X002764Y005280D01*
X002565Y005174D02*
X002135Y005174D01*
X002222Y005075D02*
X002478Y005075D01*
X002437Y004977D02*
X002263Y004977D01*
X002280Y004878D02*
X002420Y004878D01*
X002420Y004780D02*
X002280Y004780D01*
X002245Y004681D02*
X002455Y004681D01*
X002509Y004583D02*
X002191Y004583D01*
X002101Y004484D02*
X002090Y004484D01*
X002250Y004350D02*
X005050Y004350D01*
X005250Y004150D01*
X005250Y003550D01*
X005515Y003285D01*
X005850Y003285D01*
X007085Y003285D01*
X008150Y004350D01*
X009150Y004350D01*
X009350Y004550D01*
X009350Y005350D01*
X009850Y005850D01*
X009417Y006060D02*
X009283Y006060D01*
X009257Y006122D02*
X009122Y006257D01*
X008945Y006330D01*
X008755Y006330D01*
X008578Y006257D01*
X008443Y006122D01*
X008370Y005945D01*
X008370Y005755D01*
X008443Y005578D01*
X008578Y005443D01*
X008755Y005370D01*
X008945Y005370D01*
X009122Y005443D01*
X009257Y005578D01*
X009330Y005755D01*
X009330Y005945D01*
X009257Y006122D01*
X009220Y006159D02*
X009480Y006159D01*
X009578Y006257D02*
X009122Y006257D01*
X009323Y005962D02*
X009377Y005962D01*
X009370Y005863D02*
X009330Y005863D01*
X009330Y005765D02*
X009370Y005765D01*
X009383Y005666D02*
X009293Y005666D01*
X009285Y005568D02*
X009246Y005568D01*
X009186Y005469D02*
X009148Y005469D01*
X009150Y005371D02*
X008947Y005371D01*
X009085Y005272D02*
X009150Y005272D01*
X008753Y005371D02*
X000300Y005371D01*
X000300Y005469D02*
X000609Y005469D01*
X000614Y005465D02*
X000677Y005433D01*
X000745Y005411D01*
X000800Y005402D01*
X000800Y005800D01*
X000900Y005800D01*
X000900Y005900D01*
X001298Y005900D01*
X001289Y005955D01*
X001267Y006023D01*
X001235Y006086D01*
X001193Y006143D01*
X001143Y006193D01*
X001086Y006235D01*
X001023Y006267D01*
X000955Y006289D01*
X000900Y006298D01*
X000900Y005900D01*
X000800Y005900D01*
X000800Y006298D01*
X000745Y006289D01*
X000677Y006267D01*
X000614Y006235D01*
X000557Y006193D01*
X000507Y006143D01*
X000465Y006086D01*
X000433Y006023D01*
X000411Y005955D01*
X000402Y005900D01*
X000800Y005900D01*
X000800Y005800D01*
X000402Y005800D01*
X000411Y005745D01*
X000433Y005677D01*
X000465Y005614D01*
X000507Y005557D01*
X000557Y005507D01*
X000614Y005465D01*
X000800Y005469D02*
X000900Y005469D01*
X000900Y005402D02*
X000955Y005411D01*
X001023Y005433D01*
X001086Y005465D01*
X001143Y005507D01*
X001193Y005557D01*
X001235Y005614D01*
X001267Y005677D01*
X001289Y005745D01*
X001298Y005800D01*
X000900Y005800D01*
X000900Y005402D01*
X001091Y005469D02*
X001595Y005469D01*
X001760Y005400D01*
X001940Y005400D01*
X002105Y005469D01*
X002595Y005469D01*
X002760Y005400D01*
X002940Y005400D01*
X003105Y005469D01*
X003595Y005469D01*
X003760Y005400D01*
X003940Y005400D01*
X004105Y005469D01*
X004595Y005469D01*
X004760Y005400D01*
X004940Y005400D01*
X005105Y005469D01*
X005595Y005469D01*
X005760Y005400D01*
X005940Y005400D01*
X006105Y005469D01*
X006595Y005469D01*
X006760Y005400D01*
X006940Y005400D01*
X007105Y005469D01*
X008552Y005469D01*
X008454Y005568D02*
X007204Y005568D01*
X007231Y005595D02*
X007300Y005760D01*
X007300Y005940D01*
X007231Y006105D01*
X007105Y006231D01*
X006940Y006300D01*
X006760Y006300D01*
X006595Y006231D01*
X006469Y006105D01*
X006400Y005940D01*
X006400Y005760D01*
X006469Y005595D01*
X006595Y005469D01*
X006496Y005568D02*
X006204Y005568D01*
X006231Y005595D02*
X006300Y005760D01*
X006300Y005940D01*
X006231Y006105D01*
X006105Y006231D01*
X005940Y006300D01*
X005760Y006300D01*
X005595Y006231D01*
X005469Y006105D01*
X005400Y005940D01*
X005400Y005760D01*
X005469Y005595D01*
X005595Y005469D01*
X005496Y005568D02*
X005204Y005568D01*
X005231Y005595D02*
X005300Y005760D01*
X005300Y005940D01*
X005231Y006105D01*
X005105Y006231D01*
X004940Y006300D01*
X004760Y006300D01*
X004595Y006231D01*
X004469Y006105D01*
X004400Y005940D01*
X004400Y005760D01*
X004469Y005595D01*
X004595Y005469D01*
X004496Y005568D02*
X004204Y005568D01*
X004231Y005595D02*
X004300Y005760D01*
X004300Y005940D01*
X004231Y006105D01*
X004105Y006231D01*
X003940Y006300D01*
X003760Y006300D01*
X003595Y006231D01*
X003469Y006105D01*
X003400Y005940D01*
X003400Y005760D01*
X003469Y005595D01*
X003595Y005469D01*
X003496Y005568D02*
X003204Y005568D01*
X003231Y005595D02*
X003300Y005760D01*
X003300Y005940D01*
X003231Y006105D01*
X003105Y006231D01*
X002940Y006300D01*
X002760Y006300D01*
X002595Y006231D01*
X002469Y006105D01*
X002400Y005940D01*
X002400Y005760D01*
X002469Y005595D01*
X002595Y005469D01*
X002496Y005568D02*
X002204Y005568D01*
X002231Y005595D02*
X002300Y005760D01*
X002300Y005940D01*
X002231Y006105D01*
X002105Y006231D01*
X001940Y006300D01*
X001760Y006300D01*
X001595Y006231D01*
X001469Y006105D01*
X001400Y005940D01*
X001400Y005760D01*
X001469Y005595D01*
X001595Y005469D01*
X001496Y005568D02*
X001201Y005568D01*
X001261Y005666D02*
X001439Y005666D01*
X001400Y005765D02*
X001292Y005765D01*
X001400Y005863D02*
X000900Y005863D01*
X000900Y005765D02*
X000800Y005765D01*
X000800Y005863D02*
X000300Y005863D01*
X000300Y005765D02*
X000408Y005765D01*
X000439Y005666D02*
X000300Y005666D01*
X000300Y005568D02*
X000499Y005568D01*
X000800Y005568D02*
X000900Y005568D01*
X000900Y005666D02*
X000800Y005666D01*
X000800Y005962D02*
X000900Y005962D01*
X000900Y006060D02*
X000800Y006060D01*
X000800Y006159D02*
X000900Y006159D01*
X000900Y006257D02*
X000800Y006257D01*
X000658Y006257D02*
X000569Y006257D01*
X000668Y006356D02*
X010932Y006356D01*
X011031Y006257D02*
X010122Y006257D01*
X010220Y006159D02*
X011129Y006159D01*
X011228Y006060D02*
X010283Y006060D01*
X010323Y005962D02*
X011300Y005962D01*
X011300Y005863D02*
X010330Y005863D01*
X010330Y005765D02*
X011300Y005765D01*
X011300Y005666D02*
X010293Y005666D01*
X010246Y005568D02*
X011300Y005568D01*
X011300Y005469D02*
X010148Y005469D01*
X009947Y005371D02*
X011300Y005371D01*
X011300Y005272D02*
X010085Y005272D01*
X010205Y005174D02*
X011300Y005174D01*
X011300Y005075D02*
X010276Y005075D01*
X010317Y004977D02*
X011300Y004977D01*
X011300Y004878D02*
X010330Y004878D01*
X010330Y004780D02*
X011300Y004780D01*
X011300Y004681D02*
X010300Y004681D01*
X010259Y004583D02*
X011300Y004583D01*
X011300Y004484D02*
X010163Y004484D01*
X009983Y004386D02*
X011300Y004386D01*
X011300Y004287D02*
X010050Y004287D01*
X010034Y004295D02*
X009962Y004318D01*
X009900Y004328D01*
X009900Y003900D01*
X009800Y003900D01*
X009800Y004328D01*
X009738Y004318D01*
X009666Y004295D01*
X009598Y004261D01*
X009537Y004216D01*
X009484Y004163D01*
X009439Y004102D01*
X009405Y004034D01*
X009382Y003962D01*
X009372Y003900D01*
X009800Y003900D01*
X009800Y003800D01*
X009372Y003800D01*
X009382Y003738D01*
X009405Y003666D01*
X009439Y003598D01*
X009484Y003537D01*
X009537Y003484D01*
X009598Y003439D01*
X009666Y003405D01*
X009738Y003382D01*
X009800Y003372D01*
X009800Y003800D01*
X009900Y003800D01*
X009900Y003900D01*
X010328Y003900D01*
X010318Y003962D01*
X010295Y004034D01*
X010261Y004102D01*
X010216Y004163D01*
X010163Y004216D01*
X010102Y004261D01*
X010034Y004295D01*
X009900Y004287D02*
X009800Y004287D01*
X009800Y004189D02*
X009900Y004189D01*
X009900Y004090D02*
X009800Y004090D01*
X009800Y003992D02*
X009900Y003992D01*
X009900Y003893D02*
X011300Y003893D01*
X011300Y003992D02*
X010309Y003992D01*
X010266Y004090D02*
X011300Y004090D01*
X011300Y004189D02*
X010190Y004189D01*
X009800Y003893D02*
X009330Y003893D01*
X009311Y003992D02*
X009391Y003992D01*
X009434Y004090D02*
X009270Y004090D01*
X009271Y004189D02*
X009510Y004189D01*
X009370Y004287D02*
X009650Y004287D01*
X009717Y004386D02*
X009468Y004386D01*
X008850Y003850D02*
X008350Y003850D01*
X007115Y002615D01*
X007972Y001759D01*
X007972Y001050D01*
X007502Y001234D02*
X007100Y001234D01*
X007105Y001231D02*
X006940Y001300D01*
X006760Y001300D01*
X006595Y001231D01*
X006469Y001105D01*
X006400Y000940D01*
X006400Y000760D01*
X006469Y000595D01*
X006595Y000469D01*
X006760Y000400D01*
X006940Y000400D01*
X007105Y000469D01*
X007231Y000595D01*
X007300Y000760D01*
X007300Y000940D01*
X007231Y001105D01*
X007105Y001231D01*
X007201Y001135D02*
X007468Y001135D01*
X007468Y001037D02*
X007260Y001037D01*
X007300Y000938D02*
X007473Y000938D01*
X007513Y000840D02*
X007300Y000840D01*
X007292Y000741D02*
X007568Y000741D01*
X007666Y000643D02*
X007251Y000643D01*
X007180Y000544D02*
X011132Y000544D01*
X011230Y000643D02*
X011025Y000643D01*
X011057Y000665D02*
X011113Y000721D01*
X011159Y000786D01*
X011195Y000856D01*
X011220Y000932D01*
X011231Y001000D01*
X010778Y001000D01*
X010778Y001100D01*
X011231Y001100D01*
X011220Y001168D01*
X011195Y001244D01*
X011159Y001314D01*
X011113Y001379D01*
X011057Y001435D01*
X010992Y001481D01*
X010922Y001517D01*
X010846Y001542D01*
X010778Y001553D01*
X010778Y001100D01*
X010678Y001100D01*
X010678Y001553D01*
X010610Y001542D01*
X010534Y001517D01*
X010464Y001481D01*
X010399Y001435D01*
X010343Y001379D01*
X010297Y001314D01*
X010261Y001244D01*
X010236Y001168D01*
X010225Y001100D01*
X010678Y001100D01*
X010678Y001000D01*
X010778Y001000D01*
X010778Y000547D01*
X010846Y000558D01*
X010922Y000583D01*
X010992Y000619D01*
X011057Y000665D01*
X011127Y000741D02*
X011300Y000741D01*
X011300Y000840D02*
X011187Y000840D01*
X011221Y000938D02*
X011300Y000938D01*
X011300Y001037D02*
X010778Y001037D01*
X010778Y001135D02*
X010678Y001135D01*
X010678Y001037D02*
X008476Y001037D01*
X008476Y001135D02*
X010231Y001135D01*
X010257Y001234D02*
X008442Y001234D01*
X008401Y001332D02*
X010309Y001332D01*
X010395Y001431D02*
X008305Y001431D01*
X008172Y001529D02*
X010570Y001529D01*
X010678Y001529D02*
X010778Y001529D01*
X010778Y001431D02*
X010678Y001431D01*
X010886Y001529D02*
X011300Y001529D01*
X011300Y001431D02*
X011061Y001431D01*
X011146Y001332D02*
X011300Y001332D01*
X011300Y001234D02*
X011199Y001234D01*
X011225Y001135D02*
X011300Y001135D01*
X010778Y001234D02*
X010678Y001234D01*
X010678Y001332D02*
X010778Y001332D01*
X010678Y001000D02*
X010225Y001000D01*
X010236Y000932D01*
X010261Y000856D01*
X010297Y000786D01*
X010343Y000721D01*
X010399Y000665D01*
X010464Y000619D01*
X010534Y000583D01*
X010610Y000558D01*
X010678Y000547D01*
X010678Y001000D01*
X010678Y000938D02*
X010778Y000938D01*
X010778Y000840D02*
X010678Y000840D01*
X010678Y000741D02*
X010778Y000741D01*
X010778Y000643D02*
X010678Y000643D01*
X010431Y000643D02*
X008278Y000643D01*
X008376Y000741D02*
X010329Y000741D01*
X010269Y000840D02*
X008431Y000840D01*
X008472Y000938D02*
X010235Y000938D01*
X011033Y000446D02*
X007049Y000446D01*
X006651Y000446D02*
X006049Y000446D01*
X006105Y000469D02*
X006231Y000595D01*
X006300Y000760D01*
X006300Y000940D01*
X006231Y001105D01*
X006105Y001231D01*
X005940Y001300D01*
X005760Y001300D01*
X005595Y001231D01*
X005469Y001105D01*
X005400Y000940D01*
X005400Y000760D01*
X005469Y000595D01*
X005595Y000469D01*
X005760Y000400D01*
X005940Y000400D01*
X006105Y000469D01*
X006180Y000544D02*
X006520Y000544D01*
X006449Y000643D02*
X006251Y000643D01*
X006292Y000741D02*
X006408Y000741D01*
X006400Y000840D02*
X006300Y000840D01*
X006300Y000938D02*
X006400Y000938D01*
X006440Y001037D02*
X006260Y001037D01*
X006201Y001135D02*
X006499Y001135D01*
X006600Y001234D02*
X006100Y001234D01*
X005961Y001431D02*
X006739Y001431D01*
X006764Y001420D02*
X006936Y001420D01*
X007094Y001485D01*
X007215Y001606D01*
X007280Y001764D01*
X007280Y001936D01*
X007215Y002094D01*
X007094Y002215D01*
X006936Y002280D01*
X006764Y002280D01*
X006606Y002215D01*
X006485Y002094D01*
X006420Y001936D01*
X006420Y001764D01*
X006485Y001606D01*
X006606Y001485D01*
X006764Y001420D01*
X006961Y001431D02*
X007639Y001431D01*
X007543Y001332D02*
X000300Y001332D01*
X000606Y001485D02*
X000764Y001420D01*
X000936Y001420D01*
X001094Y001485D01*
X001215Y001606D01*
X001280Y001764D01*
X001280Y001936D01*
X001215Y002094D01*
X001094Y002215D01*
X000950Y002274D01*
X000950Y003049D01*
X001009Y003049D01*
X001097Y003137D01*
X001097Y003437D01*
X001172Y003497D01*
X001234Y003436D01*
X002066Y003436D01*
X002154Y003524D01*
X002154Y003971D01*
X002319Y004136D01*
X002319Y003115D01*
X002407Y003028D01*
X002415Y003028D01*
X002415Y002997D01*
X002337Y002997D01*
X002249Y002909D01*
X002249Y002391D01*
X002278Y002361D01*
X002113Y002195D01*
X002094Y002215D01*
X001936Y002280D01*
X001764Y002280D01*
X001606Y002215D01*
X001485Y002094D01*
X001512Y002120D02*
X001188Y002120D01*
X001084Y002219D02*
X001616Y002219D01*
X001600Y002334D02*
X001600Y002749D01*
X001146Y002749D01*
X001146Y002464D01*
X001156Y002426D01*
X001176Y002392D01*
X001204Y002364D01*
X001238Y002344D01*
X001276Y002334D01*
X001600Y002334D01*
X001700Y002334D02*
X002024Y002334D01*
X002062Y002344D01*
X002096Y002364D01*
X002124Y002392D01*
X002144Y002426D01*
X002154Y002464D01*
X002154Y002749D01*
X001700Y002749D01*
X001700Y002849D01*
X001600Y002849D01*
X001600Y003264D01*
X001276Y003264D01*
X001238Y003254D01*
X001204Y003234D01*
X001176Y003206D01*
X001156Y003172D01*
X001146Y003134D01*
X001146Y002849D01*
X001600Y002849D01*
X001600Y002749D01*
X001700Y002749D01*
X001700Y002334D01*
X001700Y002416D02*
X001600Y002416D01*
X001600Y002514D02*
X001700Y002514D01*
X001700Y002613D02*
X001600Y002613D01*
X001600Y002711D02*
X001700Y002711D01*
X001700Y002810D02*
X002249Y002810D01*
X002249Y002711D02*
X002154Y002711D01*
X002154Y002613D02*
X002249Y002613D01*
X002249Y002514D02*
X002154Y002514D01*
X002138Y002416D02*
X002249Y002416D01*
X002234Y002317D02*
X000950Y002317D01*
X000950Y002416D02*
X001162Y002416D01*
X001146Y002514D02*
X000950Y002514D01*
X000950Y002613D02*
X001146Y002613D01*
X001146Y002711D02*
X000950Y002711D01*
X000950Y002810D02*
X001600Y002810D01*
X001700Y002849D02*
X001700Y003264D01*
X002024Y003264D01*
X002062Y003254D01*
X002096Y003234D01*
X002124Y003206D01*
X002144Y003172D01*
X002154Y003134D01*
X002154Y002849D01*
X001700Y002849D01*
X001700Y002908D02*
X001600Y002908D01*
X001600Y003007D02*
X001700Y003007D01*
X001700Y003105D02*
X001600Y003105D01*
X001600Y003204D02*
X001700Y003204D01*
X002126Y003204D02*
X002319Y003204D01*
X002329Y003105D02*
X002154Y003105D01*
X002154Y003007D02*
X002415Y003007D01*
X002249Y002908D02*
X002154Y002908D01*
X002615Y002650D02*
X002615Y002415D01*
X002150Y001950D01*
X001950Y001950D01*
X001850Y001850D01*
X001420Y001825D02*
X001280Y001825D01*
X001280Y001923D02*
X001420Y001923D01*
X001436Y001726D02*
X001264Y001726D01*
X001223Y001628D02*
X001477Y001628D01*
X001563Y001529D02*
X001137Y001529D01*
X000961Y001431D02*
X001739Y001431D01*
X001760Y001300D02*
X001595Y001231D01*
X001469Y001105D01*
X001400Y000940D01*
X001400Y000760D01*
X001469Y000595D01*
X001595Y000469D01*
X001760Y000400D01*
X001940Y000400D01*
X002105Y000469D01*
X002231Y000595D01*
X002300Y000760D01*
X002300Y000940D01*
X002231Y001105D01*
X002105Y001231D01*
X001940Y001300D01*
X001760Y001300D01*
X001600Y001234D02*
X001100Y001234D01*
X001201Y001135D02*
X001499Y001135D01*
X001440Y001037D02*
X001260Y001037D01*
X001300Y000938D02*
X001400Y000938D01*
X001400Y000840D02*
X001300Y000840D01*
X001292Y000741D02*
X001408Y000741D01*
X001449Y000643D02*
X001251Y000643D01*
X001180Y000544D02*
X001520Y000544D01*
X001651Y000446D02*
X001049Y000446D01*
X002049Y000446D02*
X002651Y000446D01*
X002595Y000469D02*
X002760Y000400D01*
X002940Y000400D01*
X003105Y000469D01*
X003231Y000595D01*
X003300Y000760D01*
X003300Y000940D01*
X003231Y001105D01*
X003105Y001231D01*
X002940Y001300D01*
X002760Y001300D01*
X002595Y001231D01*
X002469Y001105D01*
X002400Y000940D01*
X002400Y000760D01*
X002469Y000595D01*
X002595Y000469D01*
X002520Y000544D02*
X002180Y000544D01*
X002251Y000643D02*
X002449Y000643D01*
X002408Y000741D02*
X002292Y000741D01*
X002300Y000840D02*
X002400Y000840D01*
X002400Y000938D02*
X002300Y000938D01*
X002260Y001037D02*
X002440Y001037D01*
X002499Y001135D02*
X002201Y001135D01*
X002100Y001234D02*
X002600Y001234D01*
X002739Y001431D02*
X001961Y001431D01*
X002137Y001529D02*
X002563Y001529D01*
X002477Y001628D02*
X002223Y001628D01*
X002264Y001726D02*
X002436Y001726D01*
X002420Y001825D02*
X002307Y001825D01*
X002406Y001923D02*
X002420Y001923D01*
X002136Y002219D02*
X002084Y002219D01*
X002615Y002650D02*
X002615Y003403D01*
X002863Y003650D01*
X003406Y003696D02*
X003894Y003696D01*
X003894Y003795D02*
X003406Y003795D01*
X003406Y003893D02*
X003894Y003893D01*
X003894Y003992D02*
X003406Y003992D01*
X003406Y004090D02*
X003894Y004090D01*
X003894Y004150D02*
X003894Y003115D01*
X003913Y003096D01*
X003815Y002998D01*
X003815Y002997D01*
X003737Y002997D01*
X003662Y002922D01*
X003637Y002912D01*
X003621Y002939D01*
X003593Y002967D01*
X003559Y002987D01*
X003521Y002997D01*
X003333Y002997D01*
X003333Y002698D01*
X003236Y002698D01*
X003236Y002997D01*
X003048Y002997D01*
X003010Y002987D01*
X002976Y002967D01*
X002950Y002941D01*
X002894Y002997D01*
X002815Y002997D01*
X002815Y003028D01*
X003318Y003028D01*
X003406Y003115D01*
X003406Y004150D01*
X003894Y004150D01*
X004191Y004583D02*
X004509Y004583D01*
X004455Y004681D02*
X004245Y004681D01*
X004280Y004780D02*
X004420Y004780D01*
X004420Y004878D02*
X004280Y004878D01*
X004263Y004977D02*
X004437Y004977D01*
X004478Y005075D02*
X004222Y005075D01*
X004135Y005174D02*
X004565Y005174D01*
X004745Y005272D02*
X003955Y005272D01*
X003745Y005272D02*
X002955Y005272D01*
X003135Y005174D02*
X003565Y005174D01*
X003478Y005075D02*
X003222Y005075D01*
X003263Y004977D02*
X003437Y004977D01*
X003420Y004878D02*
X003280Y004878D01*
X003280Y004780D02*
X003420Y004780D01*
X003455Y004681D02*
X003245Y004681D01*
X003191Y004583D02*
X003509Y004583D01*
X002250Y004350D02*
X001841Y003941D01*
X001650Y003901D01*
X001406Y003941D01*
X002154Y003893D02*
X002319Y003893D01*
X002319Y003992D02*
X002174Y003992D01*
X002273Y004090D02*
X002319Y004090D01*
X002319Y003795D02*
X002154Y003795D01*
X002154Y003696D02*
X002319Y003696D01*
X002319Y003598D02*
X002154Y003598D01*
X002129Y003499D02*
X002319Y003499D01*
X002319Y003401D02*
X001097Y003401D01*
X001097Y003302D02*
X002319Y003302D01*
X002815Y003007D02*
X003824Y003007D01*
X003904Y003105D02*
X003396Y003105D01*
X003406Y003204D02*
X003894Y003204D01*
X003894Y003302D02*
X003406Y003302D01*
X003406Y003401D02*
X003894Y003401D01*
X003894Y003499D02*
X003406Y003499D01*
X003406Y003598D02*
X003894Y003598D01*
X004350Y003563D02*
X004437Y003650D01*
X004350Y003563D02*
X004350Y003250D01*
X004015Y002915D01*
X004015Y002650D01*
X003750Y002650D01*
X003333Y002711D02*
X003236Y002711D01*
X003236Y002810D02*
X003333Y002810D01*
X003333Y002908D02*
X003236Y002908D01*
X003236Y002514D02*
X003333Y002514D01*
X003333Y002416D02*
X003236Y002416D01*
X003236Y002317D02*
X003333Y002317D01*
X003565Y002317D02*
X003723Y002317D01*
X003764Y002280D02*
X003606Y002215D01*
X003485Y002094D01*
X003420Y001936D01*
X003420Y001764D01*
X003485Y001606D01*
X003606Y001485D01*
X003764Y001420D01*
X003936Y001420D01*
X004094Y001485D01*
X004215Y001606D01*
X004280Y001764D01*
X004280Y001936D01*
X004215Y002094D01*
X004094Y002215D01*
X003936Y002280D01*
X003764Y002280D01*
X003616Y002219D02*
X003084Y002219D01*
X003004Y002317D02*
X002908Y002317D01*
X003188Y002120D02*
X003512Y002120D01*
X003456Y002022D02*
X003244Y002022D01*
X003280Y001923D02*
X003420Y001923D01*
X003420Y001825D02*
X003280Y001825D01*
X003264Y001726D02*
X003436Y001726D01*
X003477Y001628D02*
X003223Y001628D01*
X003137Y001529D02*
X003563Y001529D01*
X003739Y001431D02*
X002961Y001431D01*
X003100Y001234D02*
X003600Y001234D01*
X003595Y001231D02*
X003760Y001300D01*
X003940Y001300D01*
X004105Y001231D01*
X004231Y001105D01*
X004300Y000940D01*
X004300Y000760D01*
X004231Y000595D01*
X004105Y000469D01*
X003940Y000400D01*
X003760Y000400D01*
X003595Y000469D01*
X003469Y000595D01*
X003400Y000760D01*
X003400Y000940D01*
X003469Y001105D01*
X003595Y001231D01*
X003499Y001135D02*
X003201Y001135D01*
X003260Y001037D02*
X003440Y001037D01*
X003400Y000938D02*
X003300Y000938D01*
X003300Y000840D02*
X003400Y000840D01*
X003408Y000741D02*
X003292Y000741D01*
X003251Y000643D02*
X003449Y000643D01*
X003520Y000544D02*
X003180Y000544D01*
X003049Y000446D02*
X003651Y000446D01*
X004049Y000446D02*
X004651Y000446D01*
X004595Y000469D02*
X004760Y000400D01*
X004940Y000400D01*
X005105Y000469D01*
X005231Y000595D01*
X005300Y000760D01*
X005300Y000940D01*
X005231Y001105D01*
X005105Y001231D01*
X004940Y001300D01*
X004760Y001300D01*
X004595Y001231D01*
X004469Y001105D01*
X004400Y000940D01*
X004400Y000760D01*
X004469Y000595D01*
X004595Y000469D01*
X004520Y000544D02*
X004180Y000544D01*
X004251Y000643D02*
X004449Y000643D01*
X004408Y000741D02*
X004292Y000741D01*
X004300Y000840D02*
X004400Y000840D01*
X004400Y000938D02*
X004300Y000938D01*
X004260Y001037D02*
X004440Y001037D01*
X004499Y001135D02*
X004201Y001135D01*
X004100Y001234D02*
X004600Y001234D01*
X004739Y001431D02*
X003961Y001431D01*
X004137Y001529D02*
X004563Y001529D01*
X004606Y001485D02*
X004764Y001420D01*
X004936Y001420D01*
X005094Y001485D01*
X005215Y001606D01*
X005280Y001764D01*
X005280Y001936D01*
X005215Y002094D01*
X005094Y002215D01*
X004936Y002280D01*
X004764Y002280D01*
X004606Y002215D01*
X004485Y002094D01*
X004420Y001936D01*
X004420Y001764D01*
X004485Y001606D01*
X004606Y001485D01*
X004477Y001628D02*
X004223Y001628D01*
X004264Y001726D02*
X004436Y001726D01*
X004420Y001825D02*
X004280Y001825D01*
X004280Y001923D02*
X004420Y001923D01*
X004456Y002022D02*
X004244Y002022D01*
X004188Y002120D02*
X004512Y002120D01*
X004616Y002219D02*
X004084Y002219D01*
X004308Y002317D02*
X004404Y002317D01*
X004636Y002317D02*
X004733Y002317D01*
X004733Y002303D02*
X004921Y002303D01*
X004959Y002313D01*
X004993Y002333D01*
X005021Y002361D01*
X005041Y002395D01*
X005051Y002433D01*
X005051Y002602D01*
X004733Y002602D01*
X004733Y002303D01*
X004733Y002416D02*
X004636Y002416D01*
X004636Y002514D02*
X004733Y002514D01*
X004733Y002613D02*
X005165Y002613D01*
X005167Y002711D02*
X005051Y002711D01*
X005051Y002810D02*
X005208Y002810D01*
X005328Y002908D02*
X005039Y002908D01*
X004971Y003105D02*
X005412Y003105D01*
X005314Y003204D02*
X004981Y003204D01*
X004981Y003302D02*
X005215Y003302D01*
X005117Y003401D02*
X004981Y003401D01*
X004981Y003499D02*
X005050Y003499D01*
X005050Y003598D02*
X004981Y003598D01*
X004981Y003696D02*
X005050Y003696D01*
X005050Y003795D02*
X004981Y003795D01*
X004981Y003893D02*
X005050Y003893D01*
X005050Y003992D02*
X004981Y003992D01*
X004981Y004090D02*
X005027Y004090D01*
X005396Y004287D02*
X007804Y004287D01*
X007706Y004189D02*
X005450Y004189D01*
X005450Y004090D02*
X007607Y004090D01*
X007509Y003992D02*
X005450Y003992D01*
X005450Y003893D02*
X007410Y003893D01*
X007312Y003795D02*
X005450Y003795D01*
X005450Y003696D02*
X007213Y003696D01*
X007115Y003598D02*
X006163Y003598D01*
X006217Y003499D02*
X007016Y003499D01*
X007888Y003105D02*
X011300Y003105D01*
X011300Y003204D02*
X007986Y003204D01*
X008085Y003302D02*
X011300Y003302D01*
X011300Y003401D02*
X010020Y003401D01*
X010034Y003405D02*
X010102Y003439D01*
X010163Y003484D01*
X010216Y003537D01*
X010261Y003598D01*
X010295Y003666D01*
X010318Y003738D01*
X010328Y003800D01*
X009900Y003800D01*
X009900Y003372D01*
X009962Y003382D01*
X010034Y003405D01*
X009900Y003401D02*
X009800Y003401D01*
X009680Y003401D02*
X009019Y003401D01*
X009178Y003499D02*
X009522Y003499D01*
X009440Y003598D02*
X009265Y003598D01*
X009306Y003696D02*
X009395Y003696D01*
X009373Y003795D02*
X009330Y003795D01*
X009800Y003795D02*
X009900Y003795D01*
X009900Y003696D02*
X009800Y003696D01*
X009800Y003598D02*
X009900Y003598D01*
X009900Y003499D02*
X009800Y003499D01*
X010178Y003499D02*
X011300Y003499D01*
X011300Y003598D02*
X010260Y003598D01*
X010305Y003696D02*
X011300Y003696D01*
X011300Y003795D02*
X010327Y003795D01*
X011300Y003007D02*
X007789Y003007D01*
X007691Y002908D02*
X011300Y002908D01*
X011300Y002810D02*
X007592Y002810D01*
X007494Y002711D02*
X011300Y002711D01*
X011300Y002613D02*
X007401Y002613D01*
X007500Y002514D02*
X011300Y002514D01*
X011300Y002416D02*
X007598Y002416D01*
X007697Y002317D02*
X011300Y002317D01*
X011300Y002219D02*
X007795Y002219D01*
X007894Y002120D02*
X011300Y002120D01*
X011300Y002022D02*
X007992Y002022D01*
X008091Y001923D02*
X011300Y001923D01*
X011300Y001825D02*
X008172Y001825D01*
X008172Y001726D02*
X011300Y001726D01*
X011300Y001628D02*
X008172Y001628D01*
X007772Y001628D02*
X007223Y001628D01*
X007264Y001726D02*
X007722Y001726D01*
X007623Y001825D02*
X007280Y001825D01*
X007280Y001923D02*
X007525Y001923D01*
X007426Y002022D02*
X007244Y002022D01*
X007188Y002120D02*
X007328Y002120D01*
X007229Y002219D02*
X007084Y002219D01*
X007131Y002317D02*
X006177Y002317D01*
X006084Y002219D02*
X006616Y002219D01*
X006512Y002120D02*
X006188Y002120D01*
X006244Y002022D02*
X006456Y002022D01*
X006420Y001923D02*
X006280Y001923D01*
X006280Y001825D02*
X006420Y001825D01*
X006436Y001726D02*
X006264Y001726D01*
X006223Y001628D02*
X006477Y001628D01*
X006563Y001529D02*
X006137Y001529D01*
X005739Y001431D02*
X004961Y001431D01*
X005137Y001529D02*
X005563Y001529D01*
X005477Y001628D02*
X005223Y001628D01*
X005264Y001726D02*
X005436Y001726D01*
X005420Y001825D02*
X005280Y001825D01*
X005280Y001923D02*
X005420Y001923D01*
X005456Y002022D02*
X005244Y002022D01*
X005188Y002120D02*
X005512Y002120D01*
X005616Y002219D02*
X005084Y002219D01*
X004965Y002317D02*
X005523Y002317D01*
X005281Y002416D02*
X005046Y002416D01*
X005051Y002514D02*
X005198Y002514D01*
X005450Y002650D02*
X005815Y002650D01*
X005850Y002615D01*
X007115Y002615D01*
X008183Y003401D02*
X008681Y003401D01*
X008522Y003499D02*
X008282Y003499D01*
X008380Y003598D02*
X008435Y003598D01*
X007903Y004386D02*
X005297Y004386D01*
X005199Y004484D02*
X005610Y004484D01*
X005606Y004485D02*
X005764Y004420D01*
X005936Y004420D01*
X006094Y004485D01*
X006215Y004606D01*
X006280Y004764D01*
X006280Y004936D01*
X006215Y005094D01*
X006094Y005215D01*
X005936Y005280D01*
X005764Y005280D01*
X005606Y005215D01*
X005485Y005094D01*
X005420Y004936D01*
X005420Y004764D01*
X005485Y004606D01*
X005606Y004485D01*
X005509Y004583D02*
X005191Y004583D01*
X005245Y004681D02*
X005455Y004681D01*
X005420Y004780D02*
X005280Y004780D01*
X005280Y004878D02*
X005420Y004878D01*
X005437Y004977D02*
X005263Y004977D01*
X005222Y005075D02*
X005478Y005075D01*
X005565Y005174D02*
X005135Y005174D01*
X004955Y005272D02*
X005745Y005272D01*
X005955Y005272D02*
X006745Y005272D01*
X006764Y005280D02*
X006606Y005215D01*
X006485Y005094D01*
X006420Y004936D01*
X006420Y004764D01*
X006485Y004606D01*
X006606Y004485D01*
X006764Y004420D01*
X006936Y004420D01*
X007094Y004485D01*
X007215Y004606D01*
X007280Y004764D01*
X007280Y004936D01*
X007215Y005094D01*
X007094Y005215D01*
X006936Y005280D01*
X006764Y005280D01*
X006955Y005272D02*
X008615Y005272D01*
X008495Y005174D02*
X007135Y005174D01*
X007222Y005075D02*
X008424Y005075D01*
X008383Y004977D02*
X007263Y004977D01*
X007280Y004878D02*
X008370Y004878D01*
X008370Y004780D02*
X007280Y004780D01*
X007245Y004681D02*
X008400Y004681D01*
X008441Y004583D02*
X007191Y004583D01*
X007090Y004484D02*
X008001Y004484D01*
X006610Y004484D02*
X006090Y004484D01*
X006191Y004583D02*
X006509Y004583D01*
X006455Y004681D02*
X006245Y004681D01*
X006280Y004780D02*
X006420Y004780D01*
X006420Y004878D02*
X006280Y004878D01*
X006263Y004977D02*
X006437Y004977D01*
X006478Y005075D02*
X006222Y005075D01*
X006135Y005174D02*
X006565Y005174D01*
X006231Y005595D02*
X006105Y005469D01*
X006261Y005666D02*
X006439Y005666D01*
X006400Y005765D02*
X006300Y005765D01*
X006300Y005863D02*
X006400Y005863D01*
X006409Y005962D02*
X006291Y005962D01*
X006250Y006060D02*
X006450Y006060D01*
X006522Y006159D02*
X006178Y006159D01*
X006043Y006257D02*
X006657Y006257D01*
X007043Y006257D02*
X008578Y006257D01*
X008480Y006159D02*
X007178Y006159D01*
X007250Y006060D02*
X008417Y006060D01*
X008377Y005962D02*
X007291Y005962D01*
X007300Y005863D02*
X008370Y005863D01*
X008370Y005765D02*
X007300Y005765D01*
X007261Y005666D02*
X008407Y005666D01*
X007231Y005595D02*
X007105Y005469D01*
X005657Y006257D02*
X005043Y006257D01*
X005178Y006159D02*
X005522Y006159D01*
X005450Y006060D02*
X005250Y006060D01*
X005291Y005962D02*
X005409Y005962D01*
X005400Y005863D02*
X005300Y005863D01*
X005300Y005765D02*
X005400Y005765D01*
X005439Y005666D02*
X005261Y005666D01*
X005231Y005595D02*
X005105Y005469D01*
X004439Y005666D02*
X004261Y005666D01*
X004231Y005595D02*
X004105Y005469D01*
X004300Y005765D02*
X004400Y005765D01*
X004400Y005863D02*
X004300Y005863D01*
X004291Y005962D02*
X004409Y005962D01*
X004450Y006060D02*
X004250Y006060D01*
X004178Y006159D02*
X004522Y006159D01*
X004657Y006257D02*
X004043Y006257D01*
X003657Y006257D02*
X003043Y006257D01*
X003178Y006159D02*
X003522Y006159D01*
X003450Y006060D02*
X003250Y006060D01*
X003291Y005962D02*
X003409Y005962D01*
X003400Y005863D02*
X003300Y005863D01*
X003300Y005765D02*
X003400Y005765D01*
X003439Y005666D02*
X003261Y005666D01*
X003231Y005595D02*
X003105Y005469D01*
X002439Y005666D02*
X002261Y005666D01*
X002231Y005595D02*
X002105Y005469D01*
X002300Y005765D02*
X002400Y005765D01*
X002400Y005863D02*
X002300Y005863D01*
X002291Y005962D02*
X002409Y005962D01*
X002450Y006060D02*
X002250Y006060D01*
X002178Y006159D02*
X002522Y006159D01*
X002657Y006257D02*
X002043Y006257D01*
X001657Y006257D02*
X001042Y006257D01*
X001178Y006159D02*
X001522Y006159D01*
X001450Y006060D02*
X001248Y006060D01*
X001287Y005962D02*
X001409Y005962D01*
X000522Y006159D02*
X000471Y006159D01*
X000452Y006060D02*
X000372Y006060D01*
X000413Y005962D02*
X000300Y005962D01*
X000820Y005174D02*
X000880Y005174D01*
X000880Y005075D02*
X000820Y005075D01*
X000820Y004977D02*
X000880Y004977D01*
X001130Y005178D02*
X001178Y005130D01*
X001218Y005075D01*
X001261Y004977D02*
X001437Y004977D01*
X000403Y003992D02*
X000300Y003992D01*
X000300Y003893D02*
X000403Y003893D01*
X000422Y003795D02*
X000300Y003795D01*
X000300Y003696D02*
X000405Y003696D01*
X000403Y003598D02*
X000300Y003598D01*
X000300Y003499D02*
X000403Y003499D01*
X000403Y003401D02*
X000300Y003401D01*
X000300Y003302D02*
X000403Y003302D01*
X000403Y003204D02*
X000300Y003204D01*
X000300Y003105D02*
X000435Y003105D01*
X000550Y003007D02*
X000300Y003007D01*
X000300Y002908D02*
X000550Y002908D01*
X000550Y002810D02*
X000300Y002810D01*
X000300Y002711D02*
X000550Y002711D01*
X000550Y002613D02*
X000300Y002613D01*
X000300Y002514D02*
X000550Y002514D01*
X000550Y002416D02*
X000300Y002416D01*
X000300Y002317D02*
X000550Y002317D01*
X000550Y002219D02*
X000300Y002219D01*
X000300Y002120D02*
X000512Y002120D01*
X000456Y002022D02*
X000300Y002022D01*
X000300Y001923D02*
X000420Y001923D01*
X000420Y001825D02*
X000300Y001825D01*
X000300Y001726D02*
X000436Y001726D01*
X000477Y001628D02*
X000300Y001628D01*
X000950Y002908D02*
X001146Y002908D01*
X001146Y003007D02*
X000950Y003007D01*
X001065Y003105D02*
X001146Y003105D01*
X001174Y003204D02*
X001097Y003204D01*
X004389Y003007D02*
X005503Y003007D01*
X004733Y002908D02*
X004636Y002908D01*
X004636Y002810D02*
X004733Y002810D01*
X004733Y002711D02*
X004636Y002711D01*
X005485Y003598D02*
X005537Y003598D01*
X007137Y001529D02*
X007772Y001529D01*
X005600Y001234D02*
X005100Y001234D01*
X005201Y001135D02*
X005499Y001135D01*
X005440Y001037D02*
X005260Y001037D01*
X005300Y000938D02*
X005400Y000938D01*
X005400Y000840D02*
X005300Y000840D01*
X005292Y000741D02*
X005408Y000741D01*
X005449Y000643D02*
X005251Y000643D01*
X005180Y000544D02*
X005520Y000544D01*
X005651Y000446D02*
X005049Y000446D01*
X009555Y005272D02*
X009615Y005272D01*
X009653Y005371D02*
X009753Y005371D01*
D19*
X005450Y002650D03*
X003750Y002650D03*
M02*
