G75*
G70*
%OFA0B0*%
%FSLAX24Y24*%
%IPPOS*%
%LPD*%
%AMOC8*
5,1,8,0,0,1.08239X$1,22.5*
%
%ADD10C,0.0080*%
%ADD11C,0.0137*%
%ADD12C,0.0091*%
%ADD13C,0.0114*%
%ADD14C,0.0100*%
D10*
X000600Y000350D02*
X000350Y000600D01*
X000350Y001100D01*
X000600Y001350D01*
X001100Y001350D01*
X001350Y001100D01*
X001600Y001350D01*
X002100Y001350D01*
X002350Y001100D01*
X002350Y000600D01*
X002100Y000350D01*
X001600Y000350D01*
X001350Y000600D01*
X001350Y001100D01*
X001350Y000600D02*
X001100Y000350D01*
X000600Y000350D01*
X002350Y000600D02*
X002600Y000350D01*
X003100Y000350D01*
X003350Y000600D01*
X003600Y000350D01*
X004100Y000350D01*
X004350Y000600D01*
X004600Y000350D01*
X005100Y000350D01*
X005350Y000600D01*
X005350Y001100D01*
X005100Y001350D01*
X004600Y001350D01*
X004350Y001100D01*
X004100Y001350D01*
X003600Y001350D01*
X003350Y001100D01*
X003100Y001350D01*
X002600Y001350D01*
X002350Y001100D01*
X003350Y001100D02*
X003350Y000600D01*
X004350Y000600D02*
X004350Y001100D01*
X005350Y001100D02*
X005600Y001350D01*
X006100Y001350D01*
X006350Y001100D01*
X006600Y001350D01*
X007100Y001350D01*
X007350Y001100D01*
X007350Y000600D01*
X007100Y000350D01*
X006600Y000350D01*
X006350Y000600D01*
X006350Y001100D01*
X006350Y000600D02*
X006100Y000350D01*
X005600Y000350D01*
X005350Y000600D01*
X008382Y001593D02*
X008413Y001607D01*
X008442Y001623D01*
X008469Y001643D01*
X008494Y001665D01*
X008516Y001691D01*
X008535Y001718D01*
X008552Y001748D01*
X008564Y001779D01*
X008574Y001811D01*
X008579Y001844D01*
X008581Y001878D01*
X008579Y001912D01*
X008574Y001945D01*
X008564Y001977D01*
X008552Y002008D01*
X008535Y002038D01*
X008516Y002065D01*
X008494Y002091D01*
X008469Y002113D01*
X008442Y002133D01*
X008413Y002149D01*
X008382Y002163D01*
X008417Y002153D01*
X008454Y002148D01*
X008490Y002146D01*
X008527Y002148D01*
X008563Y002154D01*
X008599Y002164D01*
X008633Y002178D01*
X008665Y002195D01*
X008696Y002215D01*
X008724Y002239D01*
X008749Y002265D01*
X008772Y002294D01*
X008791Y002326D01*
X008807Y002359D01*
X008820Y002393D01*
X008828Y002429D01*
X008833Y002465D01*
X008834Y002502D01*
X008831Y002539D01*
X008824Y002575D01*
X008813Y002610D01*
X008799Y002644D01*
X008781Y002676D01*
X008952Y001365D02*
X009020Y001355D01*
X009089Y001348D01*
X009158Y001344D01*
X009228Y001345D01*
X009297Y001349D01*
X009366Y001356D01*
X009434Y001367D01*
X009502Y001382D01*
X009569Y001400D01*
X009635Y001422D01*
X009521Y001251D01*
X009920Y001080D02*
X009920Y001650D01*
X009236Y001707D02*
X009238Y001737D01*
X009244Y001766D01*
X009253Y001794D01*
X009267Y001821D01*
X009283Y001846D01*
X009303Y001868D01*
X009325Y001888D01*
X009350Y001904D01*
X009377Y001918D01*
X009405Y001927D01*
X009434Y001933D01*
X009464Y001935D01*
X009494Y001933D01*
X009523Y001927D01*
X009551Y001918D01*
X009578Y001904D01*
X009603Y001888D01*
X009625Y001868D01*
X009645Y001846D01*
X009661Y001821D01*
X009675Y001794D01*
X009684Y001766D01*
X009690Y001737D01*
X009692Y001707D01*
X009690Y001677D01*
X009684Y001648D01*
X009675Y001620D01*
X009661Y001593D01*
X009645Y001568D01*
X009625Y001546D01*
X009603Y001526D01*
X009578Y001510D01*
X009551Y001496D01*
X009523Y001487D01*
X009494Y001481D01*
X009464Y001479D01*
X009434Y001481D01*
X009405Y001487D01*
X009377Y001496D01*
X009350Y001510D01*
X009325Y001526D01*
X009303Y001546D01*
X009283Y001568D01*
X009267Y001593D01*
X009253Y001620D01*
X009244Y001648D01*
X009238Y001677D01*
X009236Y001707D01*
X008780Y001650D02*
X008782Y001695D01*
X008787Y001739D01*
X008796Y001783D01*
X008808Y001826D01*
X008823Y001868D01*
X008842Y001909D01*
X008864Y001948D01*
X008889Y001985D01*
X008917Y002020D01*
X008947Y002053D01*
X008980Y002083D01*
X009015Y002111D01*
X009052Y002136D01*
X009091Y002158D01*
X009132Y002177D01*
X009174Y002192D01*
X009217Y002204D01*
X009261Y002213D01*
X009305Y002218D01*
X009350Y002220D01*
X009350Y002277D01*
X009521Y001252D02*
X009465Y001238D01*
X009408Y001228D01*
X009351Y001222D01*
X009294Y001218D01*
X009236Y001218D01*
X009179Y001222D01*
X009122Y001228D01*
X009065Y001238D01*
X009009Y001252D01*
X009008Y001251D02*
X008951Y001365D01*
X008891Y001673D02*
X008893Y001699D01*
X008899Y001724D01*
X008908Y001748D01*
X008921Y001771D01*
X008937Y001791D01*
X008957Y001809D01*
X008978Y001824D01*
X009001Y001835D01*
X009026Y001843D01*
X009052Y001847D01*
X009078Y001847D01*
X009104Y001843D01*
X009129Y001835D01*
X009152Y001824D01*
X009173Y001809D01*
X009193Y001791D01*
X009209Y001771D01*
X009222Y001748D01*
X009231Y001724D01*
X009237Y001699D01*
X009239Y001673D01*
X009237Y001647D01*
X009231Y001622D01*
X009222Y001598D01*
X009209Y001575D01*
X009193Y001555D01*
X009173Y001537D01*
X009152Y001522D01*
X009129Y001511D01*
X009104Y001503D01*
X009078Y001499D01*
X009052Y001499D01*
X009026Y001503D01*
X009001Y001511D01*
X008978Y001522D01*
X008957Y001537D01*
X008937Y001555D01*
X008921Y001575D01*
X008908Y001598D01*
X008899Y001622D01*
X008893Y001647D01*
X008891Y001673D01*
X008780Y001650D02*
X008780Y001080D01*
X009920Y001080D01*
X010033Y001194D02*
X010018Y001228D01*
X010007Y001264D01*
X010000Y001301D01*
X009996Y001338D01*
X009997Y001375D01*
X010001Y001412D01*
X010009Y001448D01*
X010021Y001484D01*
X010037Y001517D01*
X010056Y001549D01*
X010078Y001579D01*
X010103Y001607D01*
X010131Y001631D01*
X010162Y001653D01*
X010194Y001671D01*
X010228Y001686D01*
X010264Y001697D01*
X010301Y001704D01*
X010338Y001708D01*
X010375Y001707D01*
X010790Y001790D02*
X010790Y001910D01*
X010830Y001950D01*
X010910Y001950D01*
X010950Y001910D01*
X010950Y001790D01*
X011030Y001790D02*
X010790Y001790D01*
X010830Y002085D02*
X010790Y002125D01*
X010790Y002205D01*
X010830Y002245D01*
X010910Y002245D01*
X010950Y002205D01*
X010950Y002125D01*
X010910Y002085D01*
X010830Y002085D01*
X010375Y001707D02*
X010337Y001716D01*
X010301Y001729D01*
X010265Y001746D01*
X010232Y001766D01*
X010201Y001789D01*
X010172Y001815D01*
X010145Y001844D01*
X010122Y001875D01*
X010102Y001909D01*
X010085Y001944D01*
X010072Y001980D01*
X010062Y002018D01*
X010056Y002057D01*
X010054Y002096D01*
X010056Y002135D01*
X010061Y002173D01*
X010070Y002211D01*
X010083Y002248D01*
X010100Y002283D01*
X010119Y002317D01*
X010142Y002348D01*
X010168Y002377D01*
X010197Y002404D01*
X010228Y002427D01*
X010261Y002448D01*
X010790Y002459D02*
X010830Y002419D01*
X010990Y002419D01*
X010950Y002379D02*
X010950Y002459D01*
X010910Y002576D02*
X010910Y002736D01*
X010950Y002870D02*
X010950Y002950D01*
X010990Y002910D02*
X010830Y002910D01*
X010790Y002950D01*
X010790Y003067D02*
X011030Y003067D01*
X010950Y003107D02*
X010950Y003187D01*
X010910Y003227D01*
X010790Y003227D01*
X010830Y003361D02*
X010790Y003402D01*
X010790Y003482D01*
X010830Y003522D01*
X010910Y003522D01*
X010950Y003482D01*
X010950Y003402D01*
X010910Y003361D01*
X010830Y003361D01*
X010950Y003107D02*
X010910Y003067D01*
X010262Y002447D02*
X010227Y002425D01*
X010191Y002406D01*
X010153Y002390D01*
X010114Y002378D01*
X010074Y002368D01*
X010033Y002363D01*
X009992Y002361D01*
X009951Y002363D01*
X009910Y002368D01*
X009870Y002377D01*
X009831Y002389D01*
X009793Y002404D01*
X009756Y002423D01*
X009721Y002445D01*
X009689Y002470D01*
X009658Y002498D01*
X009630Y002528D01*
X009605Y002560D01*
X009583Y002595D01*
X009564Y002631D01*
X009548Y002669D01*
X009536Y002708D01*
X009526Y002748D01*
X009521Y002789D01*
X009522Y002789D02*
X009506Y002753D01*
X009486Y002719D01*
X009464Y002686D01*
X009439Y002656D01*
X009411Y002628D01*
X009381Y002602D01*
X009349Y002580D01*
X009315Y002560D01*
X009279Y002544D01*
X009242Y002531D01*
X009203Y002521D01*
X009164Y002515D01*
X009125Y002513D01*
X009086Y002514D01*
X009046Y002519D01*
X009008Y002527D01*
X008970Y002539D01*
X008934Y002554D01*
X008899Y002572D01*
X008866Y002594D01*
X008835Y002618D01*
X008806Y002645D01*
X008780Y002675D01*
X009350Y002220D02*
X009395Y002218D01*
X009439Y002213D01*
X009483Y002204D01*
X009526Y002192D01*
X009568Y002177D01*
X009609Y002158D01*
X009648Y002136D01*
X009685Y002111D01*
X009720Y002083D01*
X009753Y002053D01*
X009783Y002020D01*
X009811Y001985D01*
X009836Y001948D01*
X009858Y001909D01*
X009877Y001868D01*
X009892Y001826D01*
X009904Y001783D01*
X009913Y001739D01*
X009918Y001695D01*
X009920Y001650D01*
X008610Y001138D02*
X008630Y001162D01*
X008647Y001188D01*
X008662Y001216D01*
X008672Y001246D01*
X008680Y001276D01*
X008684Y001308D01*
X008684Y001339D01*
X008680Y001371D01*
X008673Y001401D01*
X008662Y001431D01*
X008648Y001459D01*
X008631Y001485D01*
X008610Y001510D01*
X008588Y001531D01*
X008562Y001550D01*
X008535Y001566D01*
X008506Y001578D01*
X008476Y001588D01*
X008445Y001593D01*
X008413Y001595D01*
X008382Y001593D01*
X010790Y003696D02*
X010830Y003656D01*
X010950Y003656D01*
X010790Y003696D02*
X010790Y003816D01*
X010950Y003816D01*
X010910Y003951D02*
X010830Y003951D01*
X010790Y003991D01*
X010790Y004111D01*
X010750Y004111D02*
X010710Y004071D01*
X010710Y004031D01*
X010750Y004111D02*
X010950Y004111D01*
X010950Y003991D01*
X010910Y003951D01*
X010910Y004245D02*
X010950Y004285D01*
X010950Y004366D01*
X010910Y004406D01*
X010790Y004406D01*
X010790Y004245D02*
X011030Y004245D01*
X010950Y004540D02*
X010950Y004620D01*
X010990Y004580D02*
X010830Y004580D01*
X010790Y004620D01*
X010790Y004737D02*
X010790Y004857D01*
X010830Y004897D01*
X010870Y004857D01*
X010870Y004777D01*
X010910Y004737D01*
X010950Y004777D01*
X010950Y004897D01*
X010830Y005031D02*
X010830Y005071D01*
X010790Y005071D01*
X010790Y005031D01*
X010830Y005031D01*
X010830Y005178D02*
X010790Y005219D01*
X010790Y005339D01*
X010950Y005339D02*
X010950Y005219D01*
X010910Y005178D01*
X010830Y005178D01*
X010830Y005473D02*
X010790Y005513D01*
X010790Y005593D01*
X010830Y005633D01*
X010910Y005633D01*
X010950Y005593D01*
X010950Y005513D01*
X010910Y005473D01*
X010830Y005473D01*
X010790Y005768D02*
X010950Y005768D01*
X010950Y005808D01*
X010910Y005848D01*
X010950Y005888D01*
X010910Y005928D01*
X010790Y005928D01*
X010790Y005848D02*
X010910Y005848D01*
X007350Y005600D02*
X007100Y005350D01*
X006600Y005350D01*
X006350Y005600D01*
X006100Y005350D01*
X005600Y005350D01*
X005350Y005600D01*
X005350Y006100D01*
X005600Y006350D01*
X006100Y006350D01*
X006350Y006100D01*
X006350Y005600D01*
X006350Y006100D02*
X006600Y006350D01*
X007100Y006350D01*
X007350Y006100D01*
X007350Y005600D01*
X005350Y005600D02*
X005100Y005350D01*
X004600Y005350D01*
X004350Y005600D01*
X004100Y005350D01*
X003600Y005350D01*
X003350Y005600D01*
X003100Y005350D01*
X002600Y005350D01*
X002350Y005600D01*
X002350Y006100D01*
X002600Y006350D01*
X003100Y006350D01*
X003350Y006100D01*
X003350Y005600D01*
X003350Y006100D02*
X003600Y006350D01*
X004100Y006350D01*
X004350Y006100D01*
X004350Y005600D01*
X004350Y006100D02*
X004600Y006350D01*
X005100Y006350D01*
X005350Y006100D01*
X002350Y006100D02*
X002100Y006350D01*
X001600Y006350D01*
X001350Y006100D01*
X001100Y006350D01*
X000600Y006350D01*
X000350Y006100D01*
X000350Y005600D01*
X000600Y005350D01*
X001100Y005350D01*
X001350Y005600D01*
X001600Y005350D01*
X002100Y005350D01*
X002350Y005600D01*
X001350Y005600D02*
X001350Y006100D01*
X002666Y004241D02*
X004634Y004241D01*
X003807Y003867D02*
X003807Y003650D01*
X003807Y003433D01*
X003709Y003414D02*
X003709Y003886D01*
X003591Y003886D01*
X003591Y003414D01*
X003709Y003414D01*
X003493Y003433D02*
X003493Y003650D01*
X003355Y003650D01*
X003493Y003650D02*
X003493Y003867D01*
X003807Y003650D02*
X003925Y003650D01*
X004634Y003059D02*
X002666Y003059D01*
D11*
X009447Y001792D02*
X009449Y001808D01*
X009454Y001824D01*
X009463Y001838D01*
X009475Y001850D01*
X009489Y001859D01*
X009505Y001864D01*
X009521Y001866D01*
X009537Y001864D01*
X009553Y001859D01*
X009567Y001850D01*
X009579Y001838D01*
X009588Y001824D01*
X009593Y001808D01*
X009595Y001792D01*
X009593Y001776D01*
X009588Y001760D01*
X009579Y001746D01*
X009567Y001734D01*
X009553Y001725D01*
X009537Y001720D01*
X009521Y001718D01*
X009505Y001720D01*
X009489Y001725D01*
X009475Y001734D01*
X009463Y001746D01*
X009454Y001760D01*
X009449Y001776D01*
X009447Y001792D01*
D12*
X009076Y001730D02*
X009078Y001743D01*
X009083Y001755D01*
X009092Y001765D01*
X009103Y001772D01*
X009115Y001776D01*
X009129Y001776D01*
X009141Y001772D01*
X009152Y001765D01*
X009161Y001755D01*
X009166Y001743D01*
X009168Y001730D01*
X009166Y001717D01*
X009161Y001705D01*
X009152Y001695D01*
X009141Y001688D01*
X009129Y001684D01*
X009115Y001684D01*
X009103Y001688D01*
X009092Y001695D01*
X009083Y001705D01*
X009078Y001717D01*
X009076Y001730D01*
D13*
X009293Y002334D02*
X009295Y002349D01*
X009301Y002362D01*
X009310Y002374D01*
X009321Y002383D01*
X009335Y002389D01*
X009350Y002391D01*
X009365Y002389D01*
X009378Y002383D01*
X009390Y002374D01*
X009399Y002363D01*
X009405Y002349D01*
X009407Y002334D01*
X009405Y002319D01*
X009399Y002306D01*
X009390Y002294D01*
X009379Y002285D01*
X009365Y002279D01*
X009350Y002277D01*
X009335Y002279D01*
X009322Y002285D01*
X009310Y002294D01*
X009301Y002305D01*
X009295Y002319D01*
X009293Y002334D01*
D14*
X007741Y002988D02*
X007612Y002859D01*
X007423Y003013D01*
X007347Y002974D01*
X007240Y003233D01*
X007280Y003255D01*
X007316Y003284D01*
X007345Y003320D01*
X007367Y003360D01*
X007380Y003404D01*
X007384Y003450D01*
X007379Y003500D01*
X007363Y003548D01*
X007337Y003591D01*
X007302Y003628D01*
X007260Y003657D01*
X007214Y003676D01*
X007164Y003684D01*
X007113Y003681D01*
X007065Y003668D01*
X007020Y003645D01*
X006981Y003612D01*
X006950Y003572D01*
X006929Y003527D01*
X006917Y003478D01*
X006917Y003427D01*
X006927Y003378D01*
X006948Y003331D01*
X006978Y003291D01*
X007016Y003258D01*
X007060Y003233D01*
X006953Y002974D01*
X006877Y003013D01*
X006688Y002859D01*
X006559Y002988D01*
X006713Y003177D01*
X006674Y003253D01*
X006648Y003334D01*
X006406Y003359D01*
X006406Y003541D01*
X006648Y003566D01*
X006674Y003647D01*
X006713Y003723D01*
X006559Y003912D01*
X006688Y004041D01*
X006877Y003887D01*
X006953Y003926D01*
X007034Y003952D01*
X007059Y004194D01*
X007241Y004194D01*
X007266Y003952D01*
X007347Y003926D01*
X007423Y003887D01*
X007612Y004041D01*
X007741Y003912D01*
X007587Y003723D01*
X007626Y003647D01*
X007652Y003566D01*
X007894Y003541D01*
X007894Y003359D01*
X007652Y003334D01*
X007626Y003253D01*
X007587Y003177D01*
X007741Y002988D01*
X007726Y003007D02*
X007431Y003007D01*
X007411Y003007D02*
X007334Y003007D01*
X007293Y003105D02*
X007646Y003105D01*
X007601Y003204D02*
X007252Y003204D01*
X007330Y003302D02*
X007642Y003302D01*
X007894Y003401D02*
X007379Y003401D01*
X007379Y003499D02*
X007894Y003499D01*
X007642Y003598D02*
X007331Y003598D01*
X007601Y003696D02*
X006699Y003696D01*
X006655Y003795D02*
X007645Y003795D01*
X007726Y003893D02*
X007430Y003893D01*
X007412Y003893D02*
X006888Y003893D01*
X006870Y003893D02*
X006574Y003893D01*
X006639Y003992D02*
X006749Y003992D01*
X007038Y003992D02*
X007262Y003992D01*
X007252Y004090D02*
X007048Y004090D01*
X007058Y004189D02*
X007242Y004189D01*
X007551Y003992D02*
X007661Y003992D01*
X006970Y003598D02*
X006658Y003598D01*
X006406Y003499D02*
X006922Y003499D01*
X006922Y003401D02*
X006406Y003401D01*
X006658Y003302D02*
X006970Y003302D01*
X007048Y003204D02*
X006699Y003204D01*
X006654Y003105D02*
X007007Y003105D01*
X006966Y003007D02*
X006889Y003007D01*
X006869Y003007D02*
X006574Y003007D01*
X006639Y002908D02*
X006748Y002908D01*
X007552Y002908D02*
X007661Y002908D01*
M02*
